<svg xmlns="http://www.w3.org/2000/svg" xmlns:xlink="http://www.w3.org/1999/xlink" xmlns:lucid="lucid" width="761" height="772"><g transform="translate(-599 -160)" lucid:page-tab-id="0_0"><path d="M0 0h1870.87v1322.83H0z" fill="#fff"/><path d="M840 566c0-3.3 2.7-6 6-6h307c3.3 0 6 2.7 6 6v340c0 3.3-2.7 6-6 6H846c-3.3 0-6-2.7-6-6z" fill="#fff"/><path d="M840 566c0-3.3 2.7-6 6-6h307c3.3 0 6 2.7 6 6v340c0 3.3-2.7 6-6 6H846c-3.3 0-6-2.7-6-6zM840 600h319M876 600v312M998.12 600v312" stroke="#5e5e5e" stroke-width="2" fill="none"/><use xlink:href="#a" transform="matrix(1,0,0,1,850,560) translate(134.462962962963 22.666666666666664)"/><use xlink:href="#b" transform="matrix(1,0,0,1,845,602.5) translate(4.11111111111112 13.166666666666664)"/><use xlink:href="#c" transform="matrix(1,0,0,1,881,602.5) translate(0 13.166666666666664)"/><use xlink:href="#d" transform="matrix(1,0,0,1,1003.1157519733013,602.5) translate(0 13.166666666666664)"/><use xlink:href="#e" transform="matrix(1,0,0,1,1003.1157519733013,602.5) translate(66.55555555555549 13.166666666666664)"/><use xlink:href="#f" transform="matrix(1,0,0,1,881,628.5) translate(0 13.166666666666664)"/><use xlink:href="#g" transform="matrix(1,0,0,1,1003.1157519733013,628.5) translate(0 13.166666666666664)"/><use xlink:href="#h" transform="matrix(1,0,0,1,1003.1157519733013,628.5) translate(68.33333333333326 13.166666666666664)"/><use xlink:href="#i" transform="matrix(1,0,0,1,881,654.5) translate(0 13.166666666666664)"/><use xlink:href="#j" transform="matrix(1,0,0,1,1003.1157519733013,654.5) translate(0 13.166666666666664)"/><use xlink:href="#k" transform="matrix(1,0,0,1,881,680.5) translate(0 13.211111111111109)"/><use xlink:href="#j" transform="matrix(1,0,0,1,1003.1157519733013,680.5) translate(0 13.166666666666664)"/><use xlink:href="#l" transform="matrix(1,0,0,1,881,706.5) translate(0 13.211111111111109)"/><use xlink:href="#m" transform="matrix(1,0,0,1,1003.1157519733013,706.5) translate(0 13.211111111111109)"/><use xlink:href="#n" transform="matrix(1,0,0,1,881,732.5) translate(0 13.211111111111109)"/><use xlink:href="#o" transform="matrix(1,0,0,1,1003.1157519733013,732.5) translate(0 13.211111111111109)"/><use xlink:href="#p" transform="matrix(1,0,0,1,881,758.5) translate(0 13.21111111111111)"/><use xlink:href="#q" transform="matrix(1,0,0,1,1003.1157519733013,758.5) translate(0 13.21111111111111)"/><use xlink:href="#r" transform="matrix(1,0,0,1,1003.1157519733013,758.5) translate(101.9302469135802 13.21111111111111)"/><use xlink:href="#s" transform="matrix(1,0,0,1,881,784.5) translate(0 13.211111111111109)"/><use xlink:href="#t" transform="matrix(1,0,0,1,1003.1157519733013,784.5) translate(0 13.211111111111109)"/><use xlink:href="#u" transform="matrix(1,0,0,1,1003.1157519733013,784.5) translate(101.93024691358016 13.211111111111109)"/><use xlink:href="#v" transform="matrix(1,0,0,1,845,810.5) translate(4.5 13.166666666666668)"/><use xlink:href="#w" transform="matrix(1,0,0,1,881,810.5) translate(0 13.166666666666668)"/><use xlink:href="#x" transform="matrix(1,0,0,1,1003.1157519733013,810.5) translate(0 13.166666666666668)"/><use xlink:href="#y" transform="matrix(1,0,0,1,845,836.5) translate(4.358333333333334 13.211111111111112)"/><use xlink:href="#z" transform="matrix(1,0,0,1,881,836.5) translate(0 13.211111111111112)"/><use xlink:href="#A" transform="matrix(1,0,0,1,1003.1157519733013,836.5) translate(0 13.211111111111112)"/><use xlink:href="#B" transform="matrix(1,0,0,1,1003.1157519733013,836.5) translate(67.6648148148148 13.211111111111112)"/><use xlink:href="#y" transform="matrix(1,0,0,1,845,862.5) translate(4.358333333333334 13.211111111111112)"/><use xlink:href="#C" transform="matrix(1,0,0,1,881,862.5) translate(0 13.211111111111112)"/><use xlink:href="#A" transform="matrix(1,0,0,1,1003.1157519733013,862.5) translate(0 13.211111111111112)"/><use xlink:href="#B" transform="matrix(1,0,0,1,1003.1157519733013,862.5) translate(67.6648148148148 13.211111111111112)"/><use xlink:href="#D" transform="matrix(1,0,0,1,881,888.5) translate(0 13.211111111111109)"/><use xlink:href="#E" transform="matrix(1,0,0,1,1003.1157519733013,888.5) translate(0 13.211111111111109)"/><use xlink:href="#u" transform="matrix(1,0,0,1,1003.1157519733013,888.5) translate(86.49197530864188 13.211111111111109)"/><path d="M680 186c0-3.3 2.7-6 6-6h288c3.3 0 6 2.7 6 6v236c0 3.3-2.7 6-6 6H686c-3.3 0-6-2.7-6-6z" fill="#fff"/><path d="M680 186c0-3.3 2.7-6 6-6h288c3.3 0 6 2.7 6 6v236c0 3.3-2.7 6-6 6H686c-3.3 0-6-2.7-6-6zM680 220h300M714 220v208M820 220v208" stroke="#5e5e5e" stroke-width="2" fill="none"/><use xlink:href="#F" transform="matrix(1,0,0,1,690,180) translate(122.24074074074076 22.666666666666664)"/><use xlink:href="#b" transform="matrix(1,0,0,1,685,222.5) translate(3.1111111111111196 13.166666666666664)"/><use xlink:href="#c" transform="matrix(1,0,0,1,719,222.5) translate(0 13.166666666666664)"/><use xlink:href="#d" transform="matrix(1,0,0,1,825.0148341693807,222.5) translate(0 13.166666666666664)"/><use xlink:href="#e" transform="matrix(1,0,0,1,825.0148341693807,222.5) translate(66.55555555555549 13.166666666666664)"/><use xlink:href="#G" transform="matrix(1,0,0,1,719,248.5) translate(0 13.166666666666664)"/><use xlink:href="#H" transform="matrix(1,0,0,1,825.0148341693807,248.5) translate(0 13.166666666666664)"/><use xlink:href="#h" transform="matrix(1,0,0,1,825.0148341693807,248.5) translate(82.81481481481472 13.166666666666664)"/><use xlink:href="#I" transform="matrix(1,0,0,1,719,274.5) translate(0 13.166666666666664)"/><use xlink:href="#J" transform="matrix(1,0,0,1,825.0148341693807,274.5) translate(0 13.166666666666664)"/><use xlink:href="#K" transform="matrix(1,0,0,1,719,300.5) translate(0 13.211111111111109)"/><use xlink:href="#L" transform="matrix(1,0,0,1,825.0148341693807,300.5) translate(0 13.211111111111109)"/><use xlink:href="#M" transform="matrix(1,0,0,1,719,326.5) translate(0 13.211111111111109)"/><use xlink:href="#N" transform="matrix(1,0,0,1,825.0148341693807,326.5) translate(0 13.211111111111109)"/><use xlink:href="#O" transform="matrix(1,0,0,1,719,352.5) translate(0 13.211111111111109)"/><use xlink:href="#P" transform="matrix(1,0,0,1,825.0148341693807,352.5) translate(0 13.211111111111109)"/><use xlink:href="#u" transform="matrix(1,0,0,1,825.0148341693807,352.5) translate(110.51543209876532 13.211111111111109)"/><use xlink:href="#Q" transform="matrix(1,0,0,1,719,378.5) translate(0 13.211111111111109)"/><use xlink:href="#R" transform="matrix(1,0,0,1,825.0148341693807,378.5) translate(0 13.211111111111109)"/><use xlink:href="#S" transform="matrix(1,0,0,1,685,404.5) translate(3.3583333333333414 13.211111111111109)"/><use xlink:href="#T" transform="matrix(1,0,0,1,719,404.5) translate(0 13.211111111111109)"/><use xlink:href="#d" transform="matrix(1,0,0,1,825.0148341693807,404.5) translate(0 13.166666666666664)"/><use xlink:href="#h" transform="matrix(1,0,0,1,825.0148341693807,404.5) translate(66.55555555555549 13.166666666666664)"/><path d="M659 415h-3c-3.3 0-6 2.7-6 6v186c0 3.3 2.7 6 6 6h163" stroke="#5e5e5e" stroke-width="2" fill="none"/><path d="M669 405v20M679 415h-20M659 405v20M829 603v20M839 613h-20M819 603v20" stroke="#5e5e5e" stroke-width="2" fill="#fff"/><path d="M1020 186c0-3.3 2.7-6 6-6h308c3.3 0 6 2.7 6 6v340c0 3.3-2.7 6-6 6h-308c-3.3 0-6-2.7-6-6z" fill="#fff"/><path d="M1020 186c0-3.3 2.7-6 6-6h308c3.3 0 6 2.7 6 6v340c0 3.3-2.7 6-6 6h-308c-3.3 0-6-2.7-6-6zM1020 220h320M1054 220v312M1177.3 220v312" stroke="#5e5e5e" stroke-width="2" fill="none"/><use xlink:href="#U" transform="matrix(1,0,0,1,1030,180) translate(132.61111111111114 22.666666666666664)"/><use xlink:href="#b" transform="matrix(1,0,0,1,1025,222.5) translate(3.1111111111111196 13.166666666666664)"/><use xlink:href="#c" transform="matrix(1,0,0,1,1059,222.5) translate(0 13.166666666666664)"/><use xlink:href="#d" transform="matrix(1,0,0,1,1182.3087124230403,222.5) translate(0 13.166666666666664)"/><use xlink:href="#e" transform="matrix(1,0,0,1,1182.3087124230403,222.5) translate(66.55555555555549 13.166666666666664)"/><use xlink:href="#V" transform="matrix(1,0,0,1,1059,248.5) translate(0 13.166666666666664)"/><use xlink:href="#W" transform="matrix(1,0,0,1,1182.3087124230403,248.5) translate(0 13.166666666666664)"/><use xlink:href="#h" transform="matrix(1,0,0,1,1182.3087124230403,248.5) translate(34.77777777777774 13.166666666666664)"/><use xlink:href="#X" transform="matrix(1,0,0,1,1059,274.5) translate(0 13.211111111111112)"/><use xlink:href="#Y" transform="matrix(1,0,0,1,1182.3087124230403,274.5) translate(0 13.211111111111112)"/><use xlink:href="#Z" transform="matrix(1,0,0,1,1182.3087124230403,274.5) translate(36.07283950617283 13.211111111111112)"/><use xlink:href="#aa" transform="matrix(1,0,0,1,1059,300.5) translate(0 13.211111111111109)"/><use xlink:href="#ab" transform="matrix(1,0,0,1,1182.3087124230403,300.5) translate(0 13.211111111111109)"/><use xlink:href="#ac" transform="matrix(1,0,0,1,1059,326.5) translate(0 13.211111111111109)"/><use xlink:href="#E" transform="matrix(1,0,0,1,1182.3087124230403,326.5) translate(0 13.211111111111109)"/><use xlink:href="#u" transform="matrix(1,0,0,1,1182.3087124230403,326.5) translate(86.49197530864188 13.211111111111109)"/><use xlink:href="#ad" transform="matrix(1,0,0,1,1059,352.5) translate(0 13.211111111111112)"/><use xlink:href="#ae" transform="matrix(1,0,0,1,1182.3087124230403,352.5) translate(0 13.211111111111112)"/><use xlink:href="#af" transform="matrix(1,0,0,1,1059,378.5) translate(0 13.211111111111112)"/><use xlink:href="#ag" transform="matrix(1,0,0,1,1182.3087124230403,378.5) translate(0 13.211111111111112)"/><use xlink:href="#B" transform="matrix(1,0,0,1,1182.3087124230403,378.5) translate(42.58703703703703 13.211111111111112)"/><use xlink:href="#ah" transform="matrix(1,0,0,1,1059,404.5) translate(0 13.211111111111112)"/><use xlink:href="#ai" transform="matrix(1,0,0,1,1182.3087124230403,404.5) translate(0 13.211111111111112)"/><use xlink:href="#aj" transform="matrix(1,0,0,1,1059,430.5) translate(0 13.211111111111112)"/><use xlink:href="#ak" transform="matrix(1,0,0,1,1182.3087124230403,430.5) translate(0 13.211111111111112)"/><use xlink:href="#B" transform="matrix(1,0,0,1,1182.3087124230403,430.5) translate(82.38765432098765 13.211111111111112)"/><use xlink:href="#al" transform="matrix(1,0,0,1,1059,456.5) translate(0 13.211111111111112)"/><use xlink:href="#am" transform="matrix(1,0,0,1,1182.3087124230403,456.5) translate(0 13.211111111111112)"/><use xlink:href="#an" transform="matrix(1,0,0,1,1059,482.5) translate(0 13.211111111111112)"/><use xlink:href="#am" transform="matrix(1,0,0,1,1182.3087124230403,482.5) translate(0 13.211111111111112)"/><use xlink:href="#S" transform="matrix(1,0,0,1,1025,508.5) translate(3.3583333333333414 13.211111111111109)"/><use xlink:href="#T" transform="matrix(1,0,0,1,1059,508.5) translate(0 13.211111111111109)"/><use xlink:href="#d" transform="matrix(1,0,0,1,1182.3087124230403,508.5) translate(0 13.166666666666664)"/><use xlink:href="#h" transform="matrix(1,0,0,1,1182.3087124230403,508.5) translate(66.55555555555549 13.166666666666664)"/><path d="M999 519H806c-3.3 0-6 2.7-6 6v82c0 3.3 2.7 6 6 6h13" stroke="#5e5e5e" stroke-width="2" fill="none"/><path d="M1009 509v20M1019 519h-20M999 509v20M829 603v20M839 613h-20M819 603v20" stroke="#5e5e5e" stroke-width="2" fill="#fff"/><path d="M800 873H616c-3.3 0-6-2.7-6-6V239c0-3.3 2.7-6 6-6h43" stroke="#5e5e5e" stroke-width="2" fill="none"/><path d="M829 863v20M839 873h-20M819 873c0 5.52-4.48 10-10 10s-10-4.48-10-10 4.48-10 10-10 10 4.48 10 10M669 223v20M679 233h-20M659 223v20" stroke="#5e5e5e" stroke-width="2" fill="#fff"/><path d="M800 847H626c-3.3 0-6-2.7-6-6V239c0-3.3 2.7-6 6-6h33" stroke="#5e5e5e" stroke-width="2" fill="none"/><path d="M829 837v20M839 847h-20M819 847c0 5.52-4.48 10-10 10s-10-4.48-10-10 4.48-10 10-10 10 4.48 10 10M669 223v20M679 233h-20M659 223v20" stroke="#5e5e5e" stroke-width="2" fill="#fff"/><path d="M819 821H636c-3.3 0-6-2.7-6-6V239c0-3.3 2.7-6 6-6h23" stroke="#5e5e5e" stroke-width="2" fill="none"/><path d="M829 811v20M839 821h-20M819 811v20M669 223v20M679 233h-20M659 223v20" stroke="#5e5e5e" stroke-width="2" fill="#fff"/><defs><path fill="#333" d="M220-157c-53 9-28 100-34 157h-49v-107c1-27-5-49-29-50C55-147 81-57 75 0H25l-1-190h47c2 12-1 28 3 38 10-53 101-56 108 0 13-22 24-43 59-42 82 1 51 116 57 194h-49v-107c-1-25-5-48-29-50" id="ao"/><path fill="#333" d="M185-48c-13 30-37 53-82 52C43 2 14-33 14-96s30-98 90-98c62 0 83 45 84 108H66c0 31 8 55 39 56 18 0 30-7 34-22zm-45-69c5-46-57-63-70-21-2 6-4 13-4 21h74" id="ap"/><path fill="#333" d="M115-3C79 11 28 4 28-45v-112H4v-33h27l15-45h31v45h36v33H77v99c-1 23 16 31 38 25v30" id="aq"/><path fill="#333" d="M133-34C117-15 103 5 69 4 32 3 11-16 11-54c-1-60 55-63 116-61 1-26-3-47-28-47-18 1-26 9-28 27l-52-2c7-38 36-58 82-57s74 22 75 68l1 82c-1 14 12 18 25 15v27c-30 8-71 5-69-32zm-48 3c29 0 43-24 42-57-32 0-66-3-65 30 0 17 8 27 23 27" id="ar"/><g id="a"><use transform="matrix(0.037037037037037,0,0,0.037037037037037,0,0)" xlink:href="#ao"/><use transform="matrix(0.037037037037037,0,0,0.037037037037037,11.85185185185184,0)" xlink:href="#ap"/><use transform="matrix(0.037037037037037,0,0,0.037037037037037,19.25925925925924,0)" xlink:href="#aq"/><use transform="matrix(0.037037037037037,0,0,0.037037037037037,23.666666666666643,0)" xlink:href="#ar"/></g><path fill="#333" d="M30-248c87 1 191-15 191 75 0 78-77 80-158 76V0H30v-248zm33 125c57 0 124 11 124-50 0-59-68-47-124-48v98" id="as"/><path fill="#333" d="M194 0L95-120 63-95V0H30v-248h33v124l119-124h40L117-140 236 0h-42" id="at"/><g id="b"><use transform="matrix(0.037037037037037,0,0,0.037037037037037,0,0)" xlink:href="#as"/><use transform="matrix(0.037037037037037,0,0,0.037037037037037,8.88888888888888,0)" xlink:href="#at"/></g><path fill="#333" d="M24-231v-30h32v30H24zM24 0v-190h32V0H24" id="au"/><path fill="#333" d="M85-194c31 0 48 13 60 33l-1-100h32l1 261h-30c-2-10 0-23-3-31C134-8 116 4 85 4 32 4 16-35 15-94c0-66 23-100 70-100zm9 24c-40 0-46 34-46 75 0 40 6 74 45 74 42 0 51-32 51-76 0-42-9-74-50-73" id="av"/><g id="c"><use transform="matrix(0.037037037037037,0,0,0.037037037037037,0,0)" xlink:href="#au"/><use transform="matrix(0.037037037037037,0,0,0.037037037037037,2.925925925925923,0)" xlink:href="#av"/></g><path fill="#333" d="M33 0v-248h34V0H33" id="aw"/><path fill="#333" d="M190 0L58-211 59 0H30v-248h39L202-35l-2-213h31V0h-41" id="ax"/><path fill="#333" d="M127-220V0H93v-220H8v-28h204v28h-85" id="ay"/><path fill="#333" d="M30 0v-248h187v28H63v79h144v27H63v87h162V0H30" id="az"/><path fill="#333" d="M143 4C61 4 22-44 18-125c-5-107 100-154 193-111 17 8 29 25 37 43l-32 9c-13-25-37-40-76-40-61 0-88 39-88 99 0 61 29 100 91 101 35 0 62-11 79-27v-45h-74v-28h105v86C228-13 192 4 143 4" id="aA"/><path fill="#333" d="M233-177c-1 41-23 64-60 70L243 0h-38l-65-103H63V0H30v-248c88 3 205-21 203 71zM63-129c60-2 137 13 137-47 0-61-80-42-137-45v92" id="aB"/><path fill="#333" d="M68-38c1 34 0 65-14 84H32c9-13 17-26 17-46H33v-38h35" id="aC"/><g id="d"><use transform="matrix(0.037037037037037,0,0,0.037037037037037,0,0)" xlink:href="#aw"/><use transform="matrix(0.037037037037037,0,0,0.037037037037037,3.7037037037037,0)" xlink:href="#ax"/><use transform="matrix(0.037037037037037,0,0,0.037037037037037,13.296296296296283,0)" xlink:href="#ay"/><use transform="matrix(0.037037037037037,0,0,0.037037037037037,21.407407407407387,0)" xlink:href="#az"/><use transform="matrix(0.037037037037037,0,0,0.037037037037037,30.29629629629627,0)" xlink:href="#aA"/><use transform="matrix(0.037037037037037,0,0,0.037037037037037,40.66666666666663,0)" xlink:href="#az"/><use transform="matrix(0.037037037037037,0,0,0.037037037037037,49.55555555555551,0)" xlink:href="#aB"/><use transform="matrix(0.037037037037037,0,0,0.037037037037037,59.14814814814809,0)" xlink:href="#aC"/></g><path fill="#333" d="M30-248c118-7 216 8 213 122C240-48 200 0 122 0H30v-248zM63-27c89 8 146-16 146-99s-60-101-146-95v194" id="aD"/><path fill="#333" d="M137-103V0h-34v-103L8-248h37l75 118 75-118h37" id="aE"/><g id="e"><use transform="matrix(0.037037037037037,0,0,0.037037037037037,0,0)" xlink:href="#aw"/><use transform="matrix(0.037037037037037,0,0,0.037037037037037,3.7037037037037,0)" xlink:href="#aD"/><use transform="matrix(0.037037037037037,0,0,0.037037037037037,13.296296296296283,0)" xlink:href="#az"/><use transform="matrix(0.037037037037037,0,0,0.037037037037037,22.185185185185162,0)" xlink:href="#ax"/><use transform="matrix(0.037037037037037,0,0,0.037037037037037,31.777777777777743,0)" xlink:href="#ay"/><use transform="matrix(0.037037037037037,0,0,0.037037037037037,39.88888888888884,0)" xlink:href="#aw"/><use transform="matrix(0.037037037037037,0,0,0.037037037037037,43.59259259259255,0)" xlink:href="#ay"/><use transform="matrix(0.037037037037037,0,0,0.037037037037037,51.70370370370365,0)" xlink:href="#aE"/></g><path fill="#333" d="M210-169c-67 3-38 105-44 169h-31v-121c0-29-5-50-35-48C34-165 62-65 56 0H25l-1-190h30c1 10-1 24 2 32 10-44 99-50 107 0 11-21 27-35 58-36 85-2 47 119 55 194h-31v-121c0-29-5-49-35-48" id="aF"/><path fill="#333" d="M100-194c63 0 86 42 84 106H49c0 40 14 67 53 68 26 1 43-12 49-29l28 8c-11 28-37 45-77 45C44 4 14-33 15-96c1-61 26-98 85-98zm52 81c6-60-76-77-97-28-3 7-6 17-6 28h103" id="aG"/><path fill="#333" d="M59-47c-2 24 18 29 38 22v24C64 9 27 4 27-40v-127H5v-23h24l9-43h21v43h35v23H59v120" id="aH"/><path fill="#333" d="M141-36C126-15 110 5 73 4 37 3 15-17 15-53c-1-64 63-63 125-63 3-35-9-54-41-54-24 1-41 7-42 31l-33-3c5-37 33-52 76-52 45 0 72 20 72 64v82c-1 20 7 32 28 27v20c-31 9-61-2-59-35zM48-53c0 20 12 33 32 33 41-3 63-29 60-74-43 2-92-5-92 41" id="aI"/><path fill="#333" d="M143 0L79-87 56-68V0H24v-261h32v163l83-92h37l-77 82L181 0h-38" id="aJ"/><path fill="#333" d="M179-190L93 31C79 59 56 82 12 73V49c39 6 53-20 64-50L1-190h34L92-34l54-156h33" id="aK"/><g id="f"><use transform="matrix(0.037037037037037,0,0,0.037037037037037,0,0)" xlink:href="#aF"/><use transform="matrix(0.037037037037037,0,0,0.037037037037037,11.074074074074064,0)" xlink:href="#aG"/><use transform="matrix(0.037037037037037,0,0,0.037037037037037,18.481481481481463,0)" xlink:href="#aH"/><use transform="matrix(0.037037037037037,0,0,0.037037037037037,22.185185185185162,0)" xlink:href="#aI"/><use transform="matrix(0.037037037037037,0,0,0.037037037037037,29.592592592592563,0)" xlink:href="#aJ"/><use transform="matrix(0.037037037037037,0,0,0.037037037037037,36.259259259259224,0)" xlink:href="#aG"/><use transform="matrix(0.037037037037037,0,0,0.037037037037037,43.66666666666662,0)" xlink:href="#aK"/></g><path fill="#333" d="M240 0l2-218c-23 76-54 145-80 218h-23L58-218 59 0H30v-248h44l77 211c21-75 51-140 76-211h43V0h-30" id="aL"/><path fill="#333" d="M205 0l-28-72H64L36 0H1l101-248h38L239 0h-34zm-38-99l-47-123c-12 45-31 82-46 123h93" id="aM"/><g id="g"><use transform="matrix(0.037037037037037,0,0,0.037037037037037,0,0)" xlink:href="#aL"/><use transform="matrix(0.037037037037037,0,0,0.037037037037037,11.074074074074064,0)" xlink:href="#az"/><use transform="matrix(0.037037037037037,0,0,0.037037037037037,19.962962962962944,0)" xlink:href="#ay"/><use transform="matrix(0.037037037037037,0,0,0.037037037037037,27.074074074074048,0)" xlink:href="#aM"/><use transform="matrix(0.037037037037037,0,0,0.037037037037037,35.962962962962926,0)" xlink:href="#at"/><use transform="matrix(0.037037037037037,0,0,0.037037037037037,44.851851851851805,0)" xlink:href="#az"/><use transform="matrix(0.037037037037037,0,0,0.037037037037037,53.74074074074069,0)" xlink:href="#aE"/><use transform="matrix(0.037037037037037,0,0,0.037037037037037,60.92592592592586,0)" xlink:href="#aC"/></g><path fill="#333" d="M232-93c-1 65-40 97-104 97C67 4 28-28 28-90v-158h33c8 89-33 224 67 224 102 0 64-133 71-224h33v155" id="aN"/><use transform="matrix(0.037037037037037,0,0,0.037037037037037,0,0)" xlink:href="#aN" id="h"/><path fill="#333" d="M100-194c62-1 85 37 85 99 1 63-27 99-86 99S16-35 15-95c0-66 28-99 85-99zM99-20c44 1 53-31 53-75 0-43-8-75-51-75s-53 32-53 75 10 74 51 75" id="aO"/><path fill="#333" d="M115-194c55 1 70 41 70 98S169 2 115 4C84 4 66-9 55-30l1 105H24l-1-265h31l2 30c10-21 28-34 59-34zm-8 174c40 0 45-34 45-75s-6-73-45-74c-42 0-51 32-51 76 0 43 10 73 51 73" id="aP"/><path fill="#333" d="M117-194c89-4 53 116 60 194h-32v-121c0-31-8-49-39-48C34-167 62-67 57 0H25l-1-190h30c1 10-1 24 2 32 11-22 29-35 61-36" id="aQ"/><path fill="#333" d="M135-143c-3-34-86-38-87 0 15 53 115 12 119 90S17 21 10-45l28-5c4 36 97 45 98 0-10-56-113-15-118-90-4-57 82-63 122-42 12 7 21 19 24 35" id="aR"/><g id="i"><use transform="matrix(0.037037037037037,0,0,0.037037037037037,0,0)" xlink:href="#aO"/><use transform="matrix(0.037037037037037,0,0,0.037037037037037,7.4074074074074,0)" xlink:href="#aP"/><use transform="matrix(0.037037037037037,0,0,0.037037037037037,14.8148148148148,0)" xlink:href="#aG"/><use transform="matrix(0.037037037037037,0,0,0.037037037037037,22.2222222222222,0)" xlink:href="#aQ"/><use transform="matrix(0.037037037037037,0,0,0.037037037037037,29.6296296296296,0)" xlink:href="#aR"/></g><path fill="#333" d="M-5 72V49h209v23H-5" id="aS"/><path fill="#333" d="M140-251c81 0 123 46 123 126C263-46 219 4 140 4 59 4 17-45 17-125s42-126 123-126zm0 227c63 0 89-41 89-101s-29-99-89-99c-61 0-89 39-89 99S79-25 140-24" id="aT"/><path fill="#333" d="M185-189c-5-48-123-54-124 2 14 75 158 14 163 119 3 78-121 87-175 55-17-10-28-26-33-46l33-7c5 56 141 63 141-1 0-78-155-14-162-118-5-82 145-84 179-34 5 7 8 16 11 25" id="aU"/><path fill="#333" d="M137 0h-34L2-248h35l83 218 83-218h36" id="aV"/><g id="j"><use transform="matrix(0.037037037037037,0,0,0.037037037037037,0,0)" xlink:href="#aw"/><use transform="matrix(0.037037037037037,0,0,0.037037037037037,3.7037037037037,0)" xlink:href="#ax"/><use transform="matrix(0.037037037037037,0,0,0.037037037037037,13.296296296296283,0)" xlink:href="#ay"/><use transform="matrix(0.037037037037037,0,0,0.037037037037037,21.407407407407387,0)" xlink:href="#aS"/><use transform="matrix(0.037037037037037,0,0,0.037037037037037,28.814814814814785,0)" xlink:href="#as"/><use transform="matrix(0.037037037037037,0,0,0.037037037037037,37.70370370370367,0)" xlink:href="#aT"/><use transform="matrix(0.037037037037037,0,0,0.037037037037037,48.074074074074026,0)" xlink:href="#aU"/><use transform="matrix(0.037037037037037,0,0,0.037037037037037,56.962962962962905,0)" xlink:href="#aw"/><use transform="matrix(0.037037037037037,0,0,0.037037037037037,60.66666666666661,0)" xlink:href="#ay"/><use transform="matrix(0.037037037037037,0,0,0.037037037037037,68.77777777777771,0)" xlink:href="#aw"/><use transform="matrix(0.037037037037037,0,0,0.037037037037037,72.48148148148141,0)" xlink:href="#aV"/><use transform="matrix(0.037037037037037,0,0,0.037037037037037,81.3703703703703,0)" xlink:href="#az"/></g><path d="M100-194c63 0 86 42 84 106H49c0 40 14 67 53 68 26 1 43-12 49-29l28 8c-11 28-37 45-77 45C44 4 14-33 15-96c1-61 26-98 85-98zm52 81c6-60-76-77-97-28-3 7-6 17-6 28h103" id="aW"/><path d="M85-194c31 0 48 13 60 33l-1-100h32l1 261h-30c-2-10 0-23-3-31C134-8 116 4 85 4 32 4 16-35 15-94c0-66 23-100 70-100zm9 24c-40 0-46 34-46 75 0 40 6 74 45 74 42 0 51-32 51-76 0-42-9-74-50-73" id="aX"/><path d="M24-231v-30h32v30H24zM24 0v-190h32V0H24" id="aY"/><path d="M59-47c-2 24 18 29 38 22v24C64 9 27 4 27-40v-127H5v-23h24l9-43h21v43h35v23H59v120" id="aZ"/><path d="M135-143c-3-34-86-38-87 0 15 53 115 12 119 90S17 21 10-45l28-5c4 36 97 45 98 0-10-56-113-15-118-90-4-57 82-63 122-42 12 7 21 19 24 35" id="ba"/><g id="k"><use transform="matrix(0.03765432098765428,0,0,0.03765432098765428,0,0)" xlink:href="#aW"/><use transform="matrix(0.03765432098765428,0,0,0.03765432098765428,7.530864197530857,0)" xlink:href="#aX"/><use transform="matrix(0.03765432098765428,0,0,0.03765432098765428,15.061728395061714,0)" xlink:href="#aY"/><use transform="matrix(0.03765432098765428,0,0,0.03765432098765428,18.036419753086403,0)" xlink:href="#aZ"/><use transform="matrix(0.03765432098765428,0,0,0.03765432098765428,21.80185185185183,0)" xlink:href="#ba"/></g><path d="M-5 72V49h209v23H-5" id="bb"/><path d="M24 0v-261h32V0H24" id="bc"/><g id="l"><use transform="matrix(0.03765432098765428,0,0,0.03765432098765428,0,0)" xlink:href="#aY"/><use transform="matrix(0.03765432098765428,0,0,0.03765432098765428,2.9746913580246885,0)" xlink:href="#ba"/><use transform="matrix(0.03765432098765428,0,0,0.03765432098765428,9.752469135802459,0)" xlink:href="#bb"/><use transform="matrix(0.03765432098765428,0,0,0.03765432098765428,17.283333333333317,0)" xlink:href="#aX"/><use transform="matrix(0.03765432098765428,0,0,0.03765432098765428,24.814197530864174,0)" xlink:href="#aW"/><use transform="matrix(0.03765432098765428,0,0,0.03765432098765428,32.34506172839503,0)" xlink:href="#bc"/><use transform="matrix(0.03765432098765428,0,0,0.03765432098765428,35.319753086419716,0)" xlink:href="#aW"/><use transform="matrix(0.03765432098765428,0,0,0.03765432098765428,42.85061728395056,0)" xlink:href="#aZ"/><use transform="matrix(0.03765432098765428,0,0,0.03765432098765428,46.616049382716,0)" xlink:href="#aW"/><use transform="matrix(0.03765432098765428,0,0,0.03765432098765428,54.14691358024686,0)" xlink:href="#aX"/></g><path d="M160-131c35 5 61 23 61 61C221 17 115-2 30 0v-248c76 3 177-17 177 60 0 33-19 50-47 57zm-97-11c50-1 110 9 110-42 0-47-63-36-110-37v79zm0 115c55-2 124 14 124-45 0-56-70-42-124-44v89" id="bd"/><path d="M140-251c81 0 123 46 123 126C263-46 219 4 140 4 59 4 17-45 17-125s42-126 123-126zm0 227c63 0 89-41 89-101s-29-99-89-99c-61 0-89 39-89 99S79-25 140-24" id="be"/><path d="M30 0v-248h33v221h125V0H30" id="bf"/><path d="M30 0v-248h187v28H63v79h144v27H63v87h162V0H30" id="bg"/><path d="M205 0l-28-72H64L36 0H1l101-248h38L239 0h-34zm-38-99l-47-123c-12 45-31 82-46 123h93" id="bh"/><path d="M190 0L58-211 59 0H30v-248h39L202-35l-2-213h31V0h-41" id="bi"/><g id="m"><use transform="matrix(0.03765432098765428,0,0,0.03765432098765428,0,0)" xlink:href="#bd"/><use transform="matrix(0.03765432098765428,0,0,0.03765432098765428,9.037037037037027,0)" xlink:href="#be"/><use transform="matrix(0.03765432098765428,0,0,0.03765432098765428,19.580246913580226,0)" xlink:href="#be"/><use transform="matrix(0.03765432098765428,0,0,0.03765432098765428,30.123456790123427,0)" xlink:href="#bf"/><use transform="matrix(0.03765432098765428,0,0,0.03765432098765428,37.65432098765429,0)" xlink:href="#bg"/><use transform="matrix(0.03765432098765428,0,0,0.03765432098765428,46.69135802469131,0)" xlink:href="#bh"/><use transform="matrix(0.03765432098765428,0,0,0.03765432098765428,55.728395061728335,0)" xlink:href="#bi"/></g><path d="M96-169c-40 0-48 33-48 73s9 75 48 75c24 0 41-14 43-38l32 2c-6 37-31 61-74 61-59 0-76-41-82-99-10-93 101-131 147-64 4 7 5 14 7 22l-32 3c-4-21-16-35-41-35" id="bj"/><path d="M114-163C36-179 61-72 57 0H25l-1-190h30c1 12-1 29 2 39 6-27 23-49 58-41v29" id="bk"/><path d="M141-36C126-15 110 5 73 4 37 3 15-17 15-53c-1-64 63-63 125-63 3-35-9-54-41-54-24 1-41 7-42 31l-33-3c5-37 33-52 76-52 45 0 72 20 72 64v82c-1 20 7 32 28 27v20c-31 9-61-2-59-35zM48-53c0 20 12 33 32 33 41-3 63-29 60-74-43 2-92-5-92 41" id="bl"/><g id="n"><use transform="matrix(0.03765432098765428,0,0,0.03765432098765428,0,0)" xlink:href="#bj"/><use transform="matrix(0.03765432098765428,0,0,0.03765432098765428,6.777777777777771,0)" xlink:href="#bk"/><use transform="matrix(0.03765432098765428,0,0,0.03765432098765428,11.258641975308631,0)" xlink:href="#aW"/><use transform="matrix(0.03765432098765428,0,0,0.03765432098765428,18.789506172839488,0)" xlink:href="#bl"/><use transform="matrix(0.03765432098765428,0,0,0.03765432098765428,26.320370370370345,0)" xlink:href="#aZ"/><use transform="matrix(0.03765432098765428,0,0,0.03765432098765428,30.08580246913577,0)" xlink:href="#aW"/><use transform="matrix(0.03765432098765428,0,0,0.03765432098765428,37.61666666666663,0)" xlink:href="#aX"/><use transform="matrix(0.03765432098765428,0,0,0.03765432098765428,45.14753086419749,0)" xlink:href="#bb"/><use transform="matrix(0.03765432098765428,0,0,0.03765432098765428,52.67839506172835,0)" xlink:href="#bl"/><use transform="matrix(0.03765432098765428,0,0,0.03765432098765428,60.20925925925921,0)" xlink:href="#aZ"/></g><path d="M127-220V0H93v-220H8v-28h204v28h-85" id="bm"/><path d="M33 0v-248h34V0H33" id="bn"/><path d="M240 0l2-218c-23 76-54 145-80 218h-23L58-218 59 0H30v-248h44l77 211c21-75 51-140 76-211h43V0h-30" id="bo"/><path d="M185-189c-5-48-123-54-124 2 14 75 158 14 163 119 3 78-121 87-175 55-17-10-28-26-33-46l33-7c5 56 141 63 141-1 0-78-155-14-162-118-5-82 145-84 179-34 5 7 8 16 11 25" id="bp"/><path d="M30-248c87 1 191-15 191 75 0 78-77 80-158 76V0H30v-248zm33 125c57 0 124 11 124-50 0-59-68-47-124-48v98" id="bq"/><path d="M209 0H11v-25l151-195H24v-28h176v25L50-27h159V0" id="br"/><g id="o"><use transform="matrix(0.03765432098765428,0,0,0.03765432098765428,0,0)" xlink:href="#bm"/><use transform="matrix(0.03765432098765428,0,0,0.03765432098765428,8.246296296296288,0)" xlink:href="#bn"/><use transform="matrix(0.03765432098765428,0,0,0.03765432098765428,12.011728395061716,0)" xlink:href="#bo"/><use transform="matrix(0.03765432098765428,0,0,0.03765432098765428,23.270370370370348,0)" xlink:href="#bg"/><use transform="matrix(0.03765432098765428,0,0,0.03765432098765428,32.307407407407375,0)" xlink:href="#bp"/><use transform="matrix(0.03765432098765428,0,0,0.03765432098765428,41.344444444444406,0)" xlink:href="#bm"/><use transform="matrix(0.03765432098765428,0,0,0.03765432098765428,48.574074074074026,0)" xlink:href="#bh"/><use transform="matrix(0.03765432098765428,0,0,0.03765432098765428,57.611111111111065,0)" xlink:href="#bo"/><use transform="matrix(0.03765432098765428,0,0,0.03765432098765428,68.86975308641969,0)" xlink:href="#bq"/><use transform="matrix(0.03765432098765428,0,0,0.03765432098765428,77.90679012345672,0)" xlink:href="#bm"/><use transform="matrix(0.03765432098765428,0,0,0.03765432098765428,86.15308641975301,0)" xlink:href="#br"/></g><g id="p"><use transform="matrix(0.037654320987654304,0,0,0.037654320987654304,0,0)" xlink:href="#aW"/><use transform="matrix(0.037654320987654304,0,0,0.037654320987654304,7.53086419753086,0)" xlink:href="#aX"/><use transform="matrix(0.037654320987654304,0,0,0.037654320987654304,15.06172839506172,0)" xlink:href="#aY"/><use transform="matrix(0.037654320987654304,0,0,0.037654320987654304,18.03641975308641,0)" xlink:href="#aZ"/><use transform="matrix(0.037654320987654304,0,0,0.037654320987654304,21.801851851851843,0)" xlink:href="#aW"/><use transform="matrix(0.037654320987654304,0,0,0.037654320987654304,29.332716049382697,0)" xlink:href="#aX"/><use transform="matrix(0.037654320987654304,0,0,0.037654320987654304,36.86358024691356,0)" xlink:href="#bb"/><use transform="matrix(0.037654320987654304,0,0,0.037654320987654304,44.39444444444442,0)" xlink:href="#bl"/><use transform="matrix(0.037654320987654304,0,0,0.037654320987654304,51.92530864197528,0)" xlink:href="#aZ"/></g><path d="M68-38c1 34 0 65-14 84H32c9-13 17-26 17-46H33v-38h35" id="bs"/><g id="q"><use transform="matrix(0.037654320987654304,0,0,0.037654320987654304,0,0)" xlink:href="#bm"/><use transform="matrix(0.037654320987654304,0,0,0.037654320987654304,8.246296296296293,0)" xlink:href="#bn"/><use transform="matrix(0.037654320987654304,0,0,0.037654320987654304,12.011728395061724,0)" xlink:href="#bo"/><use transform="matrix(0.037654320987654304,0,0,0.037654320987654304,23.270370370370358,0)" xlink:href="#bg"/><use transform="matrix(0.037654320987654304,0,0,0.037654320987654304,32.30740740740739,0)" xlink:href="#bp"/><use transform="matrix(0.037654320987654304,0,0,0.037654320987654304,41.34444444444442,0)" xlink:href="#bm"/><use transform="matrix(0.037654320987654304,0,0,0.037654320987654304,48.574074074074055,0)" xlink:href="#bh"/><use transform="matrix(0.037654320987654304,0,0,0.037654320987654304,57.61111111111108,0)" xlink:href="#bo"/><use transform="matrix(0.037654320987654304,0,0,0.037654320987654304,68.86975308641972,0)" xlink:href="#bq"/><use transform="matrix(0.037654320987654304,0,0,0.037654320987654304,77.90679012345676,0)" xlink:href="#bm"/><use transform="matrix(0.037654320987654304,0,0,0.037654320987654304,86.15308641975305,0)" xlink:href="#br"/><use transform="matrix(0.037654320987654304,0,0,0.037654320987654304,94.39938271604935,0)" xlink:href="#bs"/></g><use transform="matrix(0.037654320987654304,0,0,0.037654320987654304,0,0)" xlink:href="#bi" id="r"/><g id="s"><use transform="matrix(0.03765432098765428,0,0,0.03765432098765428,0,0)" xlink:href="#aX"/><use transform="matrix(0.03765432098765428,0,0,0.03765432098765428,7.530864197530857,0)" xlink:href="#aW"/><use transform="matrix(0.03765432098765428,0,0,0.03765432098765428,15.061728395061714,0)" xlink:href="#bc"/><use transform="matrix(0.03765432098765428,0,0,0.03765432098765428,18.036419753086403,0)" xlink:href="#aW"/><use transform="matrix(0.03765432098765428,0,0,0.03765432098765428,25.56728395061726,0)" xlink:href="#aZ"/><use transform="matrix(0.03765432098765428,0,0,0.03765432098765428,29.33271604938269,0)" xlink:href="#aW"/><use transform="matrix(0.03765432098765428,0,0,0.03765432098765428,36.86358024691354,0)" xlink:href="#aX"/><use transform="matrix(0.03765432098765428,0,0,0.03765432098765428,44.394444444444396,0)" xlink:href="#bb"/><use transform="matrix(0.03765432098765428,0,0,0.03765432098765428,51.92530864197526,0)" xlink:href="#bl"/><use transform="matrix(0.03765432098765428,0,0,0.03765432098765428,59.456172839506124,0)" xlink:href="#aZ"/></g><g id="t"><use transform="matrix(0.03765432098765428,0,0,0.03765432098765428,0,0)" xlink:href="#bm"/><use transform="matrix(0.03765432098765428,0,0,0.03765432098765428,8.246296296296288,0)" xlink:href="#bn"/><use transform="matrix(0.03765432098765428,0,0,0.03765432098765428,12.011728395061716,0)" xlink:href="#bo"/><use transform="matrix(0.03765432098765428,0,0,0.03765432098765428,23.270370370370348,0)" xlink:href="#bg"/><use transform="matrix(0.03765432098765428,0,0,0.03765432098765428,32.307407407407375,0)" xlink:href="#bp"/><use transform="matrix(0.03765432098765428,0,0,0.03765432098765428,41.344444444444406,0)" xlink:href="#bm"/><use transform="matrix(0.03765432098765428,0,0,0.03765432098765428,48.574074074074026,0)" xlink:href="#bh"/><use transform="matrix(0.03765432098765428,0,0,0.03765432098765428,57.611111111111065,0)" xlink:href="#bo"/><use transform="matrix(0.03765432098765428,0,0,0.03765432098765428,68.86975308641969,0)" xlink:href="#bq"/><use transform="matrix(0.03765432098765428,0,0,0.03765432098765428,77.90679012345672,0)" xlink:href="#bm"/><use transform="matrix(0.03765432098765428,0,0,0.03765432098765428,86.15308641975301,0)" xlink:href="#br"/><use transform="matrix(0.03765432098765428,0,0,0.03765432098765428,94.3993827160493,0)" xlink:href="#bs"/></g><use transform="matrix(0.03765432098765428,0,0,0.03765432098765428,0,0)" xlink:href="#bi" id="u"/><path d="M63-220v92h138v28H63V0H30v-248h175v28H63" id="bt"/><path d="M194 0L95-120 63-95V0H30v-248h33v124l119-124h40L117-140 236 0h-42" id="bu"/><g id="v"><use transform="matrix(0.03703703703703704,0,0,0.03703703703703704,0,0)" xlink:href="#bt"/><use transform="matrix(0.03703703703703704,0,0,0.03703703703703704,8.111111111111112,0)" xlink:href="#bu"/></g><path d="M115-194c53 0 69 39 70 98 0 66-23 100-70 100C84 3 66-7 56-30L54 0H23l1-261h32v101c10-23 28-34 59-34zm-8 174c40 0 45-34 45-75 0-40-5-75-45-74-42 0-51 32-51 76 0 43 10 73 51 73" id="bv"/><path d="M179-190L93 31C79 59 56 82 12 73V49c39 6 53-20 64-50L1-190h34L92-34l54-156h33" id="bw"/><g id="w"><use transform="matrix(0.03703703703703704,0,0,0.03703703703703704,0,0)" xlink:href="#bj"/><use transform="matrix(0.03703703703703704,0,0,0.03703703703703704,6.666666666666668,0)" xlink:href="#bk"/><use transform="matrix(0.03703703703703704,0,0,0.03703703703703704,11.074074074074076,0)" xlink:href="#aW"/><use transform="matrix(0.03703703703703704,0,0,0.03703703703703704,18.481481481481485,0)" xlink:href="#bl"/><use transform="matrix(0.03703703703703704,0,0,0.03703703703703704,25.888888888888893,0)" xlink:href="#aZ"/><use transform="matrix(0.03703703703703704,0,0,0.03703703703703704,29.592592592592595,0)" xlink:href="#aW"/><use transform="matrix(0.03703703703703704,0,0,0.03703703703703704,37,0)" xlink:href="#aX"/><use transform="matrix(0.03703703703703704,0,0,0.03703703703703704,44.407407407407405,0)" xlink:href="#bb"/><use transform="matrix(0.03703703703703704,0,0,0.03703703703703704,51.81481481481482,0)" xlink:href="#bv"/><use transform="matrix(0.03703703703703704,0,0,0.03703703703703704,59.222222222222214,0)" xlink:href="#bw"/></g><path d="M143 4C61 4 22-44 18-125c-5-107 100-154 193-111 17 8 29 25 37 43l-32 9c-13-25-37-40-76-40-61 0-88 39-88 99 0 61 29 100 91 101 35 0 62-11 79-27v-45h-74v-28h105v86C228-13 192 4 143 4" id="bx"/><path d="M233-177c-1 41-23 64-60 70L243 0h-38l-65-103H63V0H30v-248c88 3 205-21 203 71zM63-129c60-2 137 13 137-47 0-61-80-42-137-45v92" id="by"/><g id="x"><use transform="matrix(0.03703703703703704,0,0,0.03703703703703704,0,0)" xlink:href="#bn"/><use transform="matrix(0.03703703703703704,0,0,0.03703703703703704,3.703703703703704,0)" xlink:href="#bi"/><use transform="matrix(0.03703703703703704,0,0,0.03703703703703704,13.296296296296298,0)" xlink:href="#bm"/><use transform="matrix(0.03703703703703704,0,0,0.03703703703703704,21.407407407407412,0)" xlink:href="#bg"/><use transform="matrix(0.03703703703703704,0,0,0.03703703703703704,30.2962962962963,0)" xlink:href="#bx"/><use transform="matrix(0.03703703703703704,0,0,0.03703703703703704,40.66666666666667,0)" xlink:href="#bg"/><use transform="matrix(0.03703703703703704,0,0,0.03703703703703704,49.55555555555556,0)" xlink:href="#by"/></g><g id="y"><use transform="matrix(0.03765432098765432,0,0,0.03765432098765432,0,0)" xlink:href="#bt"/><use transform="matrix(0.03765432098765432,0,0,0.03765432098765432,8.246296296296295,0)" xlink:href="#bu"/></g><g id="z"><use transform="matrix(0.03765432098765432,0,0,0.03765432098765432,0,0)" xlink:href="#aW"/><use transform="matrix(0.03765432098765432,0,0,0.03765432098765432,7.530864197530864,0)" xlink:href="#aX"/><use transform="matrix(0.03765432098765432,0,0,0.03765432098765432,15.061728395061728,0)" xlink:href="#aY"/><use transform="matrix(0.03765432098765432,0,0,0.03765432098765432,18.03641975308642,0)" xlink:href="#aZ"/><use transform="matrix(0.03765432098765432,0,0,0.03765432098765432,21.80185185185185,0)" xlink:href="#aW"/><use transform="matrix(0.03765432098765432,0,0,0.03765432098765432,29.332716049382714,0)" xlink:href="#aX"/><use transform="matrix(0.03765432098765432,0,0,0.03765432098765432,36.86358024691358,0)" xlink:href="#bb"/><use transform="matrix(0.03765432098765432,0,0,0.03765432098765432,44.394444444444446,0)" xlink:href="#bv"/><use transform="matrix(0.03765432098765432,0,0,0.03765432098765432,51.925308641975306,0)" xlink:href="#bw"/></g><g id="A"><use transform="matrix(0.03765432098765432,0,0,0.03765432098765432,0,0)" xlink:href="#bn"/><use transform="matrix(0.03765432098765432,0,0,0.03765432098765432,3.765432098765432,0)" xlink:href="#bi"/><use transform="matrix(0.03765432098765432,0,0,0.03765432098765432,13.5179012345679,0)" xlink:href="#bm"/><use transform="matrix(0.03765432098765432,0,0,0.03765432098765432,21.764197530864195,0)" xlink:href="#bg"/><use transform="matrix(0.03765432098765432,0,0,0.03765432098765432,30.801234567901233,0)" xlink:href="#bx"/><use transform="matrix(0.03765432098765432,0,0,0.03765432098765432,41.34444444444444,0)" xlink:href="#bg"/><use transform="matrix(0.03765432098765432,0,0,0.03765432098765432,50.38148148148148,0)" xlink:href="#by"/><use transform="matrix(0.03765432098765432,0,0,0.03765432098765432,60.13395061728394,0)" xlink:href="#bs"/></g><use transform="matrix(0.03765432098765432,0,0,0.03765432098765432,0,0)" xlink:href="#bi" id="B"/><g id="C"><use transform="matrix(0.03765432098765432,0,0,0.03765432098765432,0,0)" xlink:href="#aX"/><use transform="matrix(0.03765432098765432,0,0,0.03765432098765432,7.530864197530864,0)" xlink:href="#aW"/><use transform="matrix(0.03765432098765432,0,0,0.03765432098765432,15.061728395061728,0)" xlink:href="#bc"/><use transform="matrix(0.03765432098765432,0,0,0.03765432098765432,18.03641975308642,0)" xlink:href="#aW"/><use transform="matrix(0.03765432098765432,0,0,0.03765432098765432,25.567283950617284,0)" xlink:href="#aZ"/><use transform="matrix(0.03765432098765432,0,0,0.03765432098765432,29.332716049382718,0)" xlink:href="#aW"/><use transform="matrix(0.03765432098765432,0,0,0.03765432098765432,36.863580246913585,0)" xlink:href="#aX"/><use transform="matrix(0.03765432098765432,0,0,0.03765432098765432,44.394444444444446,0)" xlink:href="#bb"/><use transform="matrix(0.03765432098765432,0,0,0.03765432098765432,51.925308641975306,0)" xlink:href="#bv"/><use transform="matrix(0.03765432098765432,0,0,0.03765432098765432,59.456172839506166,0)" xlink:href="#bw"/></g><path d="M100-194c62-1 85 37 85 99 1 63-27 99-86 99S16-35 15-95c0-66 28-99 85-99zM99-20c44 1 53-31 53-75 0-43-8-75-51-75s-53 32-53 75 10 74 51 75" id="bz"/><path d="M117-194c89-4 53 116 60 194h-32v-121c0-31-8-49-39-48C34-167 62-67 57 0H25l-1-190h30c1 10-1 24 2 32 11-22 29-35 61-36" id="bA"/><g id="D"><use transform="matrix(0.03765432098765428,0,0,0.03765432098765428,0,0)" xlink:href="#bl"/><use transform="matrix(0.03765432098765428,0,0,0.03765432098765428,7.530864197530857,0)" xlink:href="#aX"/><use transform="matrix(0.03765432098765428,0,0,0.03765432098765428,15.061728395061714,0)" xlink:href="#aX"/><use transform="matrix(0.03765432098765428,0,0,0.03765432098765428,22.59259259259257,0)" xlink:href="#aY"/><use transform="matrix(0.03765432098765428,0,0,0.03765432098765428,25.56728395061726,0)" xlink:href="#aZ"/><use transform="matrix(0.03765432098765428,0,0,0.03765432098765428,29.33271604938269,0)" xlink:href="#aY"/><use transform="matrix(0.03765432098765428,0,0,0.03765432098765428,32.307407407407375,0)" xlink:href="#bz"/><use transform="matrix(0.03765432098765428,0,0,0.03765432098765428,39.83827160493823,0)" xlink:href="#bA"/><use transform="matrix(0.03765432098765428,0,0,0.03765432098765428,47.36913580246909,0)" xlink:href="#bl"/><use transform="matrix(0.03765432098765428,0,0,0.03765432098765428,54.899999999999956,0)" xlink:href="#bc"/><use transform="matrix(0.03765432098765428,0,0,0.03765432098765428,57.874691358024634,0)" xlink:href="#bb"/><use transform="matrix(0.03765432098765428,0,0,0.03765432098765428,65.4055555555555,0)" xlink:href="#bA"/><use transform="matrix(0.03765432098765428,0,0,0.03765432098765428,72.93641975308635,0)" xlink:href="#bz"/><use transform="matrix(0.03765432098765428,0,0,0.03765432098765428,80.46728395061722,0)" xlink:href="#aZ"/><use transform="matrix(0.03765432098765428,0,0,0.03765432098765428,84.23271604938265,0)" xlink:href="#aW"/><use transform="matrix(0.03765432098765428,0,0,0.03765432098765428,91.7635802469135,0)" xlink:href="#ba"/></g><path d="M195 0l-74-108L45 0H8l94-129-87-119h37l69 98 67-98h37l-84 118L233 0h-38" id="bB"/><g id="E"><use transform="matrix(0.03765432098765428,0,0,0.03765432098765428,0,0)" xlink:href="#bf"/><use transform="matrix(0.03765432098765428,0,0,0.03765432098765428,7.530864197530857,0)" xlink:href="#be"/><use transform="matrix(0.03765432098765428,0,0,0.03765432098765428,18.074074074074055,0)" xlink:href="#bi"/><use transform="matrix(0.03765432098765428,0,0,0.03765432098765428,27.82654320987651,0)" xlink:href="#bx"/><use transform="matrix(0.03765432098765428,0,0,0.03765432098765428,38.36975308641971,0)" xlink:href="#bb"/><use transform="matrix(0.03765432098765428,0,0,0.03765432098765428,45.900617283950574,0)" xlink:href="#bm"/><use transform="matrix(0.03765432098765428,0,0,0.03765432098765428,54.14691358024685,0)" xlink:href="#bg"/><use transform="matrix(0.03765432098765428,0,0,0.03765432098765428,63.183950617283884,0)" xlink:href="#bB"/><use transform="matrix(0.03765432098765428,0,0,0.03765432098765428,72.22098765432091,0)" xlink:href="#bm"/><use transform="matrix(0.03765432098765428,0,0,0.03765432098765428,78.96111111111104,0)" xlink:href="#bs"/></g><path fill="#333" d="M85 4C-2 5 27-109 22-190h50c7 57-23 150 33 157 60-5 35-97 40-157h50l1 190h-47c-2-12 1-28-3-38-12 25-28 42-61 42" id="bC"/><path fill="#333" d="M137-138c1-29-70-34-71-4 15 46 118 7 119 86 1 83-164 76-172 9l43-7c4 19 20 25 44 25 33 8 57-30 24-41C81-84 22-81 20-136c-2-80 154-74 161-7" id="bD"/><path fill="#333" d="M135-150c-39-12-60 13-60 57V0H25l-1-190h47c2 13-1 29 3 40 6-28 27-53 61-41v41" id="bE"/><g id="F"><use transform="matrix(0.037037037037037,0,0,0.037037037037037,0,0)" xlink:href="#bC"/><use transform="matrix(0.037037037037037,0,0,0.037037037037037,8.111111111111104,0)" xlink:href="#bD"/><use transform="matrix(0.037037037037037,0,0,0.037037037037037,15.518518518518505,0)" xlink:href="#ap"/><use transform="matrix(0.037037037037037,0,0,0.037037037037037,22.925925925925906,0)" xlink:href="#bE"/><use transform="matrix(0.037037037037037,0,0,0.037037037037037,28.111111111111086,0)" xlink:href="#bD"/></g><path fill="#333" d="M84 4C-5 8 30-112 23-190h32v120c0 31 7 50 39 49 72-2 45-101 50-169h31l1 190h-30c-1-10 1-25-2-33-11 22-28 36-60 37" id="bF"/><path fill="#333" d="M114-163C36-179 61-72 57 0H25l-1-190h30c1 12-1 29 2 39 6-27 23-49 58-41v29" id="bG"/><g id="G"><use transform="matrix(0.037037037037037,0,0,0.037037037037037,0,0)" xlink:href="#bF"/><use transform="matrix(0.037037037037037,0,0,0.037037037037037,7.4074074074074,0)" xlink:href="#aR"/><use transform="matrix(0.037037037037037,0,0,0.037037037037037,14.07407407407406,0)" xlink:href="#aG"/><use transform="matrix(0.037037037037037,0,0,0.037037037037037,21.48148148148146,0)" xlink:href="#bG"/><use transform="matrix(0.037037037037037,0,0,0.037037037037037,25.888888888888864,0)" xlink:href="#aQ"/><use transform="matrix(0.037037037037037,0,0,0.037037037037037,33.29629629629626,0)" xlink:href="#aI"/><use transform="matrix(0.037037037037037,0,0,0.037037037037037,40.70370370370367,0)" xlink:href="#aF"/><use transform="matrix(0.037037037037037,0,0,0.037037037037037,51.777777777777715,0)" xlink:href="#aG"/></g><g id="H"><use transform="matrix(0.037037037037037,0,0,0.037037037037037,0,0)" xlink:href="#aN"/><use transform="matrix(0.037037037037037,0,0,0.037037037037037,9.592592592592583,0)" xlink:href="#aU"/><use transform="matrix(0.037037037037037,0,0,0.037037037037037,18.481481481481463,0)" xlink:href="#az"/><use transform="matrix(0.037037037037037,0,0,0.037037037037037,27.37037037037035,0)" xlink:href="#aB"/><use transform="matrix(0.037037037037037,0,0,0.037037037037037,36.962962962962926,0)" xlink:href="#ax"/><use transform="matrix(0.037037037037037,0,0,0.037037037037037,46.55555555555551,0)" xlink:href="#aM"/><use transform="matrix(0.037037037037037,0,0,0.037037037037037,55.444444444444386,0)" xlink:href="#aL"/><use transform="matrix(0.037037037037037,0,0,0.037037037037037,66.51851851851845,0)" xlink:href="#az"/><use transform="matrix(0.037037037037037,0,0,0.037037037037037,75.40740740740733,0)" xlink:href="#aC"/></g><path fill="#333" d="M24 0v-261h32V0H24" id="bH"/><g id="I"><use transform="matrix(0.037037037037037,0,0,0.037037037037037,0,0)" xlink:href="#aG"/><use transform="matrix(0.037037037037037,0,0,0.037037037037037,7.4074074074074,0)" xlink:href="#aF"/><use transform="matrix(0.037037037037037,0,0,0.037037037037037,18.481481481481463,0)" xlink:href="#aI"/><use transform="matrix(0.037037037037037,0,0,0.037037037037037,25.888888888888864,0)" xlink:href="#au"/><use transform="matrix(0.037037037037037,0,0,0.037037037037037,28.814814814814785,0)" xlink:href="#bH"/><use transform="matrix(0.037037037037037,0,0,0.037037037037037,31.740740740740712,0)" xlink:href="#aS"/><use transform="matrix(0.037037037037037,0,0,0.037037037037037,39.14814814814811,0)" xlink:href="#aI"/><use transform="matrix(0.037037037037037,0,0,0.037037037037037,46.55555555555551,0)" xlink:href="#av"/><use transform="matrix(0.037037037037037,0,0,0.037037037037037,53.9629629629629,0)" xlink:href="#av"/><use transform="matrix(0.037037037037037,0,0,0.037037037037037,61.3703703703703,0)" xlink:href="#bG"/><use transform="matrix(0.037037037037037,0,0,0.037037037037037,65.7777777777777,0)" xlink:href="#aG"/><use transform="matrix(0.037037037037037,0,0,0.037037037037037,73.1851851851851,0)" xlink:href="#aR"/><use transform="matrix(0.037037037037037,0,0,0.037037037037037,79.85185185185176,0)" xlink:href="#aR"/></g><path fill="#333" d="M30 0v-248h33v221h125V0H30" id="bI"/><g id="J"><use transform="matrix(0.037037037037037,0,0,0.037037037037037,0,0)" xlink:href="#az"/><use transform="matrix(0.037037037037037,0,0,0.037037037037037,8.88888888888888,0)" xlink:href="#aL"/><use transform="matrix(0.037037037037037,0,0,0.037037037037037,19.962962962962944,0)" xlink:href="#aM"/><use transform="matrix(0.037037037037037,0,0,0.037037037037037,28.851851851851826,0)" xlink:href="#aw"/><use transform="matrix(0.037037037037037,0,0,0.037037037037037,32.55555555555553,0)" xlink:href="#bI"/><use transform="matrix(0.037037037037037,0,0,0.037037037037037,39.962962962962926,0)" xlink:href="#aS"/><use transform="matrix(0.037037037037037,0,0,0.037037037037037,47.370370370370324,0)" xlink:href="#aM"/><use transform="matrix(0.037037037037037,0,0,0.037037037037037,56.2592592592592,0)" xlink:href="#aD"/><use transform="matrix(0.037037037037037,0,0,0.037037037037037,65.85185185185179,0)" xlink:href="#aD"/><use transform="matrix(0.037037037037037,0,0,0.037037037037037,75.44444444444437,0)" xlink:href="#aB"/><use transform="matrix(0.037037037037037,0,0,0.037037037037037,85.03703703703695,0)" xlink:href="#az"/><use transform="matrix(0.037037037037037,0,0,0.037037037037037,93.92592592592584,0)" xlink:href="#aU"/><use transform="matrix(0.037037037037037,0,0,0.037037037037037,102.81481481481472,0)" xlink:href="#aU"/></g><path d="M101-234c-31-9-42 10-38 44h38v23H63V0H32v-167H5v-23h27c-7-52 17-82 69-68v24" id="bJ"/><path d="M210-169c-67 3-38 105-44 169h-31v-121c0-29-5-50-35-48C34-165 62-65 56 0H25l-1-190h30c1 10-1 24 2 32 10-44 99-50 107 0 11-21 27-35 58-36 85-2 47 119 55 194h-31v-121c0-29-5-49-35-48" id="bK"/><g id="K"><use transform="matrix(0.03765432098765428,0,0,0.03765432098765428,0,0)" xlink:href="#bJ"/><use transform="matrix(0.03765432098765428,0,0,0.03765432098765428,3.7654320987654284,0)" xlink:href="#aY"/><use transform="matrix(0.03765432098765428,0,0,0.03765432098765428,6.740123456790117,0)" xlink:href="#bk"/><use transform="matrix(0.03765432098765428,0,0,0.03765432098765428,11.220987654320977,0)" xlink:href="#ba"/><use transform="matrix(0.03765432098765428,0,0,0.03765432098765428,17.998765432098747,0)" xlink:href="#aZ"/><use transform="matrix(0.03765432098765428,0,0,0.03765432098765428,21.76419753086417,0)" xlink:href="#bb"/><use transform="matrix(0.03765432098765428,0,0,0.03765432098765428,29.295061728395034,0)" xlink:href="#bA"/><use transform="matrix(0.03765432098765428,0,0,0.03765432098765428,36.82592592592589,0)" xlink:href="#bl"/><use transform="matrix(0.03765432098765428,0,0,0.03765432098765428,44.35679012345675,0)" xlink:href="#bK"/><use transform="matrix(0.03765432098765428,0,0,0.03765432098765428,55.61543209876538,0)" xlink:href="#aW"/></g><g id="L"><use transform="matrix(0.03765432098765428,0,0,0.03765432098765428,0,0)" xlink:href="#bt"/><use transform="matrix(0.03765432098765428,0,0,0.03765432098765428,8.246296296296288,0)" xlink:href="#bn"/><use transform="matrix(0.03765432098765428,0,0,0.03765432098765428,12.011728395061716,0)" xlink:href="#by"/><use transform="matrix(0.03765432098765428,0,0,0.03765432098765428,21.76419753086417,0)" xlink:href="#bp"/><use transform="matrix(0.03765432098765428,0,0,0.03765432098765428,30.8012345679012,0)" xlink:href="#bm"/><use transform="matrix(0.03765432098765428,0,0,0.03765432098765428,39.04753086419749,0)" xlink:href="#bb"/><use transform="matrix(0.03765432098765428,0,0,0.03765432098765428,46.57839506172835,0)" xlink:href="#bi"/><use transform="matrix(0.03765432098765428,0,0,0.03765432098765428,56.3308641975308,0)" xlink:href="#bh"/><use transform="matrix(0.03765432098765428,0,0,0.03765432098765428,65.36790123456782,0)" xlink:href="#bo"/><use transform="matrix(0.03765432098765428,0,0,0.03765432098765428,76.62654320987646,0)" xlink:href="#bg"/></g><g id="M"><use transform="matrix(0.03765432098765428,0,0,0.03765432098765428,0,0)" xlink:href="#bc"/><use transform="matrix(0.03765432098765428,0,0,0.03765432098765428,2.9746913580246885,0)" xlink:href="#bl"/><use transform="matrix(0.03765432098765428,0,0,0.03765432098765428,10.505555555555546,0)" xlink:href="#ba"/><use transform="matrix(0.03765432098765428,0,0,0.03765432098765428,17.283333333333317,0)" xlink:href="#aZ"/><use transform="matrix(0.03765432098765428,0,0,0.03765432098765428,21.048765432098747,0)" xlink:href="#bb"/><use transform="matrix(0.03765432098765428,0,0,0.03765432098765428,28.579629629629604,0)" xlink:href="#bA"/><use transform="matrix(0.03765432098765428,0,0,0.03765432098765428,36.11049382716046,0)" xlink:href="#bl"/><use transform="matrix(0.03765432098765428,0,0,0.03765432098765428,43.641358024691314,0)" xlink:href="#bK"/><use transform="matrix(0.03765432098765428,0,0,0.03765432098765428,54.899999999999956,0)" xlink:href="#aW"/></g><g id="N"><use transform="matrix(0.03765432098765428,0,0,0.03765432098765428,0,0)" xlink:href="#bf"/><use transform="matrix(0.03765432098765428,0,0,0.03765432098765428,7.530864197530857,0)" xlink:href="#bh"/><use transform="matrix(0.03765432098765428,0,0,0.03765432098765428,16.567901234567884,0)" xlink:href="#bp"/><use transform="matrix(0.03765432098765428,0,0,0.03765432098765428,25.60493827160491,0)" xlink:href="#bm"/><use transform="matrix(0.03765432098765428,0,0,0.03765432098765428,33.8512345679012,0)" xlink:href="#bb"/><use transform="matrix(0.03765432098765428,0,0,0.03765432098765428,41.38209876543207,0)" xlink:href="#bi"/><use transform="matrix(0.03765432098765428,0,0,0.03765432098765428,51.13456790123452,0)" xlink:href="#bh"/><use transform="matrix(0.03765432098765428,0,0,0.03765432098765428,60.17160493827154,0)" xlink:href="#bo"/><use transform="matrix(0.03765432098765428,0,0,0.03765432098765428,71.43024691358018,0)" xlink:href="#bg"/></g><path d="M106-169C34-169 62-67 57 0H25v-261h32l-1 103c12-21 28-36 61-36 89 0 53 116 60 194h-32v-121c2-32-8-49-39-48" id="bL"/><g id="O"><use transform="matrix(0.03765432098765428,0,0,0.03765432098765428,0,0)" xlink:href="#bz"/><use transform="matrix(0.03765432098765428,0,0,0.03765432098765428,7.530864197530857,0)" xlink:href="#aZ"/><use transform="matrix(0.03765432098765428,0,0,0.03765432098765428,11.296296296296285,0)" xlink:href="#bL"/><use transform="matrix(0.03765432098765428,0,0,0.03765432098765428,18.827160493827144,0)" xlink:href="#aW"/><use transform="matrix(0.03765432098765428,0,0,0.03765432098765428,26.358024691358,0)" xlink:href="#bk"/><use transform="matrix(0.03765432098765428,0,0,0.03765432098765428,30.83888888888886,0)" xlink:href="#bb"/><use transform="matrix(0.03765432098765428,0,0,0.03765432098765428,38.36975308641972,0)" xlink:href="#bA"/><use transform="matrix(0.03765432098765428,0,0,0.03765432098765428,45.90061728395058,0)" xlink:href="#bl"/><use transform="matrix(0.03765432098765428,0,0,0.03765432098765428,53.43148148148144,0)" xlink:href="#bK"/><use transform="matrix(0.03765432098765428,0,0,0.03765432098765428,64.69012345679008,0)" xlink:href="#aW"/><use transform="matrix(0.03765432098765428,0,0,0.03765432098765428,72.22098765432094,0)" xlink:href="#ba"/></g><path d="M197 0v-115H63V0H30v-248h33v105h134v-105h34V0h-34" id="bM"/><g id="P"><use transform="matrix(0.03765432098765428,0,0,0.03765432098765428,0,0)" xlink:href="#be"/><use transform="matrix(0.03765432098765428,0,0,0.03765432098765428,10.5432098765432,0)" xlink:href="#bm"/><use transform="matrix(0.03765432098765428,0,0,0.03765432098765428,18.789506172839488,0)" xlink:href="#bM"/><use transform="matrix(0.03765432098765428,0,0,0.03765432098765428,28.541975308641945,0)" xlink:href="#bg"/><use transform="matrix(0.03765432098765428,0,0,0.03765432098765428,37.579012345678976,0)" xlink:href="#by"/><use transform="matrix(0.03765432098765428,0,0,0.03765432098765428,47.33148148148143,0)" xlink:href="#bb"/><use transform="matrix(0.03765432098765428,0,0,0.03765432098765428,54.86234567901229,0)" xlink:href="#bi"/><use transform="matrix(0.03765432098765428,0,0,0.03765432098765428,64.61481481481475,0)" xlink:href="#bh"/><use transform="matrix(0.03765432098765428,0,0,0.03765432098765428,73.65185185185177,0)" xlink:href="#bo"/><use transform="matrix(0.03765432098765428,0,0,0.03765432098765428,84.91049382716041,0)" xlink:href="#bg"/><use transform="matrix(0.03765432098765428,0,0,0.03765432098765428,93.94753086419743,0)" xlink:href="#bp"/><use transform="matrix(0.03765432098765428,0,0,0.03765432098765428,102.98456790123447,0)" xlink:href="#bs"/></g><path d="M115-194c55 1 70 41 70 98S169 2 115 4C84 4 66-9 55-30l1 105H24l-1-265h31l2 30c10-21 28-34 59-34zm-8 174c40 0 45-34 45-75s-6-73-45-74c-42 0-51 32-51 76 0 43 10 73 51 73" id="bN"/><path d="M206 0h-36l-40-164L89 0H53L-1-190h32L70-26l43-164h34l41 164 42-164h31" id="bO"/><g id="Q"><use transform="matrix(0.03765432098765428,0,0,0.03765432098765428,0,0)" xlink:href="#bN"/><use transform="matrix(0.03765432098765428,0,0,0.03765432098765428,7.530864197530857,0)" xlink:href="#bl"/><use transform="matrix(0.03765432098765428,0,0,0.03765432098765428,15.061728395061714,0)" xlink:href="#ba"/><use transform="matrix(0.03765432098765428,0,0,0.03765432098765428,21.839506172839485,0)" xlink:href="#ba"/><use transform="matrix(0.03765432098765428,0,0,0.03765432098765428,28.617283950617256,0)" xlink:href="#bO"/><use transform="matrix(0.03765432098765428,0,0,0.03765432098765428,38.36975308641971,0)" xlink:href="#bz"/><use transform="matrix(0.03765432098765428,0,0,0.03765432098765428,45.900617283950574,0)" xlink:href="#bk"/><use transform="matrix(0.03765432098765428,0,0,0.03765432098765428,50.38148148148143,0)" xlink:href="#aX"/></g><path d="M266 0h-40l-56-210L115 0H75L2-248h35L96-30l15-64 43-154h32l59 218 59-218h35" id="bP"/><path d="M30-248c118-7 216 8 213 122C240-48 200 0 122 0H30v-248zM63-27c89 8 146-16 146-99s-60-101-146-95v194" id="bQ"/><g id="R"><use transform="matrix(0.03765432098765428,0,0,0.03765432098765428,0,0)" xlink:href="#bq"/><use transform="matrix(0.03765432098765428,0,0,0.03765432098765428,8.020370370370362,0)" xlink:href="#bh"/><use transform="matrix(0.03765432098765428,0,0,0.03765432098765428,17.05740740740739,0)" xlink:href="#bp"/><use transform="matrix(0.03765432098765428,0,0,0.03765432098765428,26.094444444444417,0)" xlink:href="#bp"/><use transform="matrix(0.03765432098765428,0,0,0.03765432098765428,35.131481481481444,0)" xlink:href="#bP"/><use transform="matrix(0.03765432098765428,0,0,0.03765432098765428,47.89629629629624,0)" xlink:href="#be"/><use transform="matrix(0.03765432098765428,0,0,0.03765432098765428,58.439506172839444,0)" xlink:href="#by"/><use transform="matrix(0.03765432098765428,0,0,0.03765432098765428,68.1919753086419,0)" xlink:href="#bQ"/></g><g id="S"><use transform="matrix(0.03765432098765428,0,0,0.03765432098765428,0,0)" xlink:href="#bt"/><use transform="matrix(0.03765432098765428,0,0,0.03765432098765428,8.246296296296288,0)" xlink:href="#bu"/></g><g id="T"><use transform="matrix(0.03765432098765428,0,0,0.03765432098765428,0,0)" xlink:href="#bK"/><use transform="matrix(0.03765432098765428,0,0,0.03765432098765428,11.258641975308631,0)" xlink:href="#aW"/><use transform="matrix(0.03765432098765428,0,0,0.03765432098765428,18.789506172839488,0)" xlink:href="#aZ"/><use transform="matrix(0.03765432098765428,0,0,0.03765432098765428,22.554938271604918,0)" xlink:href="#bl"/><use transform="matrix(0.03765432098765428,0,0,0.03765432098765428,30.085802469135775,0)" xlink:href="#bb"/><use transform="matrix(0.03765432098765428,0,0,0.03765432098765428,37.61666666666663,0)" xlink:href="#aY"/><use transform="matrix(0.03765432098765428,0,0,0.03765432098765428,40.59135802469132,0)" xlink:href="#aX"/></g><path fill="#333" d="M25-224v-37h50v37H25zM25 0v-190h50V0H25" id="bR"/><g id="U"><use transform="matrix(0.037037037037037,0,0,0.037037037037037,0,0)" xlink:href="#bR"/><use transform="matrix(0.037037037037037,0,0,0.037037037037037,3.7037037037037,0)" xlink:href="#aq"/><use transform="matrix(0.037037037037037,0,0,0.037037037037037,8.111111111111104,0)" xlink:href="#ap"/><use transform="matrix(0.037037037037037,0,0,0.037037037037037,15.518518518518505,0)" xlink:href="#ao"/><use transform="matrix(0.037037037037037,0,0,0.037037037037037,27.37037037037035,0)" xlink:href="#bD"/></g><g id="V"><use transform="matrix(0.037037037037037,0,0,0.037037037037037,0,0)" xlink:href="#aR"/><use transform="matrix(0.037037037037037,0,0,0.037037037037037,6.66666666666666,0)" xlink:href="#aJ"/><use transform="matrix(0.037037037037037,0,0,0.037037037037037,13.33333333333332,0)" xlink:href="#bF"/></g><g id="W"><use transform="matrix(0.037037037037037,0,0,0.037037037037037,0,0)" xlink:href="#aU"/><use transform="matrix(0.037037037037037,0,0,0.037037037037037,8.88888888888888,0)" xlink:href="#at"/><use transform="matrix(0.037037037037037,0,0,0.037037037037037,17.77777777777776,0)" xlink:href="#aN"/><use transform="matrix(0.037037037037037,0,0,0.037037037037037,27.37037037037035,0)" xlink:href="#aC"/></g><path d="M84 4C-5 8 30-112 23-190h32v120c0 31 7 50 39 49 72-2 45-101 50-169h31l1 190h-30c-1-10 1-25-2-33-11 22-28 36-60 37" id="bS"/><g id="X"><use transform="matrix(0.03765432098765432,0,0,0.03765432098765432,0,0)" xlink:href="#bS"/><use transform="matrix(0.03765432098765432,0,0,0.03765432098765432,7.530864197530864,0)" xlink:href="#bN"/><use transform="matrix(0.03765432098765432,0,0,0.03765432098765432,15.061728395061728,0)" xlink:href="#bj"/></g><path d="M232-93c-1 65-40 97-104 97C67 4 28-28 28-90v-158h33c8 89-33 224 67 224 102 0 64-133 71-224h33v155" id="bT"/><path d="M212-179c-10-28-35-45-73-45-59 0-87 40-87 99 0 60 29 101 89 101 43 0 62-24 78-52l27 14C228-24 195 4 139 4 59 4 22-46 18-125c-6-104 99-153 187-111 19 9 31 26 39 46" id="bU"/><g id="Y"><use transform="matrix(0.03765432098765432,0,0,0.03765432098765432,0,0)" xlink:href="#bT"/><use transform="matrix(0.03765432098765432,0,0,0.03765432098765432,9.752469135802468,0)" xlink:href="#bq"/><use transform="matrix(0.03765432098765432,0,0,0.03765432098765432,18.789506172839502,0)" xlink:href="#bU"/><use transform="matrix(0.03765432098765432,0,0,0.03765432098765432,28.54197530864197,0)" xlink:href="#bs"/></g><use transform="matrix(0.03765432098765432,0,0,0.03765432098765432,0,0)" xlink:href="#bT" id="Z"/><g id="aa"><use transform="matrix(0.03765432098765428,0,0,0.03765432098765428,0,0)" xlink:href="#bA"/><use transform="matrix(0.03765432098765428,0,0,0.03765432098765428,7.530864197530857,0)" xlink:href="#bl"/><use transform="matrix(0.03765432098765428,0,0,0.03765432098765428,15.061728395061714,0)" xlink:href="#bK"/><use transform="matrix(0.03765432098765428,0,0,0.03765432098765428,26.320370370370345,0)" xlink:href="#aW"/></g><g id="ab"><use transform="matrix(0.03765432098765428,0,0,0.03765432098765428,0,0)" xlink:href="#bi"/><use transform="matrix(0.03765432098765428,0,0,0.03765432098765428,9.752469135802459,0)" xlink:href="#bh"/><use transform="matrix(0.03765432098765428,0,0,0.03765432098765428,18.789506172839488,0)" xlink:href="#bo"/><use transform="matrix(0.03765432098765428,0,0,0.03765432098765428,30.04814814814812,0)" xlink:href="#bg"/></g><g id="ac"><use transform="matrix(0.03765432098765428,0,0,0.03765432098765428,0,0)" xlink:href="#aX"/><use transform="matrix(0.03765432098765428,0,0,0.03765432098765428,7.530864197530857,0)" xlink:href="#aW"/><use transform="matrix(0.03765432098765428,0,0,0.03765432098765428,15.061728395061714,0)" xlink:href="#ba"/><use transform="matrix(0.03765432098765428,0,0,0.03765432098765428,21.839506172839485,0)" xlink:href="#bj"/><use transform="matrix(0.03765432098765428,0,0,0.03765432098765428,28.617283950617256,0)" xlink:href="#bk"/><use transform="matrix(0.03765432098765428,0,0,0.03765432098765428,33.09814814814811,0)" xlink:href="#aY"/><use transform="matrix(0.03765432098765428,0,0,0.03765432098765428,36.0728395061728,0)" xlink:href="#bN"/><use transform="matrix(0.03765432098765428,0,0,0.03765432098765428,43.60370370370366,0)" xlink:href="#aZ"/><use transform="matrix(0.03765432098765428,0,0,0.03765432098765428,47.36913580246909,0)" xlink:href="#aY"/><use transform="matrix(0.03765432098765428,0,0,0.03765432098765428,50.343827160493774,0)" xlink:href="#bz"/><use transform="matrix(0.03765432098765428,0,0,0.03765432098765428,57.874691358024634,0)" xlink:href="#bA"/></g><path d="M145-31C134-9 116 4 85 4 32 4 16-35 15-94c0-59 17-99 70-100 32-1 48 14 60 33 0-11-1-24 2-32h30l-1 268h-32zM93-21c41 0 51-33 51-76s-8-73-50-73c-40 0-46 35-46 75s5 74 45 74" id="bV"/><g id="ad"><use transform="matrix(0.03765432098765432,0,0,0.03765432098765432,0,0)" xlink:href="#bl"/><use transform="matrix(0.03765432098765432,0,0,0.03765432098765432,7.530864197530864,0)" xlink:href="#bj"/><use transform="matrix(0.03765432098765432,0,0,0.03765432098765432,14.30864197530864,0)" xlink:href="#bV"/><use transform="matrix(0.03765432098765432,0,0,0.03765432098765432,21.83950617283951,0)" xlink:href="#bS"/><use transform="matrix(0.03765432098765432,0,0,0.03765432098765432,29.37037037037037,0)" xlink:href="#aY"/><use transform="matrix(0.03765432098765432,0,0,0.03765432098765432,32.34506172839506,0)" xlink:href="#ba"/><use transform="matrix(0.03765432098765432,0,0,0.03765432098765432,39.12283950617284,0)" xlink:href="#aY"/><use transform="matrix(0.03765432098765432,0,0,0.03765432098765432,42.09753086419753,0)" xlink:href="#aZ"/><use transform="matrix(0.03765432098765432,0,0,0.03765432098765432,45.86296296296296,0)" xlink:href="#aY"/><use transform="matrix(0.03765432098765432,0,0,0.03765432098765432,48.83765432098765,0)" xlink:href="#bz"/><use transform="matrix(0.03765432098765432,0,0,0.03765432098765432,56.36851851851851,0)" xlink:href="#bA"/><use transform="matrix(0.03765432098765432,0,0,0.03765432098765432,63.899382716049374,0)" xlink:href="#bb"/><use transform="matrix(0.03765432098765432,0,0,0.03765432098765432,71.43024691358023,0)" xlink:href="#aX"/><use transform="matrix(0.03765432098765432,0,0,0.03765432098765432,78.96111111111108,0)" xlink:href="#bl"/><use transform="matrix(0.03765432098765432,0,0,0.03765432098765432,86.49197530864195,0)" xlink:href="#aZ"/><use transform="matrix(0.03765432098765432,0,0,0.03765432098765432,90.25740740740738,0)" xlink:href="#aW"/></g><g id="ae"><use transform="matrix(0.03765432098765432,0,0,0.03765432098765432,0,0)" xlink:href="#bQ"/><use transform="matrix(0.03765432098765432,0,0,0.03765432098765432,9.752469135802468,0)" xlink:href="#bh"/><use transform="matrix(0.03765432098765432,0,0,0.03765432098765432,17.772839506172836,0)" xlink:href="#bm"/><use transform="matrix(0.03765432098765432,0,0,0.03765432098765432,26.01913580246913,0)" xlink:href="#bg"/></g><path d="M141 0L90-78 38 0H4l68-98-65-92h35l48 74 47-74h35l-64 92 68 98h-35" id="bW"/><g id="af"><use transform="matrix(0.03765432098765432,0,0,0.03765432098765432,0,0)" xlink:href="#aW"/><use transform="matrix(0.03765432098765432,0,0,0.03765432098765432,7.530864197530864,0)" xlink:href="#bW"/><use transform="matrix(0.03765432098765432,0,0,0.03765432098765432,14.30864197530864,0)" xlink:href="#bN"/><use transform="matrix(0.03765432098765432,0,0,0.03765432098765432,21.83950617283951,0)" xlink:href="#aY"/><use transform="matrix(0.03765432098765432,0,0,0.03765432098765432,24.8141975308642,0)" xlink:href="#bk"/><use transform="matrix(0.03765432098765432,0,0,0.03765432098765432,29.295061728395062,0)" xlink:href="#bl"/><use transform="matrix(0.03765432098765432,0,0,0.03765432098765432,36.82592592592593,0)" xlink:href="#aZ"/><use transform="matrix(0.03765432098765432,0,0,0.03765432098765432,40.59135802469136,0)" xlink:href="#aY"/><use transform="matrix(0.03765432098765432,0,0,0.03765432098765432,43.56604938271605,0)" xlink:href="#bz"/><use transform="matrix(0.03765432098765432,0,0,0.03765432098765432,51.09691358024692,0)" xlink:href="#bA"/><use transform="matrix(0.03765432098765432,0,0,0.03765432098765432,58.62777777777778,0)" xlink:href="#bb"/><use transform="matrix(0.03765432098765432,0,0,0.03765432098765432,66.15864197530864,0)" xlink:href="#aX"/><use transform="matrix(0.03765432098765432,0,0,0.03765432098765432,73.6895061728395,0)" xlink:href="#bl"/><use transform="matrix(0.03765432098765432,0,0,0.03765432098765432,81.22037037037036,0)" xlink:href="#aZ"/><use transform="matrix(0.03765432098765432,0,0,0.03765432098765432,84.98580246913579,0)" xlink:href="#aW"/></g><g id="ag"><use transform="matrix(0.03765432098765432,0,0,0.03765432098765432,0,0)" xlink:href="#bQ"/><use transform="matrix(0.03765432098765432,0,0,0.03765432098765432,9.752469135802468,0)" xlink:href="#bh"/><use transform="matrix(0.03765432098765432,0,0,0.03765432098765432,17.772839506172836,0)" xlink:href="#bm"/><use transform="matrix(0.03765432098765432,0,0,0.03765432098765432,26.01913580246913,0)" xlink:href="#bg"/><use transform="matrix(0.03765432098765432,0,0,0.03765432098765432,35.05617283950617,0)" xlink:href="#bs"/></g><g id="ah"><use transform="matrix(0.03765432098765432,0,0,0.03765432098765432,0,0)" xlink:href="#bS"/><use transform="matrix(0.03765432098765432,0,0,0.03765432098765432,7.530864197530864,0)" xlink:href="#bA"/><use transform="matrix(0.03765432098765432,0,0,0.03765432098765432,15.061728395061728,0)" xlink:href="#aY"/><use transform="matrix(0.03765432098765432,0,0,0.03765432098765432,18.03641975308642,0)" xlink:href="#aZ"/><use transform="matrix(0.03765432098765432,0,0,0.03765432098765432,21.80185185185185,0)" xlink:href="#bb"/><use transform="matrix(0.03765432098765432,0,0,0.03765432098765432,29.332716049382714,0)" xlink:href="#bj"/><use transform="matrix(0.03765432098765432,0,0,0.03765432098765432,36.11049382716049,0)" xlink:href="#bz"/><use transform="matrix(0.03765432098765432,0,0,0.03765432098765432,43.64135802469136,0)" xlink:href="#ba"/><use transform="matrix(0.03765432098765432,0,0,0.03765432098765432,50.41913580246913,0)" xlink:href="#aZ"/></g><path d="M137-103V0h-34v-103L8-248h37l75 118 75-118h37" id="bX"/><g id="ai"><use transform="matrix(0.03765432098765432,0,0,0.03765432098765432,0,0)" xlink:href="#bU"/><use transform="matrix(0.03765432098765432,0,0,0.03765432098765432,9.752469135802468,0)" xlink:href="#bT"/><use transform="matrix(0.03765432098765432,0,0,0.03765432098765432,19.504938271604935,0)" xlink:href="#by"/><use transform="matrix(0.03765432098765432,0,0,0.03765432098765432,29.257407407407406,0)" xlink:href="#by"/><use transform="matrix(0.03765432098765432,0,0,0.03765432098765432,39.00987654320987,0)" xlink:href="#bg"/><use transform="matrix(0.03765432098765432,0,0,0.03765432098765432,48.04691358024691,0)" xlink:href="#bi"/><use transform="matrix(0.03765432098765432,0,0,0.03765432098765432,57.79938271604938,0)" xlink:href="#bU"/><use transform="matrix(0.03765432098765432,0,0,0.03765432098765432,67.55185185185185,0)" xlink:href="#bX"/></g><g id="aj"><use transform="matrix(0.03765432098765432,0,0,0.03765432098765432,0,0)" xlink:href="#bS"/><use transform="matrix(0.03765432098765432,0,0,0.03765432098765432,7.530864197530864,0)" xlink:href="#bA"/><use transform="matrix(0.03765432098765432,0,0,0.03765432098765432,15.061728395061728,0)" xlink:href="#aY"/><use transform="matrix(0.03765432098765432,0,0,0.03765432098765432,18.03641975308642,0)" xlink:href="#aZ"/><use transform="matrix(0.03765432098765432,0,0,0.03765432098765432,21.80185185185185,0)" xlink:href="#bb"/><use transform="matrix(0.03765432098765432,0,0,0.03765432098765432,29.332716049382714,0)" xlink:href="#bN"/><use transform="matrix(0.03765432098765432,0,0,0.03765432098765432,36.86358024691358,0)" xlink:href="#bk"/><use transform="matrix(0.03765432098765432,0,0,0.03765432098765432,41.34444444444444,0)" xlink:href="#aY"/><use transform="matrix(0.03765432098765432,0,0,0.03765432098765432,44.319135802469134,0)" xlink:href="#bj"/><use transform="matrix(0.03765432098765432,0,0,0.03765432098765432,51.096913580246905,0)" xlink:href="#aW"/></g><g id="ak"><use transform="matrix(0.03765432098765432,0,0,0.03765432098765432,0,0)" xlink:href="#bU"/><use transform="matrix(0.03765432098765432,0,0,0.03765432098765432,9.752469135802468,0)" xlink:href="#bT"/><use transform="matrix(0.03765432098765432,0,0,0.03765432098765432,19.504938271604935,0)" xlink:href="#by"/><use transform="matrix(0.03765432098765432,0,0,0.03765432098765432,29.257407407407406,0)" xlink:href="#by"/><use transform="matrix(0.03765432098765432,0,0,0.03765432098765432,39.00987654320987,0)" xlink:href="#bg"/><use transform="matrix(0.03765432098765432,0,0,0.03765432098765432,48.04691358024691,0)" xlink:href="#bi"/><use transform="matrix(0.03765432098765432,0,0,0.03765432098765432,57.79938271604938,0)" xlink:href="#bU"/><use transform="matrix(0.03765432098765432,0,0,0.03765432098765432,67.55185185185185,0)" xlink:href="#bX"/><use transform="matrix(0.03765432098765432,0,0,0.03765432098765432,74.85679012345679,0)" xlink:href="#bs"/></g><path d="M108 0H70L1-190h34L89-25l56-165h34" id="bY"/><g id="al"><use transform="matrix(0.03765432098765432,0,0,0.03765432098765432,0,0)" xlink:href="#bV"/><use transform="matrix(0.03765432098765432,0,0,0.03765432098765432,7.530864197530864,0)" xlink:href="#bS"/><use transform="matrix(0.03765432098765432,0,0,0.03765432098765432,15.061728395061728,0)" xlink:href="#bl"/><use transform="matrix(0.03765432098765432,0,0,0.03765432098765432,22.59259259259259,0)" xlink:href="#bA"/><use transform="matrix(0.03765432098765432,0,0,0.03765432098765432,30.123456790123456,0)" xlink:href="#aZ"/><use transform="matrix(0.03765432098765432,0,0,0.03765432098765432,33.888888888888886,0)" xlink:href="#aY"/><use transform="matrix(0.03765432098765432,0,0,0.03765432098765432,36.86358024691358,0)" xlink:href="#aZ"/><use transform="matrix(0.03765432098765432,0,0,0.03765432098765432,40.62901234567901,0)" xlink:href="#bw"/><use transform="matrix(0.03765432098765432,0,0,0.03765432098765432,47.40679012345679,0)" xlink:href="#bb"/><use transform="matrix(0.03765432098765432,0,0,0.03765432098765432,54.93765432098765,0)" xlink:href="#bl"/><use transform="matrix(0.03765432098765432,0,0,0.03765432098765432,62.46851851851851,0)" xlink:href="#bY"/><use transform="matrix(0.03765432098765432,0,0,0.03765432098765432,69.24629629629628,0)" xlink:href="#bl"/><use transform="matrix(0.03765432098765432,0,0,0.03765432098765432,76.77716049382714,0)" xlink:href="#aY"/><use transform="matrix(0.03765432098765432,0,0,0.03765432098765432,79.75185185185182,0)" xlink:href="#bc"/><use transform="matrix(0.03765432098765432,0,0,0.03765432098765432,82.72654320987652,0)" xlink:href="#bl"/><use transform="matrix(0.03765432098765432,0,0,0.03765432098765432,90.25740740740737,0)" xlink:href="#bv"/><use transform="matrix(0.03765432098765432,0,0,0.03765432098765432,97.78827160493823,0)" xlink:href="#bc"/><use transform="matrix(0.03765432098765432,0,0,0.03765432098765432,100.76296296296292,0)" xlink:href="#aW"/></g><path d="M137 0h-34L2-248h35l83 218 83-218h36" id="bZ"/><g id="am"><use transform="matrix(0.03765432098765432,0,0,0.03765432098765432,0,0)" xlink:href="#bn"/><use transform="matrix(0.03765432098765432,0,0,0.03765432098765432,3.765432098765432,0)" xlink:href="#bi"/><use transform="matrix(0.03765432098765432,0,0,0.03765432098765432,13.5179012345679,0)" xlink:href="#bm"/><use transform="matrix(0.03765432098765432,0,0,0.03765432098765432,21.764197530864195,0)" xlink:href="#bb"/><use transform="matrix(0.03765432098765432,0,0,0.03765432098765432,29.29506172839506,0)" xlink:href="#bq"/><use transform="matrix(0.03765432098765432,0,0,0.03765432098765432,38.33209876543209,0)" xlink:href="#be"/><use transform="matrix(0.03765432098765432,0,0,0.03765432098765432,48.8753086419753,0)" xlink:href="#bp"/><use transform="matrix(0.03765432098765432,0,0,0.03765432098765432,57.91234567901234,0)" xlink:href="#bn"/><use transform="matrix(0.03765432098765432,0,0,0.03765432098765432,61.67777777777777,0)" xlink:href="#bm"/><use transform="matrix(0.03765432098765432,0,0,0.03765432098765432,69.92407407407407,0)" xlink:href="#bn"/><use transform="matrix(0.03765432098765432,0,0,0.03765432098765432,73.6895061728395,0)" xlink:href="#bZ"/><use transform="matrix(0.03765432098765432,0,0,0.03765432098765432,82.72654320987654,0)" xlink:href="#bg"/></g><g id="an"><use transform="matrix(0.03765432098765432,0,0,0.03765432098765432,0,0)" xlink:href="#bV"/><use transform="matrix(0.03765432098765432,0,0,0.03765432098765432,7.530864197530864,0)" xlink:href="#bS"/><use transform="matrix(0.03765432098765432,0,0,0.03765432098765432,15.061728395061728,0)" xlink:href="#bl"/><use transform="matrix(0.03765432098765432,0,0,0.03765432098765432,22.59259259259259,0)" xlink:href="#bA"/><use transform="matrix(0.03765432098765432,0,0,0.03765432098765432,30.123456790123456,0)" xlink:href="#aZ"/><use transform="matrix(0.03765432098765432,0,0,0.03765432098765432,33.888888888888886,0)" xlink:href="#aY"/><use transform="matrix(0.03765432098765432,0,0,0.03765432098765432,36.86358024691358,0)" xlink:href="#aZ"/><use transform="matrix(0.03765432098765432,0,0,0.03765432098765432,40.62901234567901,0)" xlink:href="#bw"/><use transform="matrix(0.03765432098765432,0,0,0.03765432098765432,47.40679012345679,0)" xlink:href="#bb"/><use transform="matrix(0.03765432098765432,0,0,0.03765432098765432,54.93765432098765,0)" xlink:href="#ba"/><use transform="matrix(0.03765432098765432,0,0,0.03765432098765432,61.715432098765426,0)" xlink:href="#bz"/><use transform="matrix(0.03765432098765432,0,0,0.03765432098765432,69.2462962962963,0)" xlink:href="#bc"/><use transform="matrix(0.03765432098765432,0,0,0.03765432098765432,72.22098765432098,0)" xlink:href="#aX"/></g></defs></g></svg>