<svg xmlns="http://www.w3.org/2000/svg" xmlns:xlink="http://www.w3.org/1999/xlink" xmlns:lucid="lucid" width="800" height="341"><g transform="translate(-520 -280)" lucid:page-tab-id="0_0"><path d="M540 306c0-3.3 2.7-6 6-6h308c3.3 0 6 2.7 6 6v289c0 3.3-2.7 6-6 6H546c-3.3 0-6-2.7-6-6z" fill="#fff"/><path d="M540 306c0-3.3 2.7-6 6-6h308c3.3 0 6 2.7 6 6v289c0 3.3-2.7 6-6 6H546c-3.3 0-6-2.7-6-6zM540 340h320M600 340v261M730 340v261" stroke="#5e5e5e" stroke-width="2" fill="none"/><use xlink:href="#a" transform="matrix(1,0,0,1,550,300) translate(133.23765432098767 23.111111111111107)"/><use xlink:href="#b" transform="matrix(1,0,0,1,545,342.5) translate(14.629629629629637 15.111111111111109)"/><use xlink:href="#c" transform="matrix(1,0,0,1,605,342.5) translate(0 15.111111111111109)"/><use xlink:href="#d" transform="matrix(1,0,0,1,735,342.5) translate(0 15.111111111111109)"/><use xlink:href="#e" transform="matrix(1,0,0,1,605,371.5) translate(0 15.111111111111109)"/><use xlink:href="#f" transform="matrix(1,0,0,1,735,371.5) translate(0 15.111111111111109)"/><use xlink:href="#g" transform="matrix(1,0,0,1,735,371.5) translate(79.72222222222217 15.111111111111109)"/><use xlink:href="#h" transform="matrix(1,0,0,1,605,400.5) translate(0 15.111111111111109)"/><use xlink:href="#i" transform="matrix(1,0,0,1,735,400.5) translate(0 15.111111111111109)"/><use xlink:href="#j" transform="matrix(1,0,0,1,605,429.5) translate(0 15.155555555555553)"/><use xlink:href="#k" transform="matrix(1,0,0,1,735,429.5) translate(0 15.155555555555553)"/><use xlink:href="#l" transform="matrix(1,0,0,1,605,458.5) translate(0 15.155555555555553)"/><use xlink:href="#m" transform="matrix(1,0,0,1,735,458.5) translate(0 15.155555555555553)"/><use xlink:href="#n" transform="matrix(1,0,0,1,605,487.5) translate(0 15.155555555555553)"/><use xlink:href="#o" transform="matrix(1,0,0,1,735,487.5) translate(0 15.155555555555553)"/><use xlink:href="#p" transform="matrix(1,0,0,1,605,516.5) translate(0 15.155555555555555)"/><use xlink:href="#q" transform="matrix(1,0,0,1,735,516.5) translate(0 15.155555555555555)"/><use xlink:href="#r" transform="matrix(1,0,0,1,735,516.5) translate(97.42777777777772 15.155555555555555)"/><use xlink:href="#s" transform="matrix(1,0,0,1,605,545.5) translate(0 15.155555555555553)"/><use xlink:href="#t" transform="matrix(1,0,0,1,735,545.5) translate(0 15.155555555555553)"/><use xlink:href="#u" transform="matrix(1,0,0,1,735,545.5) translate(97.4277777777777 15.155555555555553)"/><use xlink:href="#v" transform="matrix(1,0,0,1,605,574.5) translate(0 15.155555555555553)"/><use xlink:href="#w" transform="matrix(1,0,0,1,735,574.5) translate(0 15.155555555555553)"/><use xlink:href="#u" transform="matrix(1,0,0,1,735,574.5) translate(47.24567901234565 15.155555555555553)"/><path d="M940 306c0-3.3 2.7-6 6-6h348c3.3 0 6 2.7 6 6v260c0 3.3-2.7 6-6 6H946c-3.3 0-6-2.7-6-6z" fill="#fff"/><path d="M940 306c0-3.3 2.7-6 6-6h348c3.3 0 6 2.7 6 6v260c0 3.3-2.7 6-6 6H946c-3.3 0-6-2.7-6-6zM940 340h360M1000 340v232M1150 340v232" stroke="#5e5e5e" stroke-width="2" fill="none"/><use xlink:href="#x" transform="matrix(1,0,0,1,950,300) translate(151.00925925925927 23.111111111111107)"/><use xlink:href="#b" transform="matrix(1,0,0,1,945,342.5) translate(14.629629629629637 15.111111111111109)"/><use xlink:href="#c" transform="matrix(1,0,0,1,1005,342.5) translate(0 15.111111111111109)"/><use xlink:href="#d" transform="matrix(1,0,0,1,1155,342.5) translate(0 15.111111111111109)"/><use xlink:href="#y" transform="matrix(1,0,0,1,1005,371.5) translate(0 15.111111111111109)"/><use xlink:href="#z" transform="matrix(1,0,0,1,1155,371.5) translate(0 15.111111111111109)"/><use xlink:href="#g" transform="matrix(1,0,0,1,1155,371.5) translate(110.9197530864197 15.111111111111109)"/><use xlink:href="#A" transform="matrix(1,0,0,1,1005,400.5) translate(0 15.111111111111109)"/><use xlink:href="#B" transform="matrix(1,0,0,1,1155,400.5) translate(0 15.111111111111109)"/><use xlink:href="#C" transform="matrix(1,0,0,1,1005,429.5) translate(0 15.155555555555553)"/><use xlink:href="#D" transform="matrix(1,0,0,1,1155,429.5) translate(0 15.155555555555553)"/><use xlink:href="#E" transform="matrix(1,0,0,1,1005,458.5) translate(0 15.155555555555553)"/><use xlink:href="#F" transform="matrix(1,0,0,1,1155,458.5) translate(0 15.155555555555553)"/><use xlink:href="#G" transform="matrix(1,0,0,1,1005,487.5) translate(0 15.155555555555553)"/><use xlink:href="#H" transform="matrix(1,0,0,1,1155,487.5) translate(0 15.155555555555553)"/><use xlink:href="#u" transform="matrix(1,0,0,1,1155,487.5) translate(121.26975308641967 15.155555555555553)"/><use xlink:href="#I" transform="matrix(1,0,0,1,1005,516.5) translate(0 15.155555555555553)"/><use xlink:href="#J" transform="matrix(1,0,0,1,1155,516.5) translate(0 15.155555555555553)"/><use xlink:href="#K" transform="matrix(1,0,0,1,945,545.5) translate(14.941666666666674 15.155555555555553)"/><use xlink:href="#L" transform="matrix(1,0,0,1,1005,545.5) translate(0 15.155555555555553)"/><use xlink:href="#M" transform="matrix(1,0,0,1,1155,545.5) translate(0 15.155555555555553)"/><use xlink:href="#N" transform="matrix(1,0,0,1,1155,545.5) translate(84.0166666666666 15.155555555555553)"/><path d="M919 557.42h-13c-3.3 0-6-2.7-6-6V360.6c0-3.33-2.7-6-6-6h-13" stroke="#5e5e5e" stroke-width="2" fill="none"/><path d="M929 547.42v20M939 557.42h-20M919 547.42v20M871 364.6v-20M861 354.6h20M881 364.6v-20" stroke="#5e5e5e" stroke-width="2" fill="#fff"/><defs><path fill="#333" d="M210-169c-67 3-38 105-44 169h-31v-121c0-29-5-50-35-48C34-165 62-65 56 0H25l-1-190h30c1 10-1 24 2 32 10-44 99-50 107 0 11-21 27-35 58-36 85-2 47 119 55 194h-31v-121c0-29-5-49-35-48" id="O"/><path fill="#333" d="M100-194c63 0 86 42 84 106H49c0 40 14 67 53 68 26 1 43-12 49-29l28 8c-11 28-37 45-77 45C44 4 14-33 15-96c1-61 26-98 85-98zm52 81c6-60-76-77-97-28-3 7-6 17-6 28h103" id="P"/><path fill="#333" d="M59-47c-2 24 18 29 38 22v24C64 9 27 4 27-40v-127H5v-23h24l9-43h21v43h35v23H59v120" id="Q"/><path fill="#333" d="M141-36C126-15 110 5 73 4 37 3 15-17 15-53c-1-64 63-63 125-63 3-35-9-54-41-54-24 1-41 7-42 31l-33-3c5-37 33-52 76-52 45 0 72 20 72 64v82c-1 20 7 32 28 27v20c-31 9-61-2-59-35zM48-53c0 20 12 33 32 33 41-3 63-29 60-74-43 2-92-5-92 41" id="R"/><g id="a"><use transform="matrix(0.043209876543209846,0,0,0.043209876543209846,0,0)" xlink:href="#O"/><use transform="matrix(0.043209876543209846,0,0,0.043209876543209846,12.919753086419744,0)" xlink:href="#P"/><use transform="matrix(0.043209876543209846,0,0,0.043209876543209846,21.561728395061714,0)" xlink:href="#Q"/><use transform="matrix(0.043209876543209846,0,0,0.043209876543209846,25.882716049382697,0)" xlink:href="#R"/></g><path fill="#333" d="M30-248c87 1 191-15 191 75 0 78-77 80-158 76V0H30v-248zm33 125c57 0 124 11 124-50 0-59-68-47-124-48v98" id="S"/><path fill="#333" d="M194 0L95-120 63-95V0H30v-248h33v124l119-124h40L117-140 236 0h-42" id="T"/><g id="b"><use transform="matrix(0.043209876543209846,0,0,0.043209876543209846,0,0)" xlink:href="#S"/><use transform="matrix(0.043209876543209846,0,0,0.043209876543209846,10.370370370370363,0)" xlink:href="#T"/></g><path fill="#333" d="M24-231v-30h32v30H24zM24 0v-190h32V0H24" id="U"/><path fill="#333" d="M85-194c31 0 48 13 60 33l-1-100h32l1 261h-30c-2-10 0-23-3-31C134-8 116 4 85 4 32 4 16-35 15-94c0-66 23-100 70-100zm9 24c-40 0-46 34-46 75 0 40 6 74 45 74 42 0 51-32 51-76 0-42-9-74-50-73" id="V"/><g id="c"><use transform="matrix(0.043209876543209846,0,0,0.043209876543209846,0,0)" xlink:href="#U"/><use transform="matrix(0.043209876543209846,0,0,0.043209876543209846,3.413580246913578,0)" xlink:href="#V"/></g><path fill="#333" d="M185-189c-5-48-123-54-124 2 14 75 158 14 163 119 3 78-121 87-175 55-17-10-28-26-33-46l33-7c5 56 141 63 141-1 0-78-155-14-162-118-5-82 145-84 179-34 5 7 8 16 11 25" id="W"/><path fill="#333" d="M30 0v-248h187v28H63v79h144v27H63v87h162V0H30" id="X"/><path fill="#333" d="M233-177c-1 41-23 64-60 70L243 0h-38l-65-103H63V0H30v-248c88 3 205-21 203 71zM63-129c60-2 137 13 137-47 0-61-80-42-137-45v92" id="Y"/><path fill="#333" d="M33 0v-248h34V0H33" id="Z"/><path fill="#333" d="M205 0l-28-72H64L36 0H1l101-248h38L239 0h-34zm-38-99l-47-123c-12 45-31 82-46 123h93" id="aa"/><path fill="#333" d="M30 0v-248h33v221h125V0H30" id="ab"/><g id="d"><use transform="matrix(0.043209876543209846,0,0,0.043209876543209846,0,0)" xlink:href="#W"/><use transform="matrix(0.043209876543209846,0,0,0.043209876543209846,10.370370370370363,0)" xlink:href="#X"/><use transform="matrix(0.043209876543209846,0,0,0.043209876543209846,20.740740740740726,0)" xlink:href="#Y"/><use transform="matrix(0.043209876543209846,0,0,0.043209876543209846,31.932098765432077,0)" xlink:href="#Z"/><use transform="matrix(0.043209876543209846,0,0,0.043209876543209846,36.25308641975306,0)" xlink:href="#aa"/><use transform="matrix(0.043209876543209846,0,0,0.043209876543209846,46.62345679012343,0)" xlink:href="#ab"/></g><path fill="#333" d="M143 0L79-87 56-68V0H24v-261h32v163l83-92h37l-77 82L181 0h-38" id="ac"/><path fill="#333" d="M179-190L93 31C79 59 56 82 12 73V49c39 6 53-20 64-50L1-190h34L92-34l54-156h33" id="ad"/><g id="e"><use transform="matrix(0.043209876543209846,0,0,0.043209876543209846,0,0)" xlink:href="#O"/><use transform="matrix(0.043209876543209846,0,0,0.043209876543209846,12.919753086419744,0)" xlink:href="#P"/><use transform="matrix(0.043209876543209846,0,0,0.043209876543209846,21.561728395061714,0)" xlink:href="#Q"/><use transform="matrix(0.043209876543209846,0,0,0.043209876543209846,25.882716049382697,0)" xlink:href="#R"/><use transform="matrix(0.043209876543209846,0,0,0.043209876543209846,34.52469135802467,0)" xlink:href="#ac"/><use transform="matrix(0.043209876543209846,0,0,0.043209876543209846,42.30246913580244,0)" xlink:href="#P"/><use transform="matrix(0.043209876543209846,0,0,0.043209876543209846,50.94444444444441,0)" xlink:href="#ad"/></g><path fill="#333" d="M240 0l2-218c-23 76-54 145-80 218h-23L58-218 59 0H30v-248h44l77 211c21-75 51-140 76-211h43V0h-30" id="ae"/><path fill="#333" d="M127-220V0H93v-220H8v-28h204v28h-85" id="af"/><path fill="#333" d="M137-103V0h-34v-103L8-248h37l75 118 75-118h37" id="ag"/><path fill="#333" d="M68-38c1 34 0 65-14 84H32c9-13 17-26 17-46H33v-38h35" id="ah"/><g id="f"><use transform="matrix(0.043209876543209846,0,0,0.043209876543209846,0,0)" xlink:href="#ae"/><use transform="matrix(0.043209876543209846,0,0,0.043209876543209846,12.919753086419744,0)" xlink:href="#X"/><use transform="matrix(0.043209876543209846,0,0,0.043209876543209846,23.290123456790106,0)" xlink:href="#af"/><use transform="matrix(0.043209876543209846,0,0,0.043209876543209846,31.586419753086396,0)" xlink:href="#aa"/><use transform="matrix(0.043209876543209846,0,0,0.043209876543209846,41.956790123456756,0)" xlink:href="#T"/><use transform="matrix(0.043209876543209846,0,0,0.043209876543209846,52.32716049382712,0)" xlink:href="#X"/><use transform="matrix(0.043209876543209846,0,0,0.043209876543209846,62.69753086419749,0)" xlink:href="#ag"/><use transform="matrix(0.043209876543209846,0,0,0.043209876543209846,71.0802469135802,0)" xlink:href="#ah"/></g><path fill="#333" d="M232-93c-1 65-40 97-104 97C67 4 28-28 28-90v-158h33c8 89-33 224 67 224 102 0 64-133 71-224h33v155" id="ai"/><use transform="matrix(0.043209876543209846,0,0,0.043209876543209846,0,0)" xlink:href="#ai" id="g"/><path fill="#333" d="M100-194c62-1 85 37 85 99 1 63-27 99-86 99S16-35 15-95c0-66 28-99 85-99zM99-20c44 1 53-31 53-75 0-43-8-75-51-75s-53 32-53 75 10 74 51 75" id="aj"/><path fill="#333" d="M115-194c55 1 70 41 70 98S169 2 115 4C84 4 66-9 55-30l1 105H24l-1-265h31l2 30c10-21 28-34 59-34zm-8 174c40 0 45-34 45-75s-6-73-45-74c-42 0-51 32-51 76 0 43 10 73 51 73" id="ak"/><path fill="#333" d="M117-194c89-4 53 116 60 194h-32v-121c0-31-8-49-39-48C34-167 62-67 57 0H25l-1-190h30c1 10-1 24 2 32 11-22 29-35 61-36" id="al"/><path fill="#333" d="M135-143c-3-34-86-38-87 0 15 53 115 12 119 90S17 21 10-45l28-5c4 36 97 45 98 0-10-56-113-15-118-90-4-57 82-63 122-42 12 7 21 19 24 35" id="am"/><g id="h"><use transform="matrix(0.043209876543209846,0,0,0.043209876543209846,0,0)" xlink:href="#aj"/><use transform="matrix(0.043209876543209846,0,0,0.043209876543209846,8.64197530864197,0)" xlink:href="#ak"/><use transform="matrix(0.043209876543209846,0,0,0.043209876543209846,17.28395061728394,0)" xlink:href="#P"/><use transform="matrix(0.043209876543209846,0,0,0.043209876543209846,25.92592592592591,0)" xlink:href="#al"/><use transform="matrix(0.043209876543209846,0,0,0.043209876543209846,34.56790123456788,0)" xlink:href="#am"/></g><path fill="#333" d="M190 0L58-211 59 0H30v-248h39L202-35l-2-213h31V0h-41" id="an"/><path fill="#333" d="M143 4C61 4 22-44 18-125c-5-107 100-154 193-111 17 8 29 25 37 43l-32 9c-13-25-37-40-76-40-61 0-88 39-88 99 0 61 29 100 91 101 35 0 62-11 79-27v-45h-74v-28h105v86C228-13 192 4 143 4" id="ao"/><g id="i"><use transform="matrix(0.043209876543209846,0,0,0.043209876543209846,0,0)" xlink:href="#Z"/><use transform="matrix(0.043209876543209846,0,0,0.043209876543209846,4.320987654320985,0)" xlink:href="#an"/><use transform="matrix(0.043209876543209846,0,0,0.043209876543209846,15.512345679012334,0)" xlink:href="#af"/><use transform="matrix(0.043209876543209846,0,0,0.043209876543209846,24.975308641975293,0)" xlink:href="#X"/><use transform="matrix(0.043209876543209846,0,0,0.043209876543209846,35.345679012345656,0)" xlink:href="#ao"/><use transform="matrix(0.043209876543209846,0,0,0.043209876543209846,47.444444444444414,0)" xlink:href="#X"/><use transform="matrix(0.043209876543209846,0,0,0.043209876543209846,57.81481481481478,0)" xlink:href="#Y"/></g><path d="M100-194c63 0 86 42 84 106H49c0 40 14 67 53 68 26 1 43-12 49-29l28 8c-11 28-37 45-77 45C44 4 14-33 15-96c1-61 26-98 85-98zm52 81c6-60-76-77-97-28-3 7-6 17-6 28h103" id="ap"/><path d="M85-194c31 0 48 13 60 33l-1-100h32l1 261h-30c-2-10 0-23-3-31C134-8 116 4 85 4 32 4 16-35 15-94c0-66 23-100 70-100zm9 24c-40 0-46 34-46 75 0 40 6 74 45 74 42 0 51-32 51-76 0-42-9-74-50-73" id="aq"/><path d="M24-231v-30h32v30H24zM24 0v-190h32V0H24" id="ar"/><path d="M59-47c-2 24 18 29 38 22v24C64 9 27 4 27-40v-127H5v-23h24l9-43h21v43h35v23H59v120" id="as"/><path d="M135-143c-3-34-86-38-87 0 15 53 115 12 119 90S17 21 10-45l28-5c4 36 97 45 98 0-10-56-113-15-118-90-4-57 82-63 122-42 12 7 21 19 24 35" id="at"/><g id="j"><use transform="matrix(0.04382716049382713,0,0,0.04382716049382713,0,0)" xlink:href="#ap"/><use transform="matrix(0.04382716049382713,0,0,0.04382716049382713,8.765432098765427,0)" xlink:href="#aq"/><use transform="matrix(0.04382716049382713,0,0,0.04382716049382713,17.530864197530853,0)" xlink:href="#ar"/><use transform="matrix(0.04382716049382713,0,0,0.04382716049382713,20.993209876543197,0)" xlink:href="#as"/><use transform="matrix(0.04382716049382713,0,0,0.04382716049382713,25.375925925925912,0)" xlink:href="#at"/></g><path d="M33 0v-248h34V0H33" id="au"/><path d="M190 0L58-211 59 0H30v-248h39L202-35l-2-213h31V0h-41" id="av"/><path d="M127-220V0H93v-220H8v-28h204v28h-85" id="aw"/><path d="M30 0v-248h187v28H63v79h144v27H63v87h162V0H30" id="ax"/><path d="M143 4C61 4 22-44 18-125c-5-107 100-154 193-111 17 8 29 25 37 43l-32 9c-13-25-37-40-76-40-61 0-88 39-88 99 0 61 29 100 91 101 35 0 62-11 79-27v-45h-74v-28h105v86C228-13 192 4 143 4" id="ay"/><path d="M233-177c-1 41-23 64-60 70L243 0h-38l-65-103H63V0H30v-248c88 3 205-21 203 71zM63-129c60-2 137 13 137-47 0-61-80-42-137-45v92" id="az"/><g id="k"><use transform="matrix(0.04382716049382713,0,0,0.04382716049382713,0,0)" xlink:href="#au"/><use transform="matrix(0.04382716049382713,0,0,0.04382716049382713,4.382716049382713,0)" xlink:href="#av"/><use transform="matrix(0.04382716049382713,0,0,0.04382716049382713,15.73395061728394,0)" xlink:href="#aw"/><use transform="matrix(0.04382716049382713,0,0,0.04382716049382713,25.33209876543208,0)" xlink:href="#ax"/><use transform="matrix(0.04382716049382713,0,0,0.04382716049382713,35.85061728395059,0)" xlink:href="#ay"/><use transform="matrix(0.04382716049382713,0,0,0.04382716049382713,48.122222222222184,0)" xlink:href="#ax"/><use transform="matrix(0.04382716049382713,0,0,0.04382716049382713,58.640740740740696,0)" xlink:href="#az"/></g><path d="M-5 72V49h209v23H-5" id="aA"/><path d="M24 0v-261h32V0H24" id="aB"/><g id="l"><use transform="matrix(0.04382716049382713,0,0,0.04382716049382713,0,0)" xlink:href="#ar"/><use transform="matrix(0.04382716049382713,0,0,0.04382716049382713,3.4623456790123432,0)" xlink:href="#at"/><use transform="matrix(0.04382716049382713,0,0,0.04382716049382713,11.351234567901226,0)" xlink:href="#aA"/><use transform="matrix(0.04382716049382713,0,0,0.04382716049382713,20.116666666666653,0)" xlink:href="#aq"/><use transform="matrix(0.04382716049382713,0,0,0.04382716049382713,28.88209876543208,0)" xlink:href="#ap"/><use transform="matrix(0.04382716049382713,0,0,0.04382716049382713,37.647530864197506,0)" xlink:href="#aB"/><use transform="matrix(0.04382716049382713,0,0,0.04382716049382713,41.10987654320985,0)" xlink:href="#ap"/><use transform="matrix(0.04382716049382713,0,0,0.04382716049382713,49.87530864197528,0)" xlink:href="#as"/><use transform="matrix(0.04382716049382713,0,0,0.04382716049382713,54.258024691357996,0)" xlink:href="#ap"/><use transform="matrix(0.04382716049382713,0,0,0.04382716049382713,63.02345679012342,0)" xlink:href="#aq"/></g><path d="M160-131c35 5 61 23 61 61C221 17 115-2 30 0v-248c76 3 177-17 177 60 0 33-19 50-47 57zm-97-11c50-1 110 9 110-42 0-47-63-36-110-37v79zm0 115c55-2 124 14 124-45 0-56-70-42-124-44v89" id="aC"/><path d="M140-251c81 0 123 46 123 126C263-46 219 4 140 4 59 4 17-45 17-125s42-126 123-126zm0 227c63 0 89-41 89-101s-29-99-89-99c-61 0-89 39-89 99S79-25 140-24" id="aD"/><path d="M30 0v-248h33v221h125V0H30" id="aE"/><path d="M205 0l-28-72H64L36 0H1l101-248h38L239 0h-34zm-38-99l-47-123c-12 45-31 82-46 123h93" id="aF"/><g id="m"><use transform="matrix(0.04382716049382713,0,0,0.04382716049382713,0,0)" xlink:href="#aC"/><use transform="matrix(0.04382716049382713,0,0,0.04382716049382713,10.51851851851851,0)" xlink:href="#aD"/><use transform="matrix(0.04382716049382713,0,0,0.04382716049382713,22.790123456790106,0)" xlink:href="#aD"/><use transform="matrix(0.04382716049382713,0,0,0.04382716049382713,35.0617283950617,0)" xlink:href="#aE"/><use transform="matrix(0.04382716049382713,0,0,0.04382716049382713,43.82716049382712,0)" xlink:href="#ax"/><use transform="matrix(0.04382716049382713,0,0,0.04382716049382713,54.34567901234563,0)" xlink:href="#aF"/><use transform="matrix(0.04382716049382713,0,0,0.04382716049382713,64.86419753086415,0)" xlink:href="#av"/></g><path d="M96-169c-40 0-48 33-48 73s9 75 48 75c24 0 41-14 43-38l32 2c-6 37-31 61-74 61-59 0-76-41-82-99-10-93 101-131 147-64 4 7 5 14 7 22l-32 3c-4-21-16-35-41-35" id="aG"/><path d="M114-163C36-179 61-72 57 0H25l-1-190h30c1 12-1 29 2 39 6-27 23-49 58-41v29" id="aH"/><path d="M141-36C126-15 110 5 73 4 37 3 15-17 15-53c-1-64 63-63 125-63 3-35-9-54-41-54-24 1-41 7-42 31l-33-3c5-37 33-52 76-52 45 0 72 20 72 64v82c-1 20 7 32 28 27v20c-31 9-61-2-59-35zM48-53c0 20 12 33 32 33 41-3 63-29 60-74-43 2-92-5-92 41" id="aI"/><g id="n"><use transform="matrix(0.04382716049382713,0,0,0.04382716049382713,0,0)" xlink:href="#aG"/><use transform="matrix(0.04382716049382713,0,0,0.04382716049382713,7.888888888888883,0)" xlink:href="#aH"/><use transform="matrix(0.04382716049382713,0,0,0.04382716049382713,13.104320987654312,0)" xlink:href="#ap"/><use transform="matrix(0.04382716049382713,0,0,0.04382716049382713,21.86975308641974,0)" xlink:href="#aI"/><use transform="matrix(0.04382716049382713,0,0,0.04382716049382713,30.635185185185165,0)" xlink:href="#as"/><use transform="matrix(0.04382716049382713,0,0,0.04382716049382713,35.01790123456788,0)" xlink:href="#ap"/><use transform="matrix(0.04382716049382713,0,0,0.04382716049382713,43.7833333333333,0)" xlink:href="#aq"/><use transform="matrix(0.04382716049382713,0,0,0.04382716049382713,52.54876543209874,0)" xlink:href="#aA"/><use transform="matrix(0.04382716049382713,0,0,0.04382716049382713,61.31419753086416,0)" xlink:href="#aI"/><use transform="matrix(0.04382716049382713,0,0,0.04382716049382713,70.0796296296296,0)" xlink:href="#as"/></g><path d="M240 0l2-218c-23 76-54 145-80 218h-23L58-218 59 0H30v-248h44l77 211c21-75 51-140 76-211h43V0h-30" id="aJ"/><path d="M185-189c-5-48-123-54-124 2 14 75 158 14 163 119 3 78-121 87-175 55-17-10-28-26-33-46l33-7c5 56 141 63 141-1 0-78-155-14-162-118-5-82 145-84 179-34 5 7 8 16 11 25" id="aK"/><path d="M30-248c87 1 191-15 191 75 0 78-77 80-158 76V0H30v-248zm33 125c57 0 124 11 124-50 0-59-68-47-124-48v98" id="aL"/><g id="o"><use transform="matrix(0.04382716049382713,0,0,0.04382716049382713,0,0)" xlink:href="#aw"/><use transform="matrix(0.04382716049382713,0,0,0.04382716049382713,9.598148148148141,0)" xlink:href="#au"/><use transform="matrix(0.04382716049382713,0,0,0.04382716049382713,13.980864197530854,0)" xlink:href="#aJ"/><use transform="matrix(0.04382716049382713,0,0,0.04382716049382713,27.085185185185164,0)" xlink:href="#ax"/><use transform="matrix(0.04382716049382713,0,0,0.04382716049382713,37.60370370370368,0)" xlink:href="#aK"/><use transform="matrix(0.04382716049382713,0,0,0.04382716049382713,48.122222222222184,0)" xlink:href="#aw"/><use transform="matrix(0.04382716049382713,0,0,0.04382716049382713,56.53703703703701,0)" xlink:href="#aF"/><use transform="matrix(0.04382716049382713,0,0,0.04382716049382713,67.05555555555551,0)" xlink:href="#aJ"/><use transform="matrix(0.04382716049382713,0,0,0.04382716049382713,80.15987654320983,0)" xlink:href="#aL"/></g><g id="p"><use transform="matrix(0.043827160493827136,0,0,0.043827160493827136,0,0)" xlink:href="#ap"/><use transform="matrix(0.043827160493827136,0,0,0.043827160493827136,8.765432098765427,0)" xlink:href="#aq"/><use transform="matrix(0.043827160493827136,0,0,0.043827160493827136,17.530864197530853,0)" xlink:href="#ar"/><use transform="matrix(0.043827160493827136,0,0,0.043827160493827136,20.993209876543197,0)" xlink:href="#as"/><use transform="matrix(0.043827160493827136,0,0,0.043827160493827136,25.375925925925912,0)" xlink:href="#ap"/><use transform="matrix(0.043827160493827136,0,0,0.043827160493827136,34.14135802469134,0)" xlink:href="#aq"/><use transform="matrix(0.043827160493827136,0,0,0.043827160493827136,42.90679012345677,0)" xlink:href="#aA"/><use transform="matrix(0.043827160493827136,0,0,0.043827160493827136,51.6722222222222,0)" xlink:href="#aI"/><use transform="matrix(0.043827160493827136,0,0,0.043827160493827136,60.43765432098763,0)" xlink:href="#as"/></g><path d="M68-38c1 34 0 65-14 84H32c9-13 17-26 17-46H33v-38h35" id="aM"/><g id="q"><use transform="matrix(0.043827160493827136,0,0,0.043827160493827136,0,0)" xlink:href="#aw"/><use transform="matrix(0.043827160493827136,0,0,0.043827160493827136,9.598148148148143,0)" xlink:href="#au"/><use transform="matrix(0.043827160493827136,0,0,0.043827160493827136,13.980864197530856,0)" xlink:href="#aJ"/><use transform="matrix(0.043827160493827136,0,0,0.043827160493827136,27.08518518518517,0)" xlink:href="#ax"/><use transform="matrix(0.043827160493827136,0,0,0.043827160493827136,37.60370370370368,0)" xlink:href="#aK"/><use transform="matrix(0.043827160493827136,0,0,0.043827160493827136,48.1222222222222,0)" xlink:href="#aw"/><use transform="matrix(0.043827160493827136,0,0,0.043827160493827136,56.537037037037,0)" xlink:href="#aF"/><use transform="matrix(0.043827160493827136,0,0,0.043827160493827136,67.05555555555551,0)" xlink:href="#aJ"/><use transform="matrix(0.043827160493827136,0,0,0.043827160493827136,80.15987654320983,0)" xlink:href="#aL"/><use transform="matrix(0.043827160493827136,0,0,0.043827160493827136,88.6623456790123,0)" xlink:href="#aM"/></g><use transform="matrix(0.043827160493827136,0,0,0.043827160493827136,0,0)" xlink:href="#av" id="r"/><g id="s"><use transform="matrix(0.04382716049382713,0,0,0.04382716049382713,0,0)" xlink:href="#aq"/><use transform="matrix(0.04382716049382713,0,0,0.04382716049382713,8.765432098765427,0)" xlink:href="#ap"/><use transform="matrix(0.04382716049382713,0,0,0.04382716049382713,17.530864197530853,0)" xlink:href="#aB"/><use transform="matrix(0.04382716049382713,0,0,0.04382716049382713,20.993209876543197,0)" xlink:href="#ap"/><use transform="matrix(0.04382716049382713,0,0,0.04382716049382713,29.758641975308624,0)" xlink:href="#as"/><use transform="matrix(0.04382716049382713,0,0,0.04382716049382713,34.141358024691336,0)" xlink:href="#ap"/><use transform="matrix(0.04382716049382713,0,0,0.04382716049382713,42.90679012345676,0)" xlink:href="#aq"/><use transform="matrix(0.04382716049382713,0,0,0.04382716049382713,51.67222222222218,0)" xlink:href="#aA"/><use transform="matrix(0.04382716049382713,0,0,0.04382716049382713,60.43765432098762,0)" xlink:href="#aI"/><use transform="matrix(0.04382716049382713,0,0,0.04382716049382713,69.20308641975305,0)" xlink:href="#as"/></g><g id="t"><use transform="matrix(0.04382716049382713,0,0,0.04382716049382713,0,0)" xlink:href="#aw"/><use transform="matrix(0.04382716049382713,0,0,0.04382716049382713,9.598148148148141,0)" xlink:href="#au"/><use transform="matrix(0.04382716049382713,0,0,0.04382716049382713,13.980864197530854,0)" xlink:href="#aJ"/><use transform="matrix(0.04382716049382713,0,0,0.04382716049382713,27.085185185185164,0)" xlink:href="#ax"/><use transform="matrix(0.04382716049382713,0,0,0.04382716049382713,37.60370370370368,0)" xlink:href="#aK"/><use transform="matrix(0.04382716049382713,0,0,0.04382716049382713,48.122222222222184,0)" xlink:href="#aw"/><use transform="matrix(0.04382716049382713,0,0,0.04382716049382713,56.53703703703701,0)" xlink:href="#aF"/><use transform="matrix(0.04382716049382713,0,0,0.04382716049382713,67.05555555555551,0)" xlink:href="#aJ"/><use transform="matrix(0.04382716049382713,0,0,0.04382716049382713,80.15987654320983,0)" xlink:href="#aL"/><use transform="matrix(0.04382716049382713,0,0,0.04382716049382713,88.66234567901229,0)" xlink:href="#aM"/></g><use transform="matrix(0.04382716049382713,0,0,0.04382716049382713,0,0)" xlink:href="#av" id="u"/><path d="M117-194c89-4 53 116 60 194h-32v-121c0-31-8-49-39-48C34-167 62-67 57 0H25l-1-190h30c1 10-1 24 2 32 11-22 29-35 61-36" id="aN"/><path d="M100-194c62-1 85 37 85 99 1 63-27 99-86 99S16-35 15-95c0-66 28-99 85-99zM99-20c44 1 53-31 53-75 0-43-8-75-51-75s-53 32-53 75 10 74 51 75" id="aO"/><g id="v"><use transform="matrix(0.04382716049382713,0,0,0.04382716049382713,0,0)" xlink:href="#aN"/><use transform="matrix(0.04382716049382713,0,0,0.04382716049382713,8.765432098765427,0)" xlink:href="#aO"/><use transform="matrix(0.04382716049382713,0,0,0.04382716049382713,17.530864197530853,0)" xlink:href="#as"/><use transform="matrix(0.04382716049382713,0,0,0.04382716049382713,21.91358024691357,0)" xlink:href="#ap"/><use transform="matrix(0.04382716049382713,0,0,0.04382716049382713,30.679012345678995,0)" xlink:href="#at"/></g><path d="M195 0l-74-108L45 0H8l94-129-87-119h37l69 98 67-98h37l-84 118L233 0h-38" id="aP"/><g id="w"><use transform="matrix(0.04382716049382713,0,0,0.04382716049382713,0,0)" xlink:href="#aw"/><use transform="matrix(0.04382716049382713,0,0,0.04382716049382713,9.598148148148141,0)" xlink:href="#ax"/><use transform="matrix(0.04382716049382713,0,0,0.04382716049382713,20.116666666666653,0)" xlink:href="#aP"/><use transform="matrix(0.04382716049382713,0,0,0.04382716049382713,30.635185185185165,0)" xlink:href="#aw"/><use transform="matrix(0.04382716049382713,0,0,0.04382716049382713,38.48024691358022,0)" xlink:href="#aM"/></g><path fill="#333" d="M84 4C-5 8 30-112 23-190h32v120c0 31 7 50 39 49 72-2 45-101 50-169h31l1 190h-30c-1-10 1-25-2-33-11 22-28 36-60 37" id="aQ"/><path fill="#333" d="M114-163C36-179 61-72 57 0H25l-1-190h30c1 12-1 29 2 39 6-27 23-49 58-41v29" id="aR"/><g id="x"><use transform="matrix(0.043209876543209846,0,0,0.043209876543209846,0,0)" xlink:href="#aQ"/><use transform="matrix(0.043209876543209846,0,0,0.043209876543209846,8.64197530864197,0)" xlink:href="#am"/><use transform="matrix(0.043209876543209846,0,0,0.043209876543209846,16.419753086419743,0)" xlink:href="#P"/><use transform="matrix(0.043209876543209846,0,0,0.043209876543209846,25.061728395061717,0)" xlink:href="#aR"/><use transform="matrix(0.043209876543209846,0,0,0.043209876543209846,30.20370370370368,0)" xlink:href="#am"/></g><g id="y"><use transform="matrix(0.043209876543209846,0,0,0.043209876543209846,0,0)" xlink:href="#aQ"/><use transform="matrix(0.043209876543209846,0,0,0.043209876543209846,8.64197530864197,0)" xlink:href="#am"/><use transform="matrix(0.043209876543209846,0,0,0.043209876543209846,16.419753086419743,0)" xlink:href="#P"/><use transform="matrix(0.043209876543209846,0,0,0.043209876543209846,25.061728395061717,0)" xlink:href="#aR"/><use transform="matrix(0.043209876543209846,0,0,0.043209876543209846,30.20370370370368,0)" xlink:href="#al"/><use transform="matrix(0.043209876543209846,0,0,0.043209876543209846,38.845679012345656,0)" xlink:href="#R"/><use transform="matrix(0.043209876543209846,0,0,0.043209876543209846,47.48765432098762,0)" xlink:href="#O"/><use transform="matrix(0.043209876543209846,0,0,0.043209876543209846,60.40740740740736,0)" xlink:href="#P"/></g><path fill="#333" d="M137 0h-34L2-248h35l83 218 83-218h36" id="aS"/><path fill="#333" d="M212-179c-10-28-35-45-73-45-59 0-87 40-87 99 0 60 29 101 89 101 43 0 62-24 78-52l27 14C228-24 195 4 139 4 59 4 22-46 18-125c-6-104 99-153 187-111 19 9 31 26 39 46" id="aT"/><path fill="#333" d="M197 0v-115H63V0H30v-248h33v105h134v-105h34V0h-34" id="aU"/><path fill="#333" d="M87 75C49 33 22-17 22-94c0-76 28-126 65-167h31c-38 41-64 92-64 168S80 34 118 75H87" id="aV"/><path fill="#333" d="M101-251c82-7 93 87 43 132L82-64C71-53 59-42 53-27h129V0H18c2-99 128-94 128-182 0-28-16-43-45-43s-46 15-49 41l-32-3c6-41 34-60 81-64" id="aW"/><path fill="#333" d="M101-251c68 0 85 55 85 127S166 4 100 4C33 4 14-52 14-124c0-73 17-127 87-127zm-1 229c47 0 54-49 54-102s-4-102-53-102c-51 0-55 48-55 102 0 53 5 102 54 102" id="aX"/><path fill="#333" d="M33-261c38 41 65 92 65 168S71 34 33 75H2C39 34 66-17 66-93S39-220 2-261h31" id="aY"/><g id="z"><use transform="matrix(0.043209876543209846,0,0,0.043209876543209846,0,0)" xlink:href="#aS"/><use transform="matrix(0.043209876543209846,0,0,0.043209876543209846,9.203703703703697,0)" xlink:href="#aa"/><use transform="matrix(0.043209876543209846,0,0,0.043209876543209846,19.574074074074062,0)" xlink:href="#Y"/><use transform="matrix(0.043209876543209846,0,0,0.043209876543209846,30.76543209876541,0)" xlink:href="#aT"/><use transform="matrix(0.043209876543209846,0,0,0.043209876543209846,41.95679012345676,0)" xlink:href="#aU"/><use transform="matrix(0.043209876543209846,0,0,0.043209876543209846,53.14814814814811,0)" xlink:href="#aa"/><use transform="matrix(0.043209876543209846,0,0,0.043209876543209846,63.518518518518476,0)" xlink:href="#Y"/><use transform="matrix(0.043209876543209846,0,0,0.043209876543209846,74.70987654320983,0)" xlink:href="#aV"/><use transform="matrix(0.043209876543209846,0,0,0.043209876543209846,79.8518518518518,0)" xlink:href="#aW"/><use transform="matrix(0.043209876543209846,0,0,0.043209876543209846,88.49382716049378,0)" xlink:href="#aX"/><use transform="matrix(0.043209876543209846,0,0,0.043209876543209846,97.13580246913575,0)" xlink:href="#aY"/><use transform="matrix(0.043209876543209846,0,0,0.043209876543209846,102.27777777777773,0)" xlink:href="#ah"/></g><path fill="#333" d="M24 0v-261h32V0H24" id="aZ"/><path fill="#333" d="M-5 72V49h209v23H-5" id="ba"/><g id="A"><use transform="matrix(0.043209876543209846,0,0,0.043209876543209846,0,0)" xlink:href="#P"/><use transform="matrix(0.043209876543209846,0,0,0.043209876543209846,8.64197530864197,0)" xlink:href="#O"/><use transform="matrix(0.043209876543209846,0,0,0.043209876543209846,21.561728395061714,0)" xlink:href="#R"/><use transform="matrix(0.043209876543209846,0,0,0.043209876543209846,30.20370370370368,0)" xlink:href="#U"/><use transform="matrix(0.043209876543209846,0,0,0.043209876543209846,33.61728395061726,0)" xlink:href="#aZ"/><use transform="matrix(0.043209876543209846,0,0,0.043209876543209846,37.03086419753083,0)" xlink:href="#ba"/><use transform="matrix(0.043209876543209846,0,0,0.043209876543209846,45.6728395061728,0)" xlink:href="#R"/><use transform="matrix(0.043209876543209846,0,0,0.043209876543209846,54.31481481481477,0)" xlink:href="#V"/><use transform="matrix(0.043209876543209846,0,0,0.043209876543209846,62.956790123456734,0)" xlink:href="#V"/><use transform="matrix(0.043209876543209846,0,0,0.043209876543209846,71.5987654320987,0)" xlink:href="#aR"/><use transform="matrix(0.043209876543209846,0,0,0.043209876543209846,76.74074074074068,0)" xlink:href="#P"/><use transform="matrix(0.043209876543209846,0,0,0.043209876543209846,85.38271604938265,0)" xlink:href="#am"/><use transform="matrix(0.043209876543209846,0,0,0.043209876543209846,93.16049382716042,0)" xlink:href="#am"/></g><path fill="#333" d="M30-248c118-7 216 8 213 122C240-48 200 0 122 0H30v-248zM63-27c89 8 146-16 146-99s-60-101-146-95v194" id="bb"/><g id="B"><use transform="matrix(0.043209876543209846,0,0,0.043209876543209846,0,0)" xlink:href="#X"/><use transform="matrix(0.043209876543209846,0,0,0.043209876543209846,10.370370370370363,0)" xlink:href="#ae"/><use transform="matrix(0.043209876543209846,0,0,0.043209876543209846,23.290123456790106,0)" xlink:href="#aa"/><use transform="matrix(0.043209876543209846,0,0,0.043209876543209846,33.660493827160465,0)" xlink:href="#Z"/><use transform="matrix(0.043209876543209846,0,0,0.043209876543209846,37.98148148148145,0)" xlink:href="#ab"/><use transform="matrix(0.043209876543209846,0,0,0.043209876543209846,46.62345679012343,0)" xlink:href="#ba"/><use transform="matrix(0.043209876543209846,0,0,0.043209876543209846,55.26543209876538,0)" xlink:href="#aa"/><use transform="matrix(0.043209876543209846,0,0,0.043209876543209846,65.63580246913575,0)" xlink:href="#bb"/><use transform="matrix(0.043209876543209846,0,0,0.043209876543209846,76.82716049382711,0)" xlink:href="#bb"/><use transform="matrix(0.043209876543209846,0,0,0.043209876543209846,88.01851851851846,0)" xlink:href="#Y"/><use transform="matrix(0.043209876543209846,0,0,0.043209876543209846,99.2098765432098,0)" xlink:href="#X"/><use transform="matrix(0.043209876543209846,0,0,0.043209876543209846,109.5802469135802,0)" xlink:href="#W"/><use transform="matrix(0.043209876543209846,0,0,0.043209876543209846,119.95061728395055,0)" xlink:href="#W"/></g><path d="M101-234c-31-9-42 10-38 44h38v23H63V0H32v-167H5v-23h27c-7-52 17-82 69-68v24" id="bc"/><path d="M210-169c-67 3-38 105-44 169h-31v-121c0-29-5-50-35-48C34-165 62-65 56 0H25l-1-190h30c1 10-1 24 2 32 10-44 99-50 107 0 11-21 27-35 58-36 85-2 47 119 55 194h-31v-121c0-29-5-49-35-48" id="bd"/><g id="C"><use transform="matrix(0.04382716049382713,0,0,0.04382716049382713,0,0)" xlink:href="#bc"/><use transform="matrix(0.04382716049382713,0,0,0.04382716049382713,4.382716049382713,0)" xlink:href="#ar"/><use transform="matrix(0.04382716049382713,0,0,0.04382716049382713,7.845061728395056,0)" xlink:href="#aH"/><use transform="matrix(0.04382716049382713,0,0,0.04382716049382713,13.060493827160485,0)" xlink:href="#at"/><use transform="matrix(0.04382716049382713,0,0,0.04382716049382713,20.949382716049367,0)" xlink:href="#as"/><use transform="matrix(0.04382716049382713,0,0,0.04382716049382713,25.33209876543208,0)" xlink:href="#aA"/><use transform="matrix(0.04382716049382713,0,0,0.04382716049382713,34.09753086419751,0)" xlink:href="#aN"/><use transform="matrix(0.04382716049382713,0,0,0.04382716049382713,42.86296296296294,0)" xlink:href="#aI"/><use transform="matrix(0.04382716049382713,0,0,0.04382716049382713,51.62839506172837,0)" xlink:href="#bd"/><use transform="matrix(0.04382716049382713,0,0,0.04382716049382713,64.73271604938267,0)" xlink:href="#ap"/></g><path d="M137 0h-34L2-248h35l83 218 83-218h36" id="be"/><path d="M212-179c-10-28-35-45-73-45-59 0-87 40-87 99 0 60 29 101 89 101 43 0 62-24 78-52l27 14C228-24 195 4 139 4 59 4 22-46 18-125c-6-104 99-153 187-111 19 9 31 26 39 46" id="bf"/><path d="M197 0v-115H63V0H30v-248h33v105h134v-105h34V0h-34" id="bg"/><path d="M87 75C49 33 22-17 22-94c0-76 28-126 65-167h31c-38 41-64 92-64 168S80 34 118 75H87" id="bh"/><path d="M54-142c48-35 137-8 131 61C196 18 31 33 14-55l32-4c7 23 22 37 52 37 35-1 51-22 54-58 4-55-73-65-99-34H22l8-134h141v27H59" id="bi"/><path d="M101-251c68 0 85 55 85 127S166 4 100 4C33 4 14-52 14-124c0-73 17-127 87-127zm-1 229c47 0 54-49 54-102s-4-102-53-102c-51 0-55 48-55 102 0 53 5 102 54 102" id="bj"/><path d="M33-261c38 41 65 92 65 168S71 34 33 75H2C39 34 66-17 66-93S39-220 2-261h31" id="bk"/><g id="D"><use transform="matrix(0.04382716049382713,0,0,0.04382716049382713,0,0)" xlink:href="#be"/><use transform="matrix(0.04382716049382713,0,0,0.04382716049382713,9.335185185185178,0)" xlink:href="#aF"/><use transform="matrix(0.04382716049382713,0,0,0.04382716049382713,19.853703703703687,0)" xlink:href="#az"/><use transform="matrix(0.04382716049382713,0,0,0.04382716049382713,31.20493827160491,0)" xlink:href="#bf"/><use transform="matrix(0.04382716049382713,0,0,0.04382716049382713,42.55617283950614,0)" xlink:href="#bg"/><use transform="matrix(0.04382716049382713,0,0,0.04382716049382713,53.90740740740736,0)" xlink:href="#aF"/><use transform="matrix(0.04382716049382713,0,0,0.04382716049382713,64.42592592592587,0)" xlink:href="#az"/><use transform="matrix(0.04382716049382713,0,0,0.04382716049382713,75.7771604938271,0)" xlink:href="#bh"/><use transform="matrix(0.04382716049382713,0,0,0.04382716049382713,80.99259259259253,0)" xlink:href="#bi"/><use transform="matrix(0.04382716049382713,0,0,0.04382716049382713,89.75802469135796,0)" xlink:href="#bj"/><use transform="matrix(0.04382716049382713,0,0,0.04382716049382713,98.52345679012339,0)" xlink:href="#bk"/></g><g id="E"><use transform="matrix(0.04382716049382713,0,0,0.04382716049382713,0,0)" xlink:href="#aB"/><use transform="matrix(0.04382716049382713,0,0,0.04382716049382713,3.4623456790123432,0)" xlink:href="#aI"/><use transform="matrix(0.04382716049382713,0,0,0.04382716049382713,12.22777777777777,0)" xlink:href="#at"/><use transform="matrix(0.04382716049382713,0,0,0.04382716049382713,20.116666666666653,0)" xlink:href="#as"/><use transform="matrix(0.04382716049382713,0,0,0.04382716049382713,24.49938271604937,0)" xlink:href="#aA"/><use transform="matrix(0.04382716049382713,0,0,0.04382716049382713,33.2648148148148,0)" xlink:href="#aN"/><use transform="matrix(0.04382716049382713,0,0,0.04382716049382713,42.03024691358023,0)" xlink:href="#aI"/><use transform="matrix(0.04382716049382713,0,0,0.04382716049382713,50.795679012345666,0)" xlink:href="#bd"/><use transform="matrix(0.04382716049382713,0,0,0.04382716049382713,63.89999999999998,0)" xlink:href="#ap"/></g><path d="M64 0c3-98 48-159 88-221H18v-27h164v26C143-157 98-101 97 0H64" id="bl"/><g id="F"><use transform="matrix(0.04382716049382713,0,0,0.04382716049382713,0,0)" xlink:href="#be"/><use transform="matrix(0.04382716049382713,0,0,0.04382716049382713,9.335185185185178,0)" xlink:href="#aF"/><use transform="matrix(0.04382716049382713,0,0,0.04382716049382713,19.853703703703687,0)" xlink:href="#az"/><use transform="matrix(0.04382716049382713,0,0,0.04382716049382713,31.20493827160491,0)" xlink:href="#bf"/><use transform="matrix(0.04382716049382713,0,0,0.04382716049382713,42.55617283950614,0)" xlink:href="#bg"/><use transform="matrix(0.04382716049382713,0,0,0.04382716049382713,53.90740740740736,0)" xlink:href="#aF"/><use transform="matrix(0.04382716049382713,0,0,0.04382716049382713,64.42592592592587,0)" xlink:href="#az"/><use transform="matrix(0.04382716049382713,0,0,0.04382716049382713,75.7771604938271,0)" xlink:href="#bh"/><use transform="matrix(0.04382716049382713,0,0,0.04382716049382713,80.99259259259253,0)" xlink:href="#bl"/><use transform="matrix(0.04382716049382713,0,0,0.04382716049382713,89.75802469135796,0)" xlink:href="#bj"/><use transform="matrix(0.04382716049382713,0,0,0.04382716049382713,98.52345679012339,0)" xlink:href="#bk"/></g><path d="M106-169C34-169 62-67 57 0H25v-261h32l-1 103c12-21 28-36 61-36 89 0 53 116 60 194h-32v-121c2-32-8-49-39-48" id="bm"/><g id="G"><use transform="matrix(0.04382716049382713,0,0,0.04382716049382713,0,0)" xlink:href="#aO"/><use transform="matrix(0.04382716049382713,0,0,0.04382716049382713,8.765432098765427,0)" xlink:href="#as"/><use transform="matrix(0.04382716049382713,0,0,0.04382716049382713,13.148148148148142,0)" xlink:href="#bm"/><use transform="matrix(0.04382716049382713,0,0,0.04382716049382713,21.91358024691357,0)" xlink:href="#ap"/><use transform="matrix(0.04382716049382713,0,0,0.04382716049382713,30.679012345678995,0)" xlink:href="#aH"/><use transform="matrix(0.04382716049382713,0,0,0.04382716049382713,35.894444444444424,0)" xlink:href="#aA"/><use transform="matrix(0.04382716049382713,0,0,0.04382716049382713,44.65987654320985,0)" xlink:href="#aN"/><use transform="matrix(0.04382716049382713,0,0,0.04382716049382713,53.42530864197528,0)" xlink:href="#aI"/><use transform="matrix(0.04382716049382713,0,0,0.04382716049382713,62.19074074074071,0)" xlink:href="#bd"/><use transform="matrix(0.04382716049382713,0,0,0.04382716049382713,75.29506172839501,0)" xlink:href="#ap"/><use transform="matrix(0.04382716049382713,0,0,0.04382716049382713,84.06049382716044,0)" xlink:href="#at"/></g><path d="M27 0v-27h64v-190l-56 39v-29l58-41h29v221h61V0H27" id="bn"/><path d="M101-251c82-7 93 87 43 132L82-64C71-53 59-42 53-27h129V0H18c2-99 128-94 128-182 0-28-16-43-45-43s-46 15-49 41l-32-3c6-41 34-60 81-64" id="bo"/><g id="H"><use transform="matrix(0.04382716049382713,0,0,0.04382716049382713,0,0)" xlink:href="#be"/><use transform="matrix(0.04382716049382713,0,0,0.04382716049382713,9.335185185185178,0)" xlink:href="#aF"/><use transform="matrix(0.04382716049382713,0,0,0.04382716049382713,19.853703703703687,0)" xlink:href="#az"/><use transform="matrix(0.04382716049382713,0,0,0.04382716049382713,31.20493827160491,0)" xlink:href="#bf"/><use transform="matrix(0.04382716049382713,0,0,0.04382716049382713,42.55617283950614,0)" xlink:href="#bg"/><use transform="matrix(0.04382716049382713,0,0,0.04382716049382713,53.90740740740736,0)" xlink:href="#aF"/><use transform="matrix(0.04382716049382713,0,0,0.04382716049382713,64.42592592592587,0)" xlink:href="#az"/><use transform="matrix(0.04382716049382713,0,0,0.04382716049382713,75.7771604938271,0)" xlink:href="#bh"/><use transform="matrix(0.04382716049382713,0,0,0.04382716049382713,80.99259259259253,0)" xlink:href="#bn"/><use transform="matrix(0.04382716049382713,0,0,0.04382716049382713,89.75802469135796,0)" xlink:href="#bo"/><use transform="matrix(0.04382716049382713,0,0,0.04382716049382713,98.52345679012339,0)" xlink:href="#bj"/><use transform="matrix(0.04382716049382713,0,0,0.04382716049382713,107.2888888888888,0)" xlink:href="#bk"/><use transform="matrix(0.04382716049382713,0,0,0.04382716049382713,112.50432098765425,0)" xlink:href="#aM"/></g><path d="M115-194c55 1 70 41 70 98S169 2 115 4C84 4 66-9 55-30l1 105H24l-1-265h31l2 30c10-21 28-34 59-34zm-8 174c40 0 45-34 45-75s-6-73-45-74c-42 0-51 32-51 76 0 43 10 73 51 73" id="bp"/><path d="M206 0h-36l-40-164L89 0H53L-1-190h32L70-26l43-164h34l41 164 42-164h31" id="bq"/><g id="I"><use transform="matrix(0.04382716049382713,0,0,0.04382716049382713,0,0)" xlink:href="#bp"/><use transform="matrix(0.04382716049382713,0,0,0.04382716049382713,8.765432098765427,0)" xlink:href="#aI"/><use transform="matrix(0.04382716049382713,0,0,0.04382716049382713,17.530864197530853,0)" xlink:href="#at"/><use transform="matrix(0.04382716049382713,0,0,0.04382716049382713,25.419753086419735,0)" xlink:href="#at"/><use transform="matrix(0.04382716049382713,0,0,0.04382716049382713,33.30864197530862,0)" xlink:href="#bq"/><use transform="matrix(0.04382716049382713,0,0,0.04382716049382713,44.65987654320985,0)" xlink:href="#aO"/><use transform="matrix(0.04382716049382713,0,0,0.04382716049382713,53.42530864197528,0)" xlink:href="#aH"/><use transform="matrix(0.04382716049382713,0,0,0.04382716049382713,58.64074074074071,0)" xlink:href="#aq"/></g><g id="J"><use transform="matrix(0.04382716049382713,0,0,0.04382716049382713,0,0)" xlink:href="#aK"/><use transform="matrix(0.04382716049382713,0,0,0.04382716049382713,10.51851851851851,0)" xlink:href="#bg"/><use transform="matrix(0.04382716049382713,0,0,0.04382716049382713,21.869753086419735,0)" xlink:href="#aF"/><use transform="matrix(0.04382716049382713,0,0,0.04382716049382713,32.38827160493825,0)" xlink:href="#bn"/></g><path d="M63-220v92h138v28H63V0H30v-248h175v28H63" id="br"/><path d="M194 0L95-120 63-95V0H30v-248h33v124l119-124h40L117-140 236 0h-42" id="bs"/><g id="K"><use transform="matrix(0.04382716049382713,0,0,0.04382716049382713,0,0)" xlink:href="#br"/><use transform="matrix(0.04382716049382713,0,0,0.04382716049382713,9.598148148148141,0)" xlink:href="#bs"/></g><g id="L"><use transform="matrix(0.04382716049382713,0,0,0.04382716049382713,0,0)" xlink:href="#bd"/><use transform="matrix(0.04382716049382713,0,0,0.04382716049382713,13.104320987654312,0)" xlink:href="#ap"/><use transform="matrix(0.04382716049382713,0,0,0.04382716049382713,21.86975308641974,0)" xlink:href="#as"/><use transform="matrix(0.04382716049382713,0,0,0.04382716049382713,26.25246913580245,0)" xlink:href="#aI"/><use transform="matrix(0.04382716049382713,0,0,0.04382716049382713,35.01790123456787,0)" xlink:href="#aA"/><use transform="matrix(0.04382716049382713,0,0,0.04382716049382713,43.7833333333333,0)" xlink:href="#ar"/><use transform="matrix(0.04382716049382713,0,0,0.04382716049382713,47.24567901234565,0)" xlink:href="#aq"/></g><g id="M"><use transform="matrix(0.04382716049382713,0,0,0.04382716049382713,0,0)" xlink:href="#aK"/><use transform="matrix(0.04382716049382713,0,0,0.04382716049382713,10.51851851851851,0)" xlink:href="#aJ"/><use transform="matrix(0.04382716049382713,0,0,0.04382716049382713,23.622839506172824,0)" xlink:href="#aF"/><use transform="matrix(0.04382716049382713,0,0,0.04382716049382713,34.141358024691336,0)" xlink:href="#aE"/><use transform="matrix(0.04382716049382713,0,0,0.04382716049382713,42.90679012345676,0)" xlink:href="#aE"/><use transform="matrix(0.04382716049382713,0,0,0.04382716049382713,51.67222222222218,0)" xlink:href="#au"/><use transform="matrix(0.04382716049382713,0,0,0.04382716049382713,56.05493827160491,0)" xlink:href="#av"/><use transform="matrix(0.04382716049382713,0,0,0.04382716049382713,67.40617283950613,0)" xlink:href="#aw"/><use transform="matrix(0.04382716049382713,0,0,0.04382716049382713,75.25123456790118,0)" xlink:href="#aM"/></g><path d="M232-93c-1 65-40 97-104 97C67 4 28-28 28-90v-158h33c8 89-33 224 67 224 102 0 64-133 71-224h33v155" id="bt"/><use transform="matrix(0.04382716049382713,0,0,0.04382716049382713,0,0)" xlink:href="#bt" id="N"/></defs></g></svg>