<svg xmlns="http://www.w3.org/2000/svg" xmlns:xlink="http://www.w3.org/1999/xlink" xmlns:lucid="lucid" width="672" height="488"><g transform="translate(-288 -300)" lucid:page-tab-id="0_0"><path d="M0 0h1870.87v1322.83H0z" fill="#fff"/><path d="M340 326c0-3.3 2.7-6 6-6h248c3.3 0 6 2.7 6 6v262c0 3.3-2.7 6-6 6H346c-3.3 0-6-2.7-6-6z" fill="#fff"/><path d="M340 326c0-3.3 2.7-6 6-6h248c3.3 0 6 2.7 6 6v262c0 3.3-2.7 6-6 6H346c-3.3 0-6-2.7-6-6zM340 360h260M376 360v234M486 360v234" stroke="#5e5e5e" stroke-width="2" fill="none"/><use xlink:href="#a" transform="matrix(1,0,0,1,350,320) translate(105.70370370370372 22.666666666666664)"/><use xlink:href="#b" transform="matrix(1,0,0,1,345,362.5) translate(4.11111111111112 13.166666666666664)"/><use xlink:href="#c" transform="matrix(1,0,0,1,381,362.5) translate(0 13.166666666666664)"/><use xlink:href="#d" transform="matrix(1,0,0,1,491,362.5) translate(0 13.166666666666664)"/><use xlink:href="#e" transform="matrix(1,0,0,1,381,388.5) translate(0 13.166666666666664)"/><use xlink:href="#f" transform="matrix(1,0,0,1,491,388.5) translate(0 13.166666666666664)"/><use xlink:href="#g" transform="matrix(1,0,0,1,491,388.5) translate(68.33333333333326 13.166666666666664)"/><use xlink:href="#h" transform="matrix(1,0,0,1,381,414.5) translate(0 13.166666666666664)"/><use xlink:href="#i" transform="matrix(1,0,0,1,491,414.5) translate(0 13.166666666666664)"/><use xlink:href="#j" transform="matrix(1,0,0,1,381,440.5) translate(0 13.211111111111109)"/><use xlink:href="#k" transform="matrix(1,0,0,1,491,440.5) translate(0 13.211111111111109)"/><use xlink:href="#l" transform="matrix(1,0,0,1,381,466.5) translate(0 13.211111111111109)"/><use xlink:href="#m" transform="matrix(1,0,0,1,491,466.5) translate(0 13.211111111111109)"/><use xlink:href="#n" transform="matrix(1,0,0,1,381,492.5) translate(0 13.211111111111109)"/><use xlink:href="#o" transform="matrix(1,0,0,1,491,492.5) translate(0 13.211111111111109)"/><use xlink:href="#p" transform="matrix(1,0,0,1,381,518.5) translate(0 13.21111111111111)"/><use xlink:href="#q" transform="matrix(1,0,0,1,491,518.5) translate(0 13.21111111111111)"/><use xlink:href="#r" transform="matrix(1,0,0,1,491,518.5) translate(83.70555555555552 13.21111111111111)"/><use xlink:href="#s" transform="matrix(1,0,0,1,381,544.5) translate(0 13.211111111111109)"/><use xlink:href="#t" transform="matrix(1,0,0,1,491,544.5) translate(0 13.211111111111109)"/><use xlink:href="#u" transform="matrix(1,0,0,1,491,544.5) translate(83.70555555555548 13.211111111111109)"/><use xlink:href="#v" transform="matrix(1,0,0,1,381,570.5) translate(0 13.211111111111109)"/><use xlink:href="#w" transform="matrix(1,0,0,1,491,570.5) translate(0 13.211111111111109)"/><use xlink:href="#u" transform="matrix(1,0,0,1,491,570.5) translate(40.591358024691324 13.211111111111109)"/><path d="M660 526c0-3.3 2.7-6 6-6h268c3.3 0 6 2.7 6 6v236c0 3.3-2.7 6-6 6H666c-3.3 0-6-2.7-6-6z" fill="#fff"/><path d="M660 526c0-3.3 2.7-6 6-6h268c3.3 0 6 2.7 6 6v236c0 3.3-2.7 6-6 6H666c-3.3 0-6-2.7-6-6zM660 560h280M694 560v208M810 560v208" stroke="#5e5e5e" stroke-width="2" fill="none"/><use xlink:href="#x" transform="matrix(1,0,0,1,670,520) translate(113.72222222222224 22.666666666666664)"/><use xlink:href="#b" transform="matrix(1,0,0,1,665,562.5) translate(3.1111111111111196 13.166666666666664)"/><use xlink:href="#c" transform="matrix(1,0,0,1,699,562.5) translate(0 13.166666666666664)"/><use xlink:href="#d" transform="matrix(1,0,0,1,815,562.5) translate(0 13.166666666666664)"/><use xlink:href="#y" transform="matrix(1,0,0,1,699,588.5) translate(0 13.166666666666664)"/><use xlink:href="#z" transform="matrix(1,0,0,1,815,588.5) translate(0 13.166666666666664)"/><use xlink:href="#g" transform="matrix(1,0,0,1,815,588.5) translate(82.81481481481472 13.166666666666664)"/><use xlink:href="#A" transform="matrix(1,0,0,1,699,614.5) translate(0 13.166666666666664)"/><use xlink:href="#B" transform="matrix(1,0,0,1,815,614.5) translate(0 13.166666666666664)"/><use xlink:href="#C" transform="matrix(1,0,0,1,699,640.5) translate(0 13.211111111111109)"/><use xlink:href="#D" transform="matrix(1,0,0,1,815,640.5) translate(0 13.211111111111109)"/><use xlink:href="#E" transform="matrix(1,0,0,1,699,666.5) translate(0 13.211111111111109)"/><use xlink:href="#F" transform="matrix(1,0,0,1,815,666.5) translate(0 13.211111111111109)"/><use xlink:href="#G" transform="matrix(1,0,0,1,699,692.5) translate(0 13.211111111111109)"/><use xlink:href="#H" transform="matrix(1,0,0,1,815,692.5) translate(0 13.211111111111109)"/><use xlink:href="#u" transform="matrix(1,0,0,1,815,692.5) translate(104.18950617283942 13.211111111111109)"/><use xlink:href="#I" transform="matrix(1,0,0,1,699,718.5) translate(0 13.211111111111109)"/><use xlink:href="#J" transform="matrix(1,0,0,1,815,718.5) translate(0 13.211111111111109)"/><use xlink:href="#K" transform="matrix(1,0,0,1,665,744.5) translate(3.3583333333333414 13.211111111111109)"/><use xlink:href="#L" transform="matrix(1,0,0,1,699,744.5) translate(0 13.211111111111109)"/><use xlink:href="#M" transform="matrix(1,0,0,1,815,744.5) translate(0 13.211111111111109)"/><use xlink:href="#N" transform="matrix(1,0,0,1,815,744.5) translate(72.18333333333327 13.211111111111109)"/><path d="M639 755H305c-3.3 0-6-2.7-6-6V379.05c0-3.3 2.7-6 6-6h14" stroke="#5e5e5e" stroke-width="2" fill="none"/><path d="M649 745v20M659 755h-20M639 745v20M329 363.05v20M339 373.05h-20M319 363.05v20" stroke="#5e5e5e" stroke-width="2" fill="#fff"/><path d="M660 326c0-3.3 2.7-6 6-6h268c3.3 0 6 2.7 6 6v158c0 3.3-2.7 6-6 6H666c-3.3 0-6-2.7-6-6z" fill="#fff"/><path d="M660 326c0-3.3 2.7-6 6-6h268c3.3 0 6 2.7 6 6v158c0 3.3-2.7 6-6 6H666c-3.3 0-6-2.7-6-6zM660 360h280M694 360v130M810 360v130" stroke="#5e5e5e" stroke-width="2" fill="none"/><use xlink:href="#O" transform="matrix(1,0,0,1,670,320) translate(114.11111111111113 22.666666666666664)"/><use xlink:href="#b" transform="matrix(1,0,0,1,665,362.5) translate(3.1111111111111196 13.166666666666664)"/><use xlink:href="#c" transform="matrix(1,0,0,1,699,362.5) translate(0 13.166666666666664)"/><use xlink:href="#d" transform="matrix(1,0,0,1,815,362.5) translate(0 13.166666666666664)"/><use xlink:href="#P" transform="matrix(1,0,0,1,699,388.5) translate(0 13.166666666666664)"/><use xlink:href="#Q" transform="matrix(1,0,0,1,815,388.5) translate(0 13.166666666666664)"/><use xlink:href="#g" transform="matrix(1,0,0,1,815,388.5) translate(32.37037037037034 13.166666666666664)"/><use xlink:href="#R" transform="matrix(1,0,0,1,699,414.5) translate(0 13.211111111111109)"/><use xlink:href="#S" transform="matrix(1,0,0,1,815,414.5) translate(0 13.211111111111109)"/><use xlink:href="#T" transform="matrix(1,0,0,1,699,440.5) translate(0 13.211111111111109)"/><use xlink:href="#w" transform="matrix(1,0,0,1,815,440.5) translate(0 13.211111111111109)"/><use xlink:href="#u" transform="matrix(1,0,0,1,815,440.5) translate(40.591358024691324 13.211111111111109)"/><use xlink:href="#K" transform="matrix(1,0,0,1,665,466.5) translate(3.3583333333333414 13.211111111111109)"/><use xlink:href="#L" transform="matrix(1,0,0,1,699,466.5) translate(0 13.211111111111109)"/><g><use xlink:href="#M" transform="matrix(1,0,0,1,815,466.5) translate(0 13.211111111111109)"/><use xlink:href="#N" transform="matrix(1,0,0,1,815,466.5) translate(72.18333333333327 13.211111111111109)"/></g><path d="M639 477h-3.5c-3.3 0-6 2.7-6 6v145c0 3.3-2.7 6-6 6H305c-3.3 0-6-2.7-6-6V379.05c0-3.3 2.7-6 6-6h14" stroke="#5e5e5e" stroke-width="2" fill="none"/><path d="M649 467v20M659 477h-20M639 467v20M329 363.05v20M339 373.05h-20M319 363.05v20" stroke="#5e5e5e" stroke-width="2" fill="#fff"/><defs><path fill="#333" d="M210-169c-67 3-38 105-44 169h-31v-121c0-29-5-50-35-48C34-165 62-65 56 0H25l-1-190h30c1 10-1 24 2 32 10-44 99-50 107 0 11-21 27-35 58-36 85-2 47 119 55 194h-31v-121c0-29-5-49-35-48" id="U"/><path fill="#333" d="M100-194c63 0 86 42 84 106H49c0 40 14 67 53 68 26 1 43-12 49-29l28 8c-11 28-37 45-77 45C44 4 14-33 15-96c1-61 26-98 85-98zm52 81c6-60-76-77-97-28-3 7-6 17-6 28h103" id="V"/><path fill="#333" d="M59-47c-2 24 18 29 38 22v24C64 9 27 4 27-40v-127H5v-23h24l9-43h21v43h35v23H59v120" id="W"/><path fill="#333" d="M141-36C126-15 110 5 73 4 37 3 15-17 15-53c-1-64 63-63 125-63 3-35-9-54-41-54-24 1-41 7-42 31l-33-3c5-37 33-52 76-52 45 0 72 20 72 64v82c-1 20 7 32 28 27v20c-31 9-61-2-59-35zM48-53c0 20 12 33 32 33 41-3 63-29 60-74-43 2-92-5-92 41" id="X"/><g id="a"><use transform="matrix(0.037037037037037,0,0,0.037037037037037,0,0)" xlink:href="#U"/><use transform="matrix(0.037037037037037,0,0,0.037037037037037,11.074074074074064,0)" xlink:href="#V"/><use transform="matrix(0.037037037037037,0,0,0.037037037037037,18.481481481481463,0)" xlink:href="#W"/><use transform="matrix(0.037037037037037,0,0,0.037037037037037,22.185185185185162,0)" xlink:href="#X"/></g><path fill="#333" d="M30-248c87 1 191-15 191 75 0 78-77 80-158 76V0H30v-248zm33 125c57 0 124 11 124-50 0-59-68-47-124-48v98" id="Y"/><path fill="#333" d="M194 0L95-120 63-95V0H30v-248h33v124l119-124h40L117-140 236 0h-42" id="Z"/><g id="b"><use transform="matrix(0.037037037037037,0,0,0.037037037037037,0,0)" xlink:href="#Y"/><use transform="matrix(0.037037037037037,0,0,0.037037037037037,8.88888888888888,0)" xlink:href="#Z"/></g><path fill="#333" d="M24-231v-30h32v30H24zM24 0v-190h32V0H24" id="aa"/><path fill="#333" d="M85-194c31 0 48 13 60 33l-1-100h32l1 261h-30c-2-10 0-23-3-31C134-8 116 4 85 4 32 4 16-35 15-94c0-66 23-100 70-100zm9 24c-40 0-46 34-46 75 0 40 6 74 45 74 42 0 51-32 51-76 0-42-9-74-50-73" id="ab"/><g id="c"><use transform="matrix(0.037037037037037,0,0,0.037037037037037,0,0)" xlink:href="#aa"/><use transform="matrix(0.037037037037037,0,0,0.037037037037037,2.925925925925923,0)" xlink:href="#ab"/></g><path fill="#333" d="M185-189c-5-48-123-54-124 2 14 75 158 14 163 119 3 78-121 87-175 55-17-10-28-26-33-46l33-7c5 56 141 63 141-1 0-78-155-14-162-118-5-82 145-84 179-34 5 7 8 16 11 25" id="ac"/><path fill="#333" d="M30 0v-248h187v28H63v79h144v27H63v87h162V0H30" id="ad"/><path fill="#333" d="M233-177c-1 41-23 64-60 70L243 0h-38l-65-103H63V0H30v-248c88 3 205-21 203 71zM63-129c60-2 137 13 137-47 0-61-80-42-137-45v92" id="ae"/><path fill="#333" d="M33 0v-248h34V0H33" id="af"/><path fill="#333" d="M205 0l-28-72H64L36 0H1l101-248h38L239 0h-34zm-38-99l-47-123c-12 45-31 82-46 123h93" id="ag"/><path fill="#333" d="M30 0v-248h33v221h125V0H30" id="ah"/><g id="d"><use transform="matrix(0.037037037037037,0,0,0.037037037037037,0,0)" xlink:href="#ac"/><use transform="matrix(0.037037037037037,0,0,0.037037037037037,8.88888888888888,0)" xlink:href="#ad"/><use transform="matrix(0.037037037037037,0,0,0.037037037037037,17.77777777777776,0)" xlink:href="#ae"/><use transform="matrix(0.037037037037037,0,0,0.037037037037037,27.37037037037035,0)" xlink:href="#af"/><use transform="matrix(0.037037037037037,0,0,0.037037037037037,31.074074074074044,0)" xlink:href="#ag"/><use transform="matrix(0.037037037037037,0,0,0.037037037037037,39.962962962962926,0)" xlink:href="#ah"/></g><path fill="#333" d="M143 0L79-87 56-68V0H24v-261h32v163l83-92h37l-77 82L181 0h-38" id="ai"/><path fill="#333" d="M179-190L93 31C79 59 56 82 12 73V49c39 6 53-20 64-50L1-190h34L92-34l54-156h33" id="aj"/><g id="e"><use transform="matrix(0.037037037037037,0,0,0.037037037037037,0,0)" xlink:href="#U"/><use transform="matrix(0.037037037037037,0,0,0.037037037037037,11.074074074074064,0)" xlink:href="#V"/><use transform="matrix(0.037037037037037,0,0,0.037037037037037,18.481481481481463,0)" xlink:href="#W"/><use transform="matrix(0.037037037037037,0,0,0.037037037037037,22.185185185185162,0)" xlink:href="#X"/><use transform="matrix(0.037037037037037,0,0,0.037037037037037,29.592592592592563,0)" xlink:href="#ai"/><use transform="matrix(0.037037037037037,0,0,0.037037037037037,36.259259259259224,0)" xlink:href="#V"/><use transform="matrix(0.037037037037037,0,0,0.037037037037037,43.66666666666662,0)" xlink:href="#aj"/></g><path fill="#333" d="M240 0l2-218c-23 76-54 145-80 218h-23L58-218 59 0H30v-248h44l77 211c21-75 51-140 76-211h43V0h-30" id="ak"/><path fill="#333" d="M127-220V0H93v-220H8v-28h204v28h-85" id="al"/><path fill="#333" d="M137-103V0h-34v-103L8-248h37l75 118 75-118h37" id="am"/><path fill="#333" d="M68-38c1 34 0 65-14 84H32c9-13 17-26 17-46H33v-38h35" id="an"/><g id="f"><use transform="matrix(0.037037037037037,0,0,0.037037037037037,0,0)" xlink:href="#ak"/><use transform="matrix(0.037037037037037,0,0,0.037037037037037,11.074074074074064,0)" xlink:href="#ad"/><use transform="matrix(0.037037037037037,0,0,0.037037037037037,19.962962962962944,0)" xlink:href="#al"/><use transform="matrix(0.037037037037037,0,0,0.037037037037037,27.074074074074048,0)" xlink:href="#ag"/><use transform="matrix(0.037037037037037,0,0,0.037037037037037,35.962962962962926,0)" xlink:href="#Z"/><use transform="matrix(0.037037037037037,0,0,0.037037037037037,44.851851851851805,0)" xlink:href="#ad"/><use transform="matrix(0.037037037037037,0,0,0.037037037037037,53.74074074074069,0)" xlink:href="#am"/><use transform="matrix(0.037037037037037,0,0,0.037037037037037,60.92592592592586,0)" xlink:href="#an"/></g><path fill="#333" d="M232-93c-1 65-40 97-104 97C67 4 28-28 28-90v-158h33c8 89-33 224 67 224 102 0 64-133 71-224h33v155" id="ao"/><use transform="matrix(0.037037037037037,0,0,0.037037037037037,0,0)" xlink:href="#ao" id="g"/><path fill="#333" d="M100-194c62-1 85 37 85 99 1 63-27 99-86 99S16-35 15-95c0-66 28-99 85-99zM99-20c44 1 53-31 53-75 0-43-8-75-51-75s-53 32-53 75 10 74 51 75" id="ap"/><path fill="#333" d="M115-194c55 1 70 41 70 98S169 2 115 4C84 4 66-9 55-30l1 105H24l-1-265h31l2 30c10-21 28-34 59-34zm-8 174c40 0 45-34 45-75s-6-73-45-74c-42 0-51 32-51 76 0 43 10 73 51 73" id="aq"/><path fill="#333" d="M117-194c89-4 53 116 60 194h-32v-121c0-31-8-49-39-48C34-167 62-67 57 0H25l-1-190h30c1 10-1 24 2 32 11-22 29-35 61-36" id="ar"/><path fill="#333" d="M135-143c-3-34-86-38-87 0 15 53 115 12 119 90S17 21 10-45l28-5c4 36 97 45 98 0-10-56-113-15-118-90-4-57 82-63 122-42 12 7 21 19 24 35" id="as"/><g id="h"><use transform="matrix(0.037037037037037,0,0,0.037037037037037,0,0)" xlink:href="#ap"/><use transform="matrix(0.037037037037037,0,0,0.037037037037037,7.4074074074074,0)" xlink:href="#aq"/><use transform="matrix(0.037037037037037,0,0,0.037037037037037,14.8148148148148,0)" xlink:href="#V"/><use transform="matrix(0.037037037037037,0,0,0.037037037037037,22.2222222222222,0)" xlink:href="#ar"/><use transform="matrix(0.037037037037037,0,0,0.037037037037037,29.6296296296296,0)" xlink:href="#as"/></g><path fill="#333" d="M190 0L58-211 59 0H30v-248h39L202-35l-2-213h31V0h-41" id="at"/><path fill="#333" d="M143 4C61 4 22-44 18-125c-5-107 100-154 193-111 17 8 29 25 37 43l-32 9c-13-25-37-40-76-40-61 0-88 39-88 99 0 61 29 100 91 101 35 0 62-11 79-27v-45h-74v-28h105v86C228-13 192 4 143 4" id="au"/><g id="i"><use transform="matrix(0.037037037037037,0,0,0.037037037037037,0,0)" xlink:href="#af"/><use transform="matrix(0.037037037037037,0,0,0.037037037037037,3.7037037037037,0)" xlink:href="#at"/><use transform="matrix(0.037037037037037,0,0,0.037037037037037,13.296296296296283,0)" xlink:href="#al"/><use transform="matrix(0.037037037037037,0,0,0.037037037037037,21.407407407407387,0)" xlink:href="#ad"/><use transform="matrix(0.037037037037037,0,0,0.037037037037037,30.29629629629627,0)" xlink:href="#au"/><use transform="matrix(0.037037037037037,0,0,0.037037037037037,40.66666666666663,0)" xlink:href="#ad"/><use transform="matrix(0.037037037037037,0,0,0.037037037037037,49.55555555555551,0)" xlink:href="#ae"/></g><path d="M100-194c63 0 86 42 84 106H49c0 40 14 67 53 68 26 1 43-12 49-29l28 8c-11 28-37 45-77 45C44 4 14-33 15-96c1-61 26-98 85-98zm52 81c6-60-76-77-97-28-3 7-6 17-6 28h103" id="av"/><path d="M85-194c31 0 48 13 60 33l-1-100h32l1 261h-30c-2-10 0-23-3-31C134-8 116 4 85 4 32 4 16-35 15-94c0-66 23-100 70-100zm9 24c-40 0-46 34-46 75 0 40 6 74 45 74 42 0 51-32 51-76 0-42-9-74-50-73" id="aw"/><path d="M24-231v-30h32v30H24zM24 0v-190h32V0H24" id="ax"/><path d="M59-47c-2 24 18 29 38 22v24C64 9 27 4 27-40v-127H5v-23h24l9-43h21v43h35v23H59v120" id="ay"/><path d="M135-143c-3-34-86-38-87 0 15 53 115 12 119 90S17 21 10-45l28-5c4 36 97 45 98 0-10-56-113-15-118-90-4-57 82-63 122-42 12 7 21 19 24 35" id="az"/><g id="j"><use transform="matrix(0.03765432098765428,0,0,0.03765432098765428,0,0)" xlink:href="#av"/><use transform="matrix(0.03765432098765428,0,0,0.03765432098765428,7.530864197530857,0)" xlink:href="#aw"/><use transform="matrix(0.03765432098765428,0,0,0.03765432098765428,15.061728395061714,0)" xlink:href="#ax"/><use transform="matrix(0.03765432098765428,0,0,0.03765432098765428,18.036419753086403,0)" xlink:href="#ay"/><use transform="matrix(0.03765432098765428,0,0,0.03765432098765428,21.80185185185183,0)" xlink:href="#az"/></g><path d="M33 0v-248h34V0H33" id="aA"/><path d="M190 0L58-211 59 0H30v-248h39L202-35l-2-213h31V0h-41" id="aB"/><path d="M127-220V0H93v-220H8v-28h204v28h-85" id="aC"/><path d="M30 0v-248h187v28H63v79h144v27H63v87h162V0H30" id="aD"/><path d="M143 4C61 4 22-44 18-125c-5-107 100-154 193-111 17 8 29 25 37 43l-32 9c-13-25-37-40-76-40-61 0-88 39-88 99 0 61 29 100 91 101 35 0 62-11 79-27v-45h-74v-28h105v86C228-13 192 4 143 4" id="aE"/><path d="M233-177c-1 41-23 64-60 70L243 0h-38l-65-103H63V0H30v-248c88 3 205-21 203 71zM63-129c60-2 137 13 137-47 0-61-80-42-137-45v92" id="aF"/><g id="k"><use transform="matrix(0.03765432098765428,0,0,0.03765432098765428,0,0)" xlink:href="#aA"/><use transform="matrix(0.03765432098765428,0,0,0.03765432098765428,3.7654320987654284,0)" xlink:href="#aB"/><use transform="matrix(0.03765432098765428,0,0,0.03765432098765428,13.517901234567887,0)" xlink:href="#aC"/><use transform="matrix(0.03765432098765428,0,0,0.03765432098765428,21.76419753086417,0)" xlink:href="#aD"/><use transform="matrix(0.03765432098765428,0,0,0.03765432098765428,30.8012345679012,0)" xlink:href="#aE"/><use transform="matrix(0.03765432098765428,0,0,0.03765432098765428,41.344444444444406,0)" xlink:href="#aD"/><use transform="matrix(0.03765432098765428,0,0,0.03765432098765428,50.38148148148143,0)" xlink:href="#aF"/></g><path d="M-5 72V49h209v23H-5" id="aG"/><path d="M24 0v-261h32V0H24" id="aH"/><g id="l"><use transform="matrix(0.03765432098765428,0,0,0.03765432098765428,0,0)" xlink:href="#ax"/><use transform="matrix(0.03765432098765428,0,0,0.03765432098765428,2.9746913580246885,0)" xlink:href="#az"/><use transform="matrix(0.03765432098765428,0,0,0.03765432098765428,9.752469135802459,0)" xlink:href="#aG"/><use transform="matrix(0.03765432098765428,0,0,0.03765432098765428,17.283333333333317,0)" xlink:href="#aw"/><use transform="matrix(0.03765432098765428,0,0,0.03765432098765428,24.814197530864174,0)" xlink:href="#av"/><use transform="matrix(0.03765432098765428,0,0,0.03765432098765428,32.34506172839503,0)" xlink:href="#aH"/><use transform="matrix(0.03765432098765428,0,0,0.03765432098765428,35.319753086419716,0)" xlink:href="#av"/><use transform="matrix(0.03765432098765428,0,0,0.03765432098765428,42.85061728395056,0)" xlink:href="#ay"/><use transform="matrix(0.03765432098765428,0,0,0.03765432098765428,46.616049382716,0)" xlink:href="#av"/><use transform="matrix(0.03765432098765428,0,0,0.03765432098765428,54.14691358024686,0)" xlink:href="#aw"/></g><path d="M160-131c35 5 61 23 61 61C221 17 115-2 30 0v-248c76 3 177-17 177 60 0 33-19 50-47 57zm-97-11c50-1 110 9 110-42 0-47-63-36-110-37v79zm0 115c55-2 124 14 124-45 0-56-70-42-124-44v89" id="aI"/><path d="M140-251c81 0 123 46 123 126C263-46 219 4 140 4 59 4 17-45 17-125s42-126 123-126zm0 227c63 0 89-41 89-101s-29-99-89-99c-61 0-89 39-89 99S79-25 140-24" id="aJ"/><path d="M30 0v-248h33v221h125V0H30" id="aK"/><path d="M205 0l-28-72H64L36 0H1l101-248h38L239 0h-34zm-38-99l-47-123c-12 45-31 82-46 123h93" id="aL"/><g id="m"><use transform="matrix(0.03765432098765428,0,0,0.03765432098765428,0,0)" xlink:href="#aI"/><use transform="matrix(0.03765432098765428,0,0,0.03765432098765428,9.037037037037027,0)" xlink:href="#aJ"/><use transform="matrix(0.03765432098765428,0,0,0.03765432098765428,19.580246913580226,0)" xlink:href="#aJ"/><use transform="matrix(0.03765432098765428,0,0,0.03765432098765428,30.123456790123427,0)" xlink:href="#aK"/><use transform="matrix(0.03765432098765428,0,0,0.03765432098765428,37.65432098765429,0)" xlink:href="#aD"/><use transform="matrix(0.03765432098765428,0,0,0.03765432098765428,46.69135802469131,0)" xlink:href="#aL"/><use transform="matrix(0.03765432098765428,0,0,0.03765432098765428,55.728395061728335,0)" xlink:href="#aB"/></g><path d="M96-169c-40 0-48 33-48 73s9 75 48 75c24 0 41-14 43-38l32 2c-6 37-31 61-74 61-59 0-76-41-82-99-10-93 101-131 147-64 4 7 5 14 7 22l-32 3c-4-21-16-35-41-35" id="aM"/><path d="M114-163C36-179 61-72 57 0H25l-1-190h30c1 12-1 29 2 39 6-27 23-49 58-41v29" id="aN"/><path d="M141-36C126-15 110 5 73 4 37 3 15-17 15-53c-1-64 63-63 125-63 3-35-9-54-41-54-24 1-41 7-42 31l-33-3c5-37 33-52 76-52 45 0 72 20 72 64v82c-1 20 7 32 28 27v20c-31 9-61-2-59-35zM48-53c0 20 12 33 32 33 41-3 63-29 60-74-43 2-92-5-92 41" id="aO"/><g id="n"><use transform="matrix(0.03765432098765428,0,0,0.03765432098765428,0,0)" xlink:href="#aM"/><use transform="matrix(0.03765432098765428,0,0,0.03765432098765428,6.777777777777771,0)" xlink:href="#aN"/><use transform="matrix(0.03765432098765428,0,0,0.03765432098765428,11.258641975308631,0)" xlink:href="#av"/><use transform="matrix(0.03765432098765428,0,0,0.03765432098765428,18.789506172839488,0)" xlink:href="#aO"/><use transform="matrix(0.03765432098765428,0,0,0.03765432098765428,26.320370370370345,0)" xlink:href="#ay"/><use transform="matrix(0.03765432098765428,0,0,0.03765432098765428,30.08580246913577,0)" xlink:href="#av"/><use transform="matrix(0.03765432098765428,0,0,0.03765432098765428,37.61666666666663,0)" xlink:href="#aw"/><use transform="matrix(0.03765432098765428,0,0,0.03765432098765428,45.14753086419749,0)" xlink:href="#aG"/><use transform="matrix(0.03765432098765428,0,0,0.03765432098765428,52.67839506172835,0)" xlink:href="#aO"/><use transform="matrix(0.03765432098765428,0,0,0.03765432098765428,60.20925925925921,0)" xlink:href="#ay"/></g><path d="M240 0l2-218c-23 76-54 145-80 218h-23L58-218 59 0H30v-248h44l77 211c21-75 51-140 76-211h43V0h-30" id="aP"/><path d="M185-189c-5-48-123-54-124 2 14 75 158 14 163 119 3 78-121 87-175 55-17-10-28-26-33-46l33-7c5 56 141 63 141-1 0-78-155-14-162-118-5-82 145-84 179-34 5 7 8 16 11 25" id="aQ"/><path d="M30-248c87 1 191-15 191 75 0 78-77 80-158 76V0H30v-248zm33 125c57 0 124 11 124-50 0-59-68-47-124-48v98" id="aR"/><g id="o"><use transform="matrix(0.03765432098765428,0,0,0.03765432098765428,0,0)" xlink:href="#aC"/><use transform="matrix(0.03765432098765428,0,0,0.03765432098765428,8.246296296296288,0)" xlink:href="#aA"/><use transform="matrix(0.03765432098765428,0,0,0.03765432098765428,12.011728395061716,0)" xlink:href="#aP"/><use transform="matrix(0.03765432098765428,0,0,0.03765432098765428,23.270370370370348,0)" xlink:href="#aD"/><use transform="matrix(0.03765432098765428,0,0,0.03765432098765428,32.307407407407375,0)" xlink:href="#aQ"/><use transform="matrix(0.03765432098765428,0,0,0.03765432098765428,41.344444444444406,0)" xlink:href="#aC"/><use transform="matrix(0.03765432098765428,0,0,0.03765432098765428,48.574074074074026,0)" xlink:href="#aL"/><use transform="matrix(0.03765432098765428,0,0,0.03765432098765428,57.611111111111065,0)" xlink:href="#aP"/><use transform="matrix(0.03765432098765428,0,0,0.03765432098765428,68.86975308641969,0)" xlink:href="#aR"/></g><g id="p"><use transform="matrix(0.037654320987654304,0,0,0.037654320987654304,0,0)" xlink:href="#av"/><use transform="matrix(0.037654320987654304,0,0,0.037654320987654304,7.53086419753086,0)" xlink:href="#aw"/><use transform="matrix(0.037654320987654304,0,0,0.037654320987654304,15.06172839506172,0)" xlink:href="#ax"/><use transform="matrix(0.037654320987654304,0,0,0.037654320987654304,18.03641975308641,0)" xlink:href="#ay"/><use transform="matrix(0.037654320987654304,0,0,0.037654320987654304,21.801851851851843,0)" xlink:href="#av"/><use transform="matrix(0.037654320987654304,0,0,0.037654320987654304,29.332716049382697,0)" xlink:href="#aw"/><use transform="matrix(0.037654320987654304,0,0,0.037654320987654304,36.86358024691356,0)" xlink:href="#aG"/><use transform="matrix(0.037654320987654304,0,0,0.037654320987654304,44.39444444444442,0)" xlink:href="#aO"/><use transform="matrix(0.037654320987654304,0,0,0.037654320987654304,51.92530864197528,0)" xlink:href="#ay"/></g><path d="M68-38c1 34 0 65-14 84H32c9-13 17-26 17-46H33v-38h35" id="aS"/><g id="q"><use transform="matrix(0.037654320987654304,0,0,0.037654320987654304,0,0)" xlink:href="#aC"/><use transform="matrix(0.037654320987654304,0,0,0.037654320987654304,8.246296296296293,0)" xlink:href="#aA"/><use transform="matrix(0.037654320987654304,0,0,0.037654320987654304,12.011728395061724,0)" xlink:href="#aP"/><use transform="matrix(0.037654320987654304,0,0,0.037654320987654304,23.270370370370358,0)" xlink:href="#aD"/><use transform="matrix(0.037654320987654304,0,0,0.037654320987654304,32.30740740740739,0)" xlink:href="#aQ"/><use transform="matrix(0.037654320987654304,0,0,0.037654320987654304,41.34444444444442,0)" xlink:href="#aC"/><use transform="matrix(0.037654320987654304,0,0,0.037654320987654304,48.574074074074055,0)" xlink:href="#aL"/><use transform="matrix(0.037654320987654304,0,0,0.037654320987654304,57.61111111111108,0)" xlink:href="#aP"/><use transform="matrix(0.037654320987654304,0,0,0.037654320987654304,68.86975308641972,0)" xlink:href="#aR"/><use transform="matrix(0.037654320987654304,0,0,0.037654320987654304,76.17469135802466,0)" xlink:href="#aS"/></g><use transform="matrix(0.037654320987654304,0,0,0.037654320987654304,0,0)" xlink:href="#aB" id="r"/><g id="s"><use transform="matrix(0.03765432098765428,0,0,0.03765432098765428,0,0)" xlink:href="#aw"/><use transform="matrix(0.03765432098765428,0,0,0.03765432098765428,7.530864197530857,0)" xlink:href="#av"/><use transform="matrix(0.03765432098765428,0,0,0.03765432098765428,15.061728395061714,0)" xlink:href="#aH"/><use transform="matrix(0.03765432098765428,0,0,0.03765432098765428,18.036419753086403,0)" xlink:href="#av"/><use transform="matrix(0.03765432098765428,0,0,0.03765432098765428,25.56728395061726,0)" xlink:href="#ay"/><use transform="matrix(0.03765432098765428,0,0,0.03765432098765428,29.33271604938269,0)" xlink:href="#av"/><use transform="matrix(0.03765432098765428,0,0,0.03765432098765428,36.86358024691354,0)" xlink:href="#aw"/><use transform="matrix(0.03765432098765428,0,0,0.03765432098765428,44.394444444444396,0)" xlink:href="#aG"/><use transform="matrix(0.03765432098765428,0,0,0.03765432098765428,51.92530864197526,0)" xlink:href="#aO"/><use transform="matrix(0.03765432098765428,0,0,0.03765432098765428,59.456172839506124,0)" xlink:href="#ay"/></g><g id="t"><use transform="matrix(0.03765432098765428,0,0,0.03765432098765428,0,0)" xlink:href="#aC"/><use transform="matrix(0.03765432098765428,0,0,0.03765432098765428,8.246296296296288,0)" xlink:href="#aA"/><use transform="matrix(0.03765432098765428,0,0,0.03765432098765428,12.011728395061716,0)" xlink:href="#aP"/><use transform="matrix(0.03765432098765428,0,0,0.03765432098765428,23.270370370370348,0)" xlink:href="#aD"/><use transform="matrix(0.03765432098765428,0,0,0.03765432098765428,32.307407407407375,0)" xlink:href="#aQ"/><use transform="matrix(0.03765432098765428,0,0,0.03765432098765428,41.344444444444406,0)" xlink:href="#aC"/><use transform="matrix(0.03765432098765428,0,0,0.03765432098765428,48.574074074074026,0)" xlink:href="#aL"/><use transform="matrix(0.03765432098765428,0,0,0.03765432098765428,57.611111111111065,0)" xlink:href="#aP"/><use transform="matrix(0.03765432098765428,0,0,0.03765432098765428,68.86975308641969,0)" xlink:href="#aR"/><use transform="matrix(0.03765432098765428,0,0,0.03765432098765428,76.17469135802462,0)" xlink:href="#aS"/></g><use transform="matrix(0.03765432098765428,0,0,0.03765432098765428,0,0)" xlink:href="#aB" id="u"/><path d="M100-194c62-1 85 37 85 99 1 63-27 99-86 99S16-35 15-95c0-66 28-99 85-99zM99-20c44 1 53-31 53-75 0-43-8-75-51-75s-53 32-53 75 10 74 51 75" id="aT"/><path d="M117-194c89-4 53 116 60 194h-32v-121c0-31-8-49-39-48C34-167 62-67 57 0H25l-1-190h30c1 10-1 24 2 32 11-22 29-35 61-36" id="aU"/><g id="v"><use transform="matrix(0.03765432098765428,0,0,0.03765432098765428,0,0)" xlink:href="#aO"/><use transform="matrix(0.03765432098765428,0,0,0.03765432098765428,7.530864197530857,0)" xlink:href="#aw"/><use transform="matrix(0.03765432098765428,0,0,0.03765432098765428,15.061728395061714,0)" xlink:href="#aw"/><use transform="matrix(0.03765432098765428,0,0,0.03765432098765428,22.59259259259257,0)" xlink:href="#ax"/><use transform="matrix(0.03765432098765428,0,0,0.03765432098765428,25.56728395061726,0)" xlink:href="#ay"/><use transform="matrix(0.03765432098765428,0,0,0.03765432098765428,29.33271604938269,0)" xlink:href="#ax"/><use transform="matrix(0.03765432098765428,0,0,0.03765432098765428,32.307407407407375,0)" xlink:href="#aT"/><use transform="matrix(0.03765432098765428,0,0,0.03765432098765428,39.83827160493823,0)" xlink:href="#aU"/><use transform="matrix(0.03765432098765428,0,0,0.03765432098765428,47.36913580246909,0)" xlink:href="#aO"/><use transform="matrix(0.03765432098765428,0,0,0.03765432098765428,54.899999999999956,0)" xlink:href="#aH"/><use transform="matrix(0.03765432098765428,0,0,0.03765432098765428,57.874691358024634,0)" xlink:href="#aG"/><use transform="matrix(0.03765432098765428,0,0,0.03765432098765428,65.4055555555555,0)" xlink:href="#aU"/><use transform="matrix(0.03765432098765428,0,0,0.03765432098765428,72.93641975308635,0)" xlink:href="#aT"/><use transform="matrix(0.03765432098765428,0,0,0.03765432098765428,80.46728395061722,0)" xlink:href="#ay"/><use transform="matrix(0.03765432098765428,0,0,0.03765432098765428,84.23271604938265,0)" xlink:href="#av"/><use transform="matrix(0.03765432098765428,0,0,0.03765432098765428,91.7635802469135,0)" xlink:href="#az"/></g><path d="M195 0l-74-108L45 0H8l94-129-87-119h37l69 98 67-98h37l-84 118L233 0h-38" id="aV"/><g id="w"><use transform="matrix(0.03765432098765428,0,0,0.03765432098765428,0,0)" xlink:href="#aC"/><use transform="matrix(0.03765432098765428,0,0,0.03765432098765428,8.246296296296288,0)" xlink:href="#aD"/><use transform="matrix(0.03765432098765428,0,0,0.03765432098765428,17.283333333333317,0)" xlink:href="#aV"/><use transform="matrix(0.03765432098765428,0,0,0.03765432098765428,26.320370370370345,0)" xlink:href="#aC"/><use transform="matrix(0.03765432098765428,0,0,0.03765432098765428,33.060493827160464,0)" xlink:href="#aS"/></g><path fill="#333" d="M84 4C-5 8 30-112 23-190h32v120c0 31 7 50 39 49 72-2 45-101 50-169h31l1 190h-30c-1-10 1-25-2-33-11 22-28 36-60 37" id="aW"/><path fill="#333" d="M114-163C36-179 61-72 57 0H25l-1-190h30c1 12-1 29 2 39 6-27 23-49 58-41v29" id="aX"/><g id="x"><use transform="matrix(0.037037037037037,0,0,0.037037037037037,0,0)" xlink:href="#aW"/><use transform="matrix(0.037037037037037,0,0,0.037037037037037,7.4074074074074,0)" xlink:href="#as"/><use transform="matrix(0.037037037037037,0,0,0.037037037037037,14.07407407407406,0)" xlink:href="#V"/><use transform="matrix(0.037037037037037,0,0,0.037037037037037,21.48148148148146,0)" xlink:href="#aX"/><use transform="matrix(0.037037037037037,0,0,0.037037037037037,25.888888888888864,0)" xlink:href="#as"/></g><g id="y"><use transform="matrix(0.037037037037037,0,0,0.037037037037037,0,0)" xlink:href="#aW"/><use transform="matrix(0.037037037037037,0,0,0.037037037037037,7.4074074074074,0)" xlink:href="#as"/><use transform="matrix(0.037037037037037,0,0,0.037037037037037,14.07407407407406,0)" xlink:href="#V"/><use transform="matrix(0.037037037037037,0,0,0.037037037037037,21.48148148148146,0)" xlink:href="#aX"/><use transform="matrix(0.037037037037037,0,0,0.037037037037037,25.888888888888864,0)" xlink:href="#ar"/><use transform="matrix(0.037037037037037,0,0,0.037037037037037,33.29629629629626,0)" xlink:href="#X"/><use transform="matrix(0.037037037037037,0,0,0.037037037037037,40.70370370370367,0)" xlink:href="#U"/><use transform="matrix(0.037037037037037,0,0,0.037037037037037,51.777777777777715,0)" xlink:href="#V"/></g><g id="z"><use transform="matrix(0.037037037037037,0,0,0.037037037037037,0,0)" xlink:href="#ao"/><use transform="matrix(0.037037037037037,0,0,0.037037037037037,9.592592592592583,0)" xlink:href="#ac"/><use transform="matrix(0.037037037037037,0,0,0.037037037037037,18.481481481481463,0)" xlink:href="#ad"/><use transform="matrix(0.037037037037037,0,0,0.037037037037037,27.37037037037035,0)" xlink:href="#ae"/><use transform="matrix(0.037037037037037,0,0,0.037037037037037,36.962962962962926,0)" xlink:href="#at"/><use transform="matrix(0.037037037037037,0,0,0.037037037037037,46.55555555555551,0)" xlink:href="#ag"/><use transform="matrix(0.037037037037037,0,0,0.037037037037037,55.444444444444386,0)" xlink:href="#ak"/><use transform="matrix(0.037037037037037,0,0,0.037037037037037,66.51851851851845,0)" xlink:href="#ad"/><use transform="matrix(0.037037037037037,0,0,0.037037037037037,75.40740740740733,0)" xlink:href="#an"/></g><path fill="#333" d="M24 0v-261h32V0H24" id="aY"/><path fill="#333" d="M-5 72V49h209v23H-5" id="aZ"/><g id="A"><use transform="matrix(0.037037037037037,0,0,0.037037037037037,0,0)" xlink:href="#V"/><use transform="matrix(0.037037037037037,0,0,0.037037037037037,7.4074074074074,0)" xlink:href="#U"/><use transform="matrix(0.037037037037037,0,0,0.037037037037037,18.481481481481463,0)" xlink:href="#X"/><use transform="matrix(0.037037037037037,0,0,0.037037037037037,25.888888888888864,0)" xlink:href="#aa"/><use transform="matrix(0.037037037037037,0,0,0.037037037037037,28.814814814814785,0)" xlink:href="#aY"/><use transform="matrix(0.037037037037037,0,0,0.037037037037037,31.740740740740712,0)" xlink:href="#aZ"/><use transform="matrix(0.037037037037037,0,0,0.037037037037037,39.14814814814811,0)" xlink:href="#X"/><use transform="matrix(0.037037037037037,0,0,0.037037037037037,46.55555555555551,0)" xlink:href="#ab"/><use transform="matrix(0.037037037037037,0,0,0.037037037037037,53.9629629629629,0)" xlink:href="#ab"/><use transform="matrix(0.037037037037037,0,0,0.037037037037037,61.3703703703703,0)" xlink:href="#aX"/><use transform="matrix(0.037037037037037,0,0,0.037037037037037,65.7777777777777,0)" xlink:href="#V"/><use transform="matrix(0.037037037037037,0,0,0.037037037037037,73.1851851851851,0)" xlink:href="#as"/><use transform="matrix(0.037037037037037,0,0,0.037037037037037,79.85185185185176,0)" xlink:href="#as"/></g><path fill="#333" d="M30-248c118-7 216 8 213 122C240-48 200 0 122 0H30v-248zM63-27c89 8 146-16 146-99s-60-101-146-95v194" id="ba"/><g id="B"><use transform="matrix(0.037037037037037,0,0,0.037037037037037,0,0)" xlink:href="#ad"/><use transform="matrix(0.037037037037037,0,0,0.037037037037037,8.88888888888888,0)" xlink:href="#ak"/><use transform="matrix(0.037037037037037,0,0,0.037037037037037,19.962962962962944,0)" xlink:href="#ag"/><use transform="matrix(0.037037037037037,0,0,0.037037037037037,28.851851851851826,0)" xlink:href="#af"/><use transform="matrix(0.037037037037037,0,0,0.037037037037037,32.55555555555553,0)" xlink:href="#ah"/><use transform="matrix(0.037037037037037,0,0,0.037037037037037,39.962962962962926,0)" xlink:href="#aZ"/><use transform="matrix(0.037037037037037,0,0,0.037037037037037,47.370370370370324,0)" xlink:href="#ag"/><use transform="matrix(0.037037037037037,0,0,0.037037037037037,56.2592592592592,0)" xlink:href="#ba"/><use transform="matrix(0.037037037037037,0,0,0.037037037037037,65.85185185185179,0)" xlink:href="#ba"/><use transform="matrix(0.037037037037037,0,0,0.037037037037037,75.44444444444437,0)" xlink:href="#ae"/><use transform="matrix(0.037037037037037,0,0,0.037037037037037,85.03703703703695,0)" xlink:href="#ad"/><use transform="matrix(0.037037037037037,0,0,0.037037037037037,93.92592592592584,0)" xlink:href="#ac"/><use transform="matrix(0.037037037037037,0,0,0.037037037037037,102.81481481481472,0)" xlink:href="#ac"/></g><path d="M101-234c-31-9-42 10-38 44h38v23H63V0H32v-167H5v-23h27c-7-52 17-82 69-68v24" id="bb"/><path d="M210-169c-67 3-38 105-44 169h-31v-121c0-29-5-50-35-48C34-165 62-65 56 0H25l-1-190h30c1 10-1 24 2 32 10-44 99-50 107 0 11-21 27-35 58-36 85-2 47 119 55 194h-31v-121c0-29-5-49-35-48" id="bc"/><g id="C"><use transform="matrix(0.03765432098765428,0,0,0.03765432098765428,0,0)" xlink:href="#bb"/><use transform="matrix(0.03765432098765428,0,0,0.03765432098765428,3.7654320987654284,0)" xlink:href="#ax"/><use transform="matrix(0.03765432098765428,0,0,0.03765432098765428,6.740123456790117,0)" xlink:href="#aN"/><use transform="matrix(0.03765432098765428,0,0,0.03765432098765428,11.220987654320977,0)" xlink:href="#az"/><use transform="matrix(0.03765432098765428,0,0,0.03765432098765428,17.998765432098747,0)" xlink:href="#ay"/><use transform="matrix(0.03765432098765428,0,0,0.03765432098765428,21.76419753086417,0)" xlink:href="#aG"/><use transform="matrix(0.03765432098765428,0,0,0.03765432098765428,29.295061728395034,0)" xlink:href="#aU"/><use transform="matrix(0.03765432098765428,0,0,0.03765432098765428,36.82592592592589,0)" xlink:href="#aO"/><use transform="matrix(0.03765432098765428,0,0,0.03765432098765428,44.35679012345675,0)" xlink:href="#bc"/><use transform="matrix(0.03765432098765428,0,0,0.03765432098765428,55.61543209876538,0)" xlink:href="#av"/></g><path d="M137 0h-34L2-248h35l83 218 83-218h36" id="bd"/><path d="M212-179c-10-28-35-45-73-45-59 0-87 40-87 99 0 60 29 101 89 101 43 0 62-24 78-52l27 14C228-24 195 4 139 4 59 4 22-46 18-125c-6-104 99-153 187-111 19 9 31 26 39 46" id="be"/><path d="M197 0v-115H63V0H30v-248h33v105h134v-105h34V0h-34" id="bf"/><path d="M87 75C49 33 22-17 22-94c0-76 28-126 65-167h31c-38 41-64 92-64 168S80 34 118 75H87" id="bg"/><path d="M54-142c48-35 137-8 131 61C196 18 31 33 14-55l32-4c7 23 22 37 52 37 35-1 51-22 54-58 4-55-73-65-99-34H22l8-134h141v27H59" id="bh"/><path d="M101-251c68 0 85 55 85 127S166 4 100 4C33 4 14-52 14-124c0-73 17-127 87-127zm-1 229c47 0 54-49 54-102s-4-102-53-102c-51 0-55 48-55 102 0 53 5 102 54 102" id="bi"/><path d="M33-261c38 41 65 92 65 168S71 34 33 75H2C39 34 66-17 66-93S39-220 2-261h31" id="bj"/><g id="D"><use transform="matrix(0.03765432098765428,0,0,0.03765432098765428,0,0)" xlink:href="#bd"/><use transform="matrix(0.03765432098765428,0,0,0.03765432098765428,8.020370370370362,0)" xlink:href="#aL"/><use transform="matrix(0.03765432098765428,0,0,0.03765432098765428,17.05740740740739,0)" xlink:href="#aF"/><use transform="matrix(0.03765432098765428,0,0,0.03765432098765428,26.809876543209846,0)" xlink:href="#be"/><use transform="matrix(0.03765432098765428,0,0,0.03765432098765428,36.5623456790123,0)" xlink:href="#bf"/><use transform="matrix(0.03765432098765428,0,0,0.03765432098765428,46.31481481481476,0)" xlink:href="#aL"/><use transform="matrix(0.03765432098765428,0,0,0.03765432098765428,55.351851851851784,0)" xlink:href="#aF"/><use transform="matrix(0.03765432098765428,0,0,0.03765432098765428,65.10432098765425,0)" xlink:href="#bg"/><use transform="matrix(0.03765432098765428,0,0,0.03765432098765428,69.58518518518511,0)" xlink:href="#bh"/><use transform="matrix(0.03765432098765428,0,0,0.03765432098765428,77.11604938271597,0)" xlink:href="#bi"/><use transform="matrix(0.03765432098765428,0,0,0.03765432098765428,84.64691358024683,0)" xlink:href="#bj"/></g><g id="E"><use transform="matrix(0.03765432098765428,0,0,0.03765432098765428,0,0)" xlink:href="#aH"/><use transform="matrix(0.03765432098765428,0,0,0.03765432098765428,2.9746913580246885,0)" xlink:href="#aO"/><use transform="matrix(0.03765432098765428,0,0,0.03765432098765428,10.505555555555546,0)" xlink:href="#az"/><use transform="matrix(0.03765432098765428,0,0,0.03765432098765428,17.283333333333317,0)" xlink:href="#ay"/><use transform="matrix(0.03765432098765428,0,0,0.03765432098765428,21.048765432098747,0)" xlink:href="#aG"/><use transform="matrix(0.03765432098765428,0,0,0.03765432098765428,28.579629629629604,0)" xlink:href="#aU"/><use transform="matrix(0.03765432098765428,0,0,0.03765432098765428,36.11049382716046,0)" xlink:href="#aO"/><use transform="matrix(0.03765432098765428,0,0,0.03765432098765428,43.641358024691314,0)" xlink:href="#bc"/><use transform="matrix(0.03765432098765428,0,0,0.03765432098765428,54.899999999999956,0)" xlink:href="#av"/></g><path d="M64 0c3-98 48-159 88-221H18v-27h164v26C143-157 98-101 97 0H64" id="bk"/><g id="F"><use transform="matrix(0.03765432098765428,0,0,0.03765432098765428,0,0)" xlink:href="#bd"/><use transform="matrix(0.03765432098765428,0,0,0.03765432098765428,8.020370370370362,0)" xlink:href="#aL"/><use transform="matrix(0.03765432098765428,0,0,0.03765432098765428,17.05740740740739,0)" xlink:href="#aF"/><use transform="matrix(0.03765432098765428,0,0,0.03765432098765428,26.809876543209846,0)" xlink:href="#be"/><use transform="matrix(0.03765432098765428,0,0,0.03765432098765428,36.5623456790123,0)" xlink:href="#bf"/><use transform="matrix(0.03765432098765428,0,0,0.03765432098765428,46.31481481481476,0)" xlink:href="#aL"/><use transform="matrix(0.03765432098765428,0,0,0.03765432098765428,55.351851851851784,0)" xlink:href="#aF"/><use transform="matrix(0.03765432098765428,0,0,0.03765432098765428,65.10432098765425,0)" xlink:href="#bg"/><use transform="matrix(0.03765432098765428,0,0,0.03765432098765428,69.58518518518511,0)" xlink:href="#bk"/><use transform="matrix(0.03765432098765428,0,0,0.03765432098765428,77.11604938271597,0)" xlink:href="#bi"/><use transform="matrix(0.03765432098765428,0,0,0.03765432098765428,84.64691358024683,0)" xlink:href="#bj"/></g><path d="M106-169C34-169 62-67 57 0H25v-261h32l-1 103c12-21 28-36 61-36 89 0 53 116 60 194h-32v-121c2-32-8-49-39-48" id="bl"/><g id="G"><use transform="matrix(0.03765432098765428,0,0,0.03765432098765428,0,0)" xlink:href="#aT"/><use transform="matrix(0.03765432098765428,0,0,0.03765432098765428,7.530864197530857,0)" xlink:href="#ay"/><use transform="matrix(0.03765432098765428,0,0,0.03765432098765428,11.296296296296285,0)" xlink:href="#bl"/><use transform="matrix(0.03765432098765428,0,0,0.03765432098765428,18.827160493827144,0)" xlink:href="#av"/><use transform="matrix(0.03765432098765428,0,0,0.03765432098765428,26.358024691358,0)" xlink:href="#aN"/><use transform="matrix(0.03765432098765428,0,0,0.03765432098765428,30.83888888888886,0)" xlink:href="#aG"/><use transform="matrix(0.03765432098765428,0,0,0.03765432098765428,38.36975308641972,0)" xlink:href="#aU"/><use transform="matrix(0.03765432098765428,0,0,0.03765432098765428,45.90061728395058,0)" xlink:href="#aO"/><use transform="matrix(0.03765432098765428,0,0,0.03765432098765428,53.43148148148144,0)" xlink:href="#bc"/><use transform="matrix(0.03765432098765428,0,0,0.03765432098765428,64.69012345679008,0)" xlink:href="#av"/><use transform="matrix(0.03765432098765428,0,0,0.03765432098765428,72.22098765432094,0)" xlink:href="#az"/></g><path d="M27 0v-27h64v-190l-56 39v-29l58-41h29v221h61V0H27" id="bm"/><path d="M101-251c82-7 93 87 43 132L82-64C71-53 59-42 53-27h129V0H18c2-99 128-94 128-182 0-28-16-43-45-43s-46 15-49 41l-32-3c6-41 34-60 81-64" id="bn"/><g id="H"><use transform="matrix(0.03765432098765428,0,0,0.03765432098765428,0,0)" xlink:href="#bd"/><use transform="matrix(0.03765432098765428,0,0,0.03765432098765428,8.020370370370362,0)" xlink:href="#aL"/><use transform="matrix(0.03765432098765428,0,0,0.03765432098765428,17.05740740740739,0)" xlink:href="#aF"/><use transform="matrix(0.03765432098765428,0,0,0.03765432098765428,26.809876543209846,0)" xlink:href="#be"/><use transform="matrix(0.03765432098765428,0,0,0.03765432098765428,36.5623456790123,0)" xlink:href="#bf"/><use transform="matrix(0.03765432098765428,0,0,0.03765432098765428,46.31481481481476,0)" xlink:href="#aL"/><use transform="matrix(0.03765432098765428,0,0,0.03765432098765428,55.351851851851784,0)" xlink:href="#aF"/><use transform="matrix(0.03765432098765428,0,0,0.03765432098765428,65.10432098765425,0)" xlink:href="#bg"/><use transform="matrix(0.03765432098765428,0,0,0.03765432098765428,69.58518518518511,0)" xlink:href="#bm"/><use transform="matrix(0.03765432098765428,0,0,0.03765432098765428,77.11604938271597,0)" xlink:href="#bn"/><use transform="matrix(0.03765432098765428,0,0,0.03765432098765428,84.64691358024683,0)" xlink:href="#bi"/><use transform="matrix(0.03765432098765428,0,0,0.03765432098765428,92.17777777777768,0)" xlink:href="#bj"/><use transform="matrix(0.03765432098765428,0,0,0.03765432098765428,96.65864197530856,0)" xlink:href="#aS"/></g><path d="M115-194c55 1 70 41 70 98S169 2 115 4C84 4 66-9 55-30l1 105H24l-1-265h31l2 30c10-21 28-34 59-34zm-8 174c40 0 45-34 45-75s-6-73-45-74c-42 0-51 32-51 76 0 43 10 73 51 73" id="bo"/><path d="M206 0h-36l-40-164L89 0H53L-1-190h32L70-26l43-164h34l41 164 42-164h31" id="bp"/><g id="I"><use transform="matrix(0.03765432098765428,0,0,0.03765432098765428,0,0)" xlink:href="#bo"/><use transform="matrix(0.03765432098765428,0,0,0.03765432098765428,7.530864197530857,0)" xlink:href="#aO"/><use transform="matrix(0.03765432098765428,0,0,0.03765432098765428,15.061728395061714,0)" xlink:href="#az"/><use transform="matrix(0.03765432098765428,0,0,0.03765432098765428,21.839506172839485,0)" xlink:href="#az"/><use transform="matrix(0.03765432098765428,0,0,0.03765432098765428,28.617283950617256,0)" xlink:href="#bp"/><use transform="matrix(0.03765432098765428,0,0,0.03765432098765428,38.36975308641971,0)" xlink:href="#aT"/><use transform="matrix(0.03765432098765428,0,0,0.03765432098765428,45.900617283950574,0)" xlink:href="#aN"/><use transform="matrix(0.03765432098765428,0,0,0.03765432098765428,50.38148148148143,0)" xlink:href="#aw"/></g><g id="J"><use transform="matrix(0.03765432098765428,0,0,0.03765432098765428,0,0)" xlink:href="#aQ"/><use transform="matrix(0.03765432098765428,0,0,0.03765432098765428,9.037037037037027,0)" xlink:href="#bf"/><use transform="matrix(0.03765432098765428,0,0,0.03765432098765428,18.789506172839488,0)" xlink:href="#aL"/><use transform="matrix(0.03765432098765428,0,0,0.03765432098765428,27.826543209876515,0)" xlink:href="#bm"/></g><path d="M63-220v92h138v28H63V0H30v-248h175v28H63" id="bq"/><path d="M194 0L95-120 63-95V0H30v-248h33v124l119-124h40L117-140 236 0h-42" id="br"/><g id="K"><use transform="matrix(0.03765432098765428,0,0,0.03765432098765428,0,0)" xlink:href="#bq"/><use transform="matrix(0.03765432098765428,0,0,0.03765432098765428,8.246296296296288,0)" xlink:href="#br"/></g><g id="L"><use transform="matrix(0.03765432098765428,0,0,0.03765432098765428,0,0)" xlink:href="#bc"/><use transform="matrix(0.03765432098765428,0,0,0.03765432098765428,11.258641975308631,0)" xlink:href="#av"/><use transform="matrix(0.03765432098765428,0,0,0.03765432098765428,18.789506172839488,0)" xlink:href="#ay"/><use transform="matrix(0.03765432098765428,0,0,0.03765432098765428,22.554938271604918,0)" xlink:href="#aO"/><use transform="matrix(0.03765432098765428,0,0,0.03765432098765428,30.085802469135775,0)" xlink:href="#aG"/><use transform="matrix(0.03765432098765428,0,0,0.03765432098765428,37.61666666666663,0)" xlink:href="#ax"/><use transform="matrix(0.03765432098765428,0,0,0.03765432098765428,40.59135802469132,0)" xlink:href="#aw"/></g><g id="M"><use transform="matrix(0.03765432098765428,0,0,0.03765432098765428,0,0)" xlink:href="#aQ"/><use transform="matrix(0.03765432098765428,0,0,0.03765432098765428,9.037037037037027,0)" xlink:href="#aP"/><use transform="matrix(0.03765432098765428,0,0,0.03765432098765428,20.29567901234566,0)" xlink:href="#aL"/><use transform="matrix(0.03765432098765428,0,0,0.03765432098765428,29.332716049382686,0)" xlink:href="#aK"/><use transform="matrix(0.03765432098765428,0,0,0.03765432098765428,36.86358024691354,0)" xlink:href="#aK"/><use transform="matrix(0.03765432098765428,0,0,0.03765432098765428,44.394444444444396,0)" xlink:href="#aA"/><use transform="matrix(0.03765432098765428,0,0,0.03765432098765428,48.15987654320983,0)" xlink:href="#aB"/><use transform="matrix(0.03765432098765428,0,0,0.03765432098765428,57.91234567901229,0)" xlink:href="#aC"/><use transform="matrix(0.03765432098765428,0,0,0.03765432098765428,64.6524691358024,0)" xlink:href="#aS"/></g><path d="M232-93c-1 65-40 97-104 97C67 4 28-28 28-90v-158h33c8 89-33 224 67 224 102 0 64-133 71-224h33v155" id="bs"/><use transform="matrix(0.03765432098765428,0,0,0.03765432098765428,0,0)" xlink:href="#bs" id="N"/><g id="O"><use transform="matrix(0.037037037037037,0,0,0.037037037037037,0,0)" xlink:href="#aa"/><use transform="matrix(0.037037037037037,0,0,0.037037037037037,2.925925925925923,0)" xlink:href="#W"/><use transform="matrix(0.037037037037037,0,0,0.037037037037037,6.629629629629623,0)" xlink:href="#V"/><use transform="matrix(0.037037037037037,0,0,0.037037037037037,14.037037037037024,0)" xlink:href="#U"/><use transform="matrix(0.037037037037037,0,0,0.037037037037037,25.111111111111086,0)" xlink:href="#as"/></g><g id="P"><use transform="matrix(0.037037037037037,0,0,0.037037037037037,0,0)" xlink:href="#ai"/><use transform="matrix(0.037037037037037,0,0,0.037037037037037,6.66666666666666,0)" xlink:href="#V"/><use transform="matrix(0.037037037037037,0,0,0.037037037037037,14.07407407407406,0)" xlink:href="#aj"/></g><g id="Q"><use transform="matrix(0.037037037037037,0,0,0.037037037037037,0,0)" xlink:href="#Z"/><use transform="matrix(0.037037037037037,0,0,0.037037037037037,8.88888888888888,0)" xlink:href="#ad"/><use transform="matrix(0.037037037037037,0,0,0.037037037037037,17.77777777777776,0)" xlink:href="#am"/><use transform="matrix(0.037037037037037,0,0,0.037037037037037,24.962962962962944,0)" xlink:href="#an"/></g><g id="R"><use transform="matrix(0.03765432098765428,0,0,0.03765432098765428,0,0)" xlink:href="#aU"/><use transform="matrix(0.03765432098765428,0,0,0.03765432098765428,7.530864197530857,0)" xlink:href="#aO"/><use transform="matrix(0.03765432098765428,0,0,0.03765432098765428,15.061728395061714,0)" xlink:href="#bc"/><use transform="matrix(0.03765432098765428,0,0,0.03765432098765428,26.320370370370345,0)" xlink:href="#av"/></g><g id="S"><use transform="matrix(0.03765432098765428,0,0,0.03765432098765428,0,0)" xlink:href="#bd"/><use transform="matrix(0.03765432098765428,0,0,0.03765432098765428,8.020370370370362,0)" xlink:href="#aL"/><use transform="matrix(0.03765432098765428,0,0,0.03765432098765428,17.05740740740739,0)" xlink:href="#aF"/><use transform="matrix(0.03765432098765428,0,0,0.03765432098765428,26.809876543209846,0)" xlink:href="#be"/><use transform="matrix(0.03765432098765428,0,0,0.03765432098765428,36.5623456790123,0)" xlink:href="#bf"/><use transform="matrix(0.03765432098765428,0,0,0.03765432098765428,46.31481481481476,0)" xlink:href="#aL"/><use transform="matrix(0.03765432098765428,0,0,0.03765432098765428,55.351851851851784,0)" xlink:href="#aF"/><use transform="matrix(0.03765432098765428,0,0,0.03765432098765428,65.10432098765425,0)" xlink:href="#bg"/><use transform="matrix(0.03765432098765428,0,0,0.03765432098765428,69.58518518518511,0)" xlink:href="#bn"/><use transform="matrix(0.03765432098765428,0,0,0.03765432098765428,77.11604938271597,0)" xlink:href="#bh"/><use transform="matrix(0.03765432098765428,0,0,0.03765432098765428,84.64691358024683,0)" xlink:href="#bi"/><use transform="matrix(0.03765432098765428,0,0,0.03765432098765428,92.17777777777768,0)" xlink:href="#bj"/></g><g id="T"><use transform="matrix(0.03765432098765428,0,0,0.03765432098765428,0,0)" xlink:href="#aw"/><use transform="matrix(0.03765432098765428,0,0,0.03765432098765428,7.530864197530857,0)" xlink:href="#av"/><use transform="matrix(0.03765432098765428,0,0,0.03765432098765428,15.061728395061714,0)" xlink:href="#az"/><use transform="matrix(0.03765432098765428,0,0,0.03765432098765428,21.839506172839485,0)" xlink:href="#aM"/><use transform="matrix(0.03765432098765428,0,0,0.03765432098765428,28.617283950617256,0)" xlink:href="#aN"/><use transform="matrix(0.03765432098765428,0,0,0.03765432098765428,33.09814814814811,0)" xlink:href="#ax"/><use transform="matrix(0.03765432098765428,0,0,0.03765432098765428,36.0728395061728,0)" xlink:href="#bo"/><use transform="matrix(0.03765432098765428,0,0,0.03765432098765428,43.60370370370366,0)" xlink:href="#ay"/><use transform="matrix(0.03765432098765428,0,0,0.03765432098765428,47.36913580246909,0)" xlink:href="#ax"/><use transform="matrix(0.03765432098765428,0,0,0.03765432098765428,50.343827160493774,0)" xlink:href="#aT"/><use transform="matrix(0.03765432098765428,0,0,0.03765432098765428,57.874691358024634,0)" xlink:href="#aU"/></g></defs></g></svg>