<svg xmlns="http://www.w3.org/2000/svg" xmlns:xlink="http://www.w3.org/1999/xlink" xmlns:lucid="lucid" width="1040" height="413"><g transform="translate(-420 -280)" lucid:page-tab-id="0_0"><path d="M440 306c0-3.3 2.7-6 6-6h408c3.3 0 6 2.7 6 6v361c0 3.3-2.7 6-6 6H446c-3.3 0-6-2.7-6-6z" fill="#fff"/><path d="M440 306c0-3.3 2.7-6 6-6h408c3.3 0 6 2.7 6 6v361c0 3.3-2.7 6-6 6H446c-3.3 0-6-2.7-6-6zM440 340h420M500 340v333M680 340v333" stroke="#5e5e5e" stroke-width="3" fill="none"/><use xlink:href="#a" transform="matrix(1,0,0,1,450,300) translate(175.83950617283952 24.444444444444443)"/><use xlink:href="#b" transform="matrix(1,0,0,1,445,342.5) translate(10.18518518518519 20.444444444444443)"/><use xlink:href="#c" transform="matrix(1,0,0,1,505,342.5) translate(0 20.444444444444443)"/><use xlink:href="#d" transform="matrix(1,0,0,1,685,342.5) translate(0 20.444444444444443)"/><use xlink:href="#e" transform="matrix(1,0,0,1,505,379.5) translate(0 20.444444444444443)"/><use xlink:href="#f" transform="matrix(1,0,0,1,685,379.5) translate(0 20.444444444444443)"/><use xlink:href="#g" transform="matrix(1,0,0,1,685,379.5) translate(113.88888888888884 20.444444444444443)"/><use xlink:href="#h" transform="matrix(1,0,0,1,505,416.5) translate(0 20.444444444444443)"/><use xlink:href="#i" transform="matrix(1,0,0,1,685,416.5) translate(0 20.444444444444443)"/><use xlink:href="#j" transform="matrix(1,0,0,1,505,453.5) translate(0 20.488888888888887)"/><use xlink:href="#k" transform="matrix(1,0,0,1,685,453.5) translate(0 20.488888888888887)"/><use xlink:href="#l" transform="matrix(1,0,0,1,505,490.5) translate(0 20.488888888888887)"/><use xlink:href="#m" transform="matrix(1,0,0,1,685,490.5) translate(0 20.488888888888887)"/><use xlink:href="#n" transform="matrix(1,0,0,1,505,527.5) translate(0 20.488888888888887)"/><use xlink:href="#o" transform="matrix(1,0,0,1,685,527.5) translate(0 20.488888888888887)"/><use xlink:href="#p" transform="matrix(1,0,0,1,505,564.5) translate(0 20.488888888888887)"/><use xlink:href="#q" transform="matrix(1,0,0,1,685,564.5) translate(0 20.488888888888887)"/><use xlink:href="#r" transform="matrix(1,0,0,1,685,564.5) translate(138.5944444444444 20.488888888888887)"/><use xlink:href="#s" transform="matrix(1,0,0,1,505,601.5) translate(0 20.488888888888887)"/><use xlink:href="#t" transform="matrix(1,0,0,1,685,601.5) translate(0 20.488888888888887)"/><use xlink:href="#u" transform="matrix(1,0,0,1,685,601.5) translate(138.59444444444438 20.488888888888887)"/><use xlink:href="#v" transform="matrix(1,0,0,1,505,638.5) translate(0 20.488888888888887)"/><use xlink:href="#w" transform="matrix(1,0,0,1,685,638.5) translate(0 20.488888888888887)"/><use xlink:href="#u" transform="matrix(1,0,0,1,685,638.5) translate(67.20864197530861 20.488888888888887)"/><path d="M960 306c0-3.3 2.7-6 6-6h468c3.3 0 6 2.7 6 6v324c0 3.3-2.7 6-6 6H966c-3.3 0-6-2.7-6-6z" fill="#fff"/><path d="M960 306c0-3.3 2.7-6 6-6h468c3.3 0 6 2.7 6 6v324c0 3.3-2.7 6-6 6H966c-3.3 0-6-2.7-6-6zM960 340h480M1020 340v296M1230 340v296" stroke="#5e5e5e" stroke-width="3" fill="none"/><use xlink:href="#x" transform="matrix(1,0,0,1,970,300) translate(202.87037037037038 24.444444444444443)"/><use xlink:href="#b" transform="matrix(1,0,0,1,965,342.5) translate(10.18518518518519 20.444444444444443)"/><use xlink:href="#c" transform="matrix(1,0,0,1,1025,342.5) translate(0 20.444444444444443)"/><use xlink:href="#d" transform="matrix(1,0,0,1,1235,342.5) translate(0 20.444444444444443)"/><use xlink:href="#y" transform="matrix(1,0,0,1,1025,379.5) translate(0 20.444444444444443)"/><use xlink:href="#z" transform="matrix(1,0,0,1,1235,379.5) translate(0 20.444444444444443)"/><use xlink:href="#g" transform="matrix(1,0,0,1,1235,379.5) translate(158.4567901234567 20.444444444444443)"/><use xlink:href="#A" transform="matrix(1,0,0,1,1025,416.5) translate(0 20.444444444444443)"/><use xlink:href="#B" transform="matrix(1,0,0,1,1235,416.5) translate(0 20.444444444444443)"/><use xlink:href="#C" transform="matrix(1,0,0,1,1025,453.5) translate(0 20.488888888888887)"/><use xlink:href="#D" transform="matrix(1,0,0,1,1235,453.5) translate(0 20.488888888888887)"/><use xlink:href="#E" transform="matrix(1,0,0,1,1025,490.5) translate(0 20.488888888888887)"/><use xlink:href="#F" transform="matrix(1,0,0,1,1235,490.5) translate(0 20.488888888888887)"/><use xlink:href="#G" transform="matrix(1,0,0,1,1025,527.5) translate(0 20.488888888888887)"/><use xlink:href="#H" transform="matrix(1,0,0,1,1235,527.5) translate(0 20.488888888888887)"/><use xlink:href="#u" transform="matrix(1,0,0,1,1235,527.5) translate(172.5104938271604 20.488888888888887)"/><use xlink:href="#I" transform="matrix(1,0,0,1,1025,564.5) translate(0 20.488888888888887)"/><use xlink:href="#J" transform="matrix(1,0,0,1,1235,564.5) translate(0 20.488888888888887)"/><use xlink:href="#K" transform="matrix(1,0,0,1,1025,601.5) translate(0 20.488888888888887)"/><use xlink:href="#L" transform="matrix(1,0,0,1,1235,601.5) translate(0 20.488888888888887)"/><use xlink:href="#M" transform="matrix(1,0,0,1,1235,601.5) translate(119.51666666666662 20.488888888888887)"/><path d="M938.5 617.57H916c-3.3 0-6-2.68-6-6V364.42c0-3.3-2.7-6-6-6h-22.5" stroke="#5e5e5e" stroke-width="2" fill="none"/><path d="M948.5 607.57v20M958.5 617.57h-20M938.5 607.57v20M871.5 368.42v-20M861.5 358.42h20M881.5 368.42v-20" stroke="#5e5e5e" stroke-width="2" fill="#fff"/><defs><path fill="#333" d="M210-169c-67 3-38 105-44 169h-31v-121c0-29-5-50-35-48C34-165 62-65 56 0H25l-1-190h30c1 10-1 24 2 32 10-44 99-50 107 0 11-21 27-35 58-36 85-2 47 119 55 194h-31v-121c0-29-5-49-35-48" id="N"/><path fill="#333" d="M100-194c63 0 86 42 84 106H49c0 40 14 67 53 68 26 1 43-12 49-29l28 8c-11 28-37 45-77 45C44 4 14-33 15-96c1-61 26-98 85-98zm52 81c6-60-76-77-97-28-3 7-6 17-6 28h103" id="O"/><path fill="#333" d="M59-47c-2 24 18 29 38 22v24C64 9 27 4 27-40v-127H5v-23h24l9-43h21v43h35v23H59v120" id="P"/><path fill="#333" d="M141-36C126-15 110 5 73 4 37 3 15-17 15-53c-1-64 63-63 125-63 3-35-9-54-41-54-24 1-41 7-42 31l-33-3c5-37 33-52 76-52 45 0 72 20 72 64v82c-1 20 7 32 28 27v20c-31 9-61-2-59-35zM48-53c0 20 12 33 32 33 41-3 63-29 60-74-43 2-92-5-92 41" id="Q"/><g id="a"><use transform="matrix(0.06172839506172837,0,0,0.06172839506172837,0,0)" xlink:href="#N"/><use transform="matrix(0.06172839506172837,0,0,0.06172839506172837,18.456790123456784,0)" xlink:href="#O"/><use transform="matrix(0.06172839506172837,0,0,0.06172839506172837,30.802469135802458,0)" xlink:href="#P"/><use transform="matrix(0.06172839506172837,0,0,0.06172839506172837,36.975308641975296,0)" xlink:href="#Q"/></g><path fill="#333" d="M30-248c87 1 191-15 191 75 0 78-77 80-158 76V0H30v-248zm33 125c57 0 124 11 124-50 0-59-68-47-124-48v98" id="R"/><path fill="#333" d="M194 0L95-120 63-95V0H30v-248h33v124l119-124h40L117-140 236 0h-42" id="S"/><g id="b"><use transform="matrix(0.06172839506172837,0,0,0.06172839506172837,0,0)" xlink:href="#R"/><use transform="matrix(0.06172839506172837,0,0,0.06172839506172837,14.81481481481481,0)" xlink:href="#S"/></g><path fill="#333" d="M24-231v-30h32v30H24zM24 0v-190h32V0H24" id="T"/><path fill="#333" d="M85-194c31 0 48 13 60 33l-1-100h32l1 261h-30c-2-10 0-23-3-31C134-8 116 4 85 4 32 4 16-35 15-94c0-66 23-100 70-100zm9 24c-40 0-46 34-46 75 0 40 6 74 45 74 42 0 51-32 51-76 0-42-9-74-50-73" id="U"/><g id="c"><use transform="matrix(0.06172839506172837,0,0,0.06172839506172837,0,0)" xlink:href="#T"/><use transform="matrix(0.06172839506172837,0,0,0.06172839506172837,4.876543209876541,0)" xlink:href="#U"/></g><path fill="#333" d="M185-189c-5-48-123-54-124 2 14 75 158 14 163 119 3 78-121 87-175 55-17-10-28-26-33-46l33-7c5 56 141 63 141-1 0-78-155-14-162-118-5-82 145-84 179-34 5 7 8 16 11 25" id="V"/><path fill="#333" d="M30 0v-248h187v28H63v79h144v27H63v87h162V0H30" id="W"/><path fill="#333" d="M233-177c-1 41-23 64-60 70L243 0h-38l-65-103H63V0H30v-248c88 3 205-21 203 71zM63-129c60-2 137 13 137-47 0-61-80-42-137-45v92" id="X"/><path fill="#333" d="M33 0v-248h34V0H33" id="Y"/><path fill="#333" d="M205 0l-28-72H64L36 0H1l101-248h38L239 0h-34zm-38-99l-47-123c-12 45-31 82-46 123h93" id="Z"/><path fill="#333" d="M30 0v-248h33v221h125V0H30" id="aa"/><g id="d"><use transform="matrix(0.06172839506172837,0,0,0.06172839506172837,0,0)" xlink:href="#V"/><use transform="matrix(0.06172839506172837,0,0,0.06172839506172837,14.81481481481481,0)" xlink:href="#W"/><use transform="matrix(0.06172839506172837,0,0,0.06172839506172837,29.62962962962962,0)" xlink:href="#X"/><use transform="matrix(0.06172839506172837,0,0,0.06172839506172837,45.617283950617264,0)" xlink:href="#Y"/><use transform="matrix(0.06172839506172837,0,0,0.06172839506172837,51.7901234567901,0)" xlink:href="#Z"/><use transform="matrix(0.06172839506172837,0,0,0.06172839506172837,66.60493827160491,0)" xlink:href="#aa"/></g><path fill="#333" d="M143 0L79-87 56-68V0H24v-261h32v163l83-92h37l-77 82L181 0h-38" id="ab"/><path fill="#333" d="M179-190L93 31C79 59 56 82 12 73V49c39 6 53-20 64-50L1-190h34L92-34l54-156h33" id="ac"/><g id="e"><use transform="matrix(0.061728395061728364,0,0,0.061728395061728364,0,0)" xlink:href="#N"/><use transform="matrix(0.061728395061728364,0,0,0.061728395061728364,18.45679012345678,0)" xlink:href="#O"/><use transform="matrix(0.061728395061728364,0,0,0.061728395061728364,30.802469135802454,0)" xlink:href="#P"/><use transform="matrix(0.061728395061728364,0,0,0.061728395061728364,36.97530864197529,0)" xlink:href="#Q"/><use transform="matrix(0.061728395061728364,0,0,0.061728395061728364,49.32098765432096,0)" xlink:href="#ab"/><use transform="matrix(0.061728395061728364,0,0,0.061728395061728364,60.432098765432066,0)" xlink:href="#O"/><use transform="matrix(0.061728395061728364,0,0,0.061728395061728364,72.77777777777774,0)" xlink:href="#ac"/></g><path fill="#333" d="M240 0l2-218c-23 76-54 145-80 218h-23L58-218 59 0H30v-248h44l77 211c21-75 51-140 76-211h43V0h-30" id="ad"/><path fill="#333" d="M127-220V0H93v-220H8v-28h204v28h-85" id="ae"/><path fill="#333" d="M137-103V0h-34v-103L8-248h37l75 118 75-118h37" id="af"/><path fill="#333" d="M68-38c1 34 0 65-14 84H32c9-13 17-26 17-46H33v-38h35" id="ag"/><g id="f"><use transform="matrix(0.06172839506172837,0,0,0.06172839506172837,0,0)" xlink:href="#ad"/><use transform="matrix(0.06172839506172837,0,0,0.06172839506172837,18.456790123456784,0)" xlink:href="#W"/><use transform="matrix(0.06172839506172837,0,0,0.06172839506172837,33.271604938271594,0)" xlink:href="#ae"/><use transform="matrix(0.06172839506172837,0,0,0.06172839506172837,45.12345679012344,0)" xlink:href="#Z"/><use transform="matrix(0.06172839506172837,0,0,0.06172839506172837,59.93827160493825,0)" xlink:href="#S"/><use transform="matrix(0.06172839506172837,0,0,0.06172839506172837,74.75308641975306,0)" xlink:href="#W"/><use transform="matrix(0.06172839506172837,0,0,0.06172839506172837,89.56790123456787,0)" xlink:href="#af"/><use transform="matrix(0.06172839506172837,0,0,0.06172839506172837,101.54320987654317,0)" xlink:href="#ag"/></g><path fill="#333" d="M232-93c-1 65-40 97-104 97C67 4 28-28 28-90v-158h33c8 89-33 224 67 224 102 0 64-133 71-224h33v155" id="ah"/><use transform="matrix(0.06172839506172837,0,0,0.06172839506172837,0,0)" xlink:href="#ah" id="g"/><path fill="#333" d="M100-194c62-1 85 37 85 99 1 63-27 99-86 99S16-35 15-95c0-66 28-99 85-99zM99-20c44 1 53-31 53-75 0-43-8-75-51-75s-53 32-53 75 10 74 51 75" id="ai"/><path fill="#333" d="M115-194c55 1 70 41 70 98S169 2 115 4C84 4 66-9 55-30l1 105H24l-1-265h31l2 30c10-21 28-34 59-34zm-8 174c40 0 45-34 45-75s-6-73-45-74c-42 0-51 32-51 76 0 43 10 73 51 73" id="aj"/><path fill="#333" d="M117-194c89-4 53 116 60 194h-32v-121c0-31-8-49-39-48C34-167 62-67 57 0H25l-1-190h30c1 10-1 24 2 32 11-22 29-35 61-36" id="ak"/><path fill="#333" d="M135-143c-3-34-86-38-87 0 15 53 115 12 119 90S17 21 10-45l28-5c4 36 97 45 98 0-10-56-113-15-118-90-4-57 82-63 122-42 12 7 21 19 24 35" id="al"/><g id="h"><use transform="matrix(0.061728395061728364,0,0,0.061728395061728364,0,0)" xlink:href="#ai"/><use transform="matrix(0.061728395061728364,0,0,0.061728395061728364,12.345679012345673,0)" xlink:href="#aj"/><use transform="matrix(0.061728395061728364,0,0,0.061728395061728364,24.691358024691347,0)" xlink:href="#O"/><use transform="matrix(0.061728395061728364,0,0,0.061728395061728364,37.037037037037024,0)" xlink:href="#ak"/><use transform="matrix(0.061728395061728364,0,0,0.061728395061728364,49.382716049382694,0)" xlink:href="#al"/></g><path fill="#333" d="M190 0L58-211 59 0H30v-248h39L202-35l-2-213h31V0h-41" id="am"/><path fill="#333" d="M143 4C61 4 22-44 18-125c-5-107 100-154 193-111 17 8 29 25 37 43l-32 9c-13-25-37-40-76-40-61 0-88 39-88 99 0 61 29 100 91 101 35 0 62-11 79-27v-45h-74v-28h105v86C228-13 192 4 143 4" id="an"/><g id="i"><use transform="matrix(0.06172839506172837,0,0,0.06172839506172837,0,0)" xlink:href="#Y"/><use transform="matrix(0.06172839506172837,0,0,0.06172839506172837,6.172839506172837,0)" xlink:href="#am"/><use transform="matrix(0.06172839506172837,0,0,0.06172839506172837,22.160493827160487,0)" xlink:href="#ae"/><use transform="matrix(0.06172839506172837,0,0,0.06172839506172837,35.679012345679,0)" xlink:href="#W"/><use transform="matrix(0.06172839506172837,0,0,0.06172839506172837,50.49382716049381,0)" xlink:href="#an"/><use transform="matrix(0.06172839506172837,0,0,0.06172839506172837,67.77777777777774,0)" xlink:href="#W"/><use transform="matrix(0.06172839506172837,0,0,0.06172839506172837,82.59259259259255,0)" xlink:href="#X"/></g><path d="M100-194c63 0 86 42 84 106H49c0 40 14 67 53 68 26 1 43-12 49-29l28 8c-11 28-37 45-77 45C44 4 14-33 15-96c1-61 26-98 85-98zm52 81c6-60-76-77-97-28-3 7-6 17-6 28h103" id="ao"/><path d="M85-194c31 0 48 13 60 33l-1-100h32l1 261h-30c-2-10 0-23-3-31C134-8 116 4 85 4 32 4 16-35 15-94c0-66 23-100 70-100zm9 24c-40 0-46 34-46 75 0 40 6 74 45 74 42 0 51-32 51-76 0-42-9-74-50-73" id="ap"/><path d="M24-231v-30h32v30H24zM24 0v-190h32V0H24" id="aq"/><path d="M59-47c-2 24 18 29 38 22v24C64 9 27 4 27-40v-127H5v-23h24l9-43h21v43h35v23H59v120" id="ar"/><path d="M135-143c-3-34-86-38-87 0 15 53 115 12 119 90S17 21 10-45l28-5c4 36 97 45 98 0-10-56-113-15-118-90-4-57 82-63 122-42 12 7 21 19 24 35" id="as"/><g id="j"><use transform="matrix(0.06234567901234565,0,0,0.06234567901234565,0,0)" xlink:href="#ao"/><use transform="matrix(0.06234567901234565,0,0,0.06234567901234565,12.46913580246913,0)" xlink:href="#ap"/><use transform="matrix(0.06234567901234565,0,0,0.06234567901234565,24.93827160493826,0)" xlink:href="#aq"/><use transform="matrix(0.06234567901234565,0,0,0.06234567901234565,29.863580246913568,0)" xlink:href="#ar"/><use transform="matrix(0.06234567901234565,0,0,0.06234567901234565,36.098148148148134,0)" xlink:href="#as"/></g><path d="M33 0v-248h34V0H33" id="at"/><path d="M190 0L58-211 59 0H30v-248h39L202-35l-2-213h31V0h-41" id="au"/><path d="M127-220V0H93v-220H8v-28h204v28h-85" id="av"/><path d="M30 0v-248h187v28H63v79h144v27H63v87h162V0H30" id="aw"/><path d="M143 4C61 4 22-44 18-125c-5-107 100-154 193-111 17 8 29 25 37 43l-32 9c-13-25-37-40-76-40-61 0-88 39-88 99 0 61 29 100 91 101 35 0 62-11 79-27v-45h-74v-28h105v86C228-13 192 4 143 4" id="ax"/><path d="M233-177c-1 41-23 64-60 70L243 0h-38l-65-103H63V0H30v-248c88 3 205-21 203 71zM63-129c60-2 137 13 137-47 0-61-80-42-137-45v92" id="ay"/><g id="k"><use transform="matrix(0.06234567901234565,0,0,0.06234567901234565,0,0)" xlink:href="#at"/><use transform="matrix(0.06234567901234565,0,0,0.06234567901234565,6.234567901234565,0)" xlink:href="#au"/><use transform="matrix(0.06234567901234565,0,0,0.06234567901234565,22.38209876543209,0)" xlink:href="#av"/><use transform="matrix(0.06234567901234565,0,0,0.06234567901234565,36.03580246913579,0)" xlink:href="#aw"/><use transform="matrix(0.06234567901234565,0,0,0.06234567901234565,50.99876543209874,0)" xlink:href="#ax"/><use transform="matrix(0.06234567901234565,0,0,0.06234567901234565,68.45555555555552,0)" xlink:href="#aw"/><use transform="matrix(0.06234567901234565,0,0,0.06234567901234565,83.41851851851848,0)" xlink:href="#ay"/></g><path d="M-5 72V49h209v23H-5" id="az"/><path d="M24 0v-261h32V0H24" id="aA"/><g id="l"><use transform="matrix(0.06234567901234565,0,0,0.06234567901234565,0,0)" xlink:href="#aq"/><use transform="matrix(0.06234567901234565,0,0,0.06234567901234565,4.925308641975307,0)" xlink:href="#as"/><use transform="matrix(0.06234567901234565,0,0,0.06234567901234565,16.147530864197524,0)" xlink:href="#az"/><use transform="matrix(0.06234567901234565,0,0,0.06234567901234565,28.616666666666653,0)" xlink:href="#ap"/><use transform="matrix(0.06234567901234565,0,0,0.06234567901234565,41.085802469135785,0)" xlink:href="#ao"/><use transform="matrix(0.06234567901234565,0,0,0.06234567901234565,53.55493827160492,0)" xlink:href="#aA"/><use transform="matrix(0.06234567901234565,0,0,0.06234567901234565,58.480246913580224,0)" xlink:href="#ao"/><use transform="matrix(0.06234567901234565,0,0,0.06234567901234565,70.94938271604936,0)" xlink:href="#ar"/><use transform="matrix(0.06234567901234565,0,0,0.06234567901234565,77.18395061728393,0)" xlink:href="#ao"/><use transform="matrix(0.06234567901234565,0,0,0.06234567901234565,89.65308641975305,0)" xlink:href="#ap"/></g><path d="M160-131c35 5 61 23 61 61C221 17 115-2 30 0v-248c76 3 177-17 177 60 0 33-19 50-47 57zm-97-11c50-1 110 9 110-42 0-47-63-36-110-37v79zm0 115c55-2 124 14 124-45 0-56-70-42-124-44v89" id="aB"/><path d="M140-251c81 0 123 46 123 126C263-46 219 4 140 4 59 4 17-45 17-125s42-126 123-126zm0 227c63 0 89-41 89-101s-29-99-89-99c-61 0-89 39-89 99S79-25 140-24" id="aC"/><path d="M30 0v-248h33v221h125V0H30" id="aD"/><path d="M205 0l-28-72H64L36 0H1l101-248h38L239 0h-34zm-38-99l-47-123c-12 45-31 82-46 123h93" id="aE"/><g id="m"><use transform="matrix(0.06234567901234565,0,0,0.06234567901234565,0,0)" xlink:href="#aB"/><use transform="matrix(0.06234567901234565,0,0,0.06234567901234565,14.962962962962957,0)" xlink:href="#aC"/><use transform="matrix(0.06234567901234565,0,0,0.06234567901234565,32.41975308641974,0)" xlink:href="#aC"/><use transform="matrix(0.06234567901234565,0,0,0.06234567901234565,49.87654320987652,0)" xlink:href="#aD"/><use transform="matrix(0.06234567901234565,0,0,0.06234567901234565,62.345679012345656,0)" xlink:href="#aw"/><use transform="matrix(0.06234567901234565,0,0,0.06234567901234565,77.30864197530862,0)" xlink:href="#aE"/><use transform="matrix(0.06234567901234565,0,0,0.06234567901234565,92.27160493827158,0)" xlink:href="#au"/></g><path d="M96-169c-40 0-48 33-48 73s9 75 48 75c24 0 41-14 43-38l32 2c-6 37-31 61-74 61-59 0-76-41-82-99-10-93 101-131 147-64 4 7 5 14 7 22l-32 3c-4-21-16-35-41-35" id="aF"/><path d="M114-163C36-179 61-72 57 0H25l-1-190h30c1 12-1 29 2 39 6-27 23-49 58-41v29" id="aG"/><path d="M141-36C126-15 110 5 73 4 37 3 15-17 15-53c-1-64 63-63 125-63 3-35-9-54-41-54-24 1-41 7-42 31l-33-3c5-37 33-52 76-52 45 0 72 20 72 64v82c-1 20 7 32 28 27v20c-31 9-61-2-59-35zM48-53c0 20 12 33 32 33 41-3 63-29 60-74-43 2-92-5-92 41" id="aH"/><g id="n"><use transform="matrix(0.06234567901234565,0,0,0.06234567901234565,0,0)" xlink:href="#aF"/><use transform="matrix(0.06234567901234565,0,0,0.06234567901234565,11.222222222222218,0)" xlink:href="#aG"/><use transform="matrix(0.06234567901234565,0,0,0.06234567901234565,18.64135802469135,0)" xlink:href="#ao"/><use transform="matrix(0.06234567901234565,0,0,0.06234567901234565,31.110493827160482,0)" xlink:href="#aH"/><use transform="matrix(0.06234567901234565,0,0,0.06234567901234565,43.579629629629615,0)" xlink:href="#ar"/><use transform="matrix(0.06234567901234565,0,0,0.06234567901234565,49.81419753086418,0)" xlink:href="#ao"/><use transform="matrix(0.06234567901234565,0,0,0.06234567901234565,62.28333333333331,0)" xlink:href="#ap"/><use transform="matrix(0.06234567901234565,0,0,0.06234567901234565,74.75246913580244,0)" xlink:href="#az"/><use transform="matrix(0.06234567901234565,0,0,0.06234567901234565,87.22160493827157,0)" xlink:href="#aH"/><use transform="matrix(0.06234567901234565,0,0,0.06234567901234565,99.6907407407407,0)" xlink:href="#ar"/></g><path d="M240 0l2-218c-23 76-54 145-80 218h-23L58-218 59 0H30v-248h44l77 211c21-75 51-140 76-211h43V0h-30" id="aI"/><path d="M185-189c-5-48-123-54-124 2 14 75 158 14 163 119 3 78-121 87-175 55-17-10-28-26-33-46l33-7c5 56 141 63 141-1 0-78-155-14-162-118-5-82 145-84 179-34 5 7 8 16 11 25" id="aJ"/><path d="M30-248c87 1 191-15 191 75 0 78-77 80-158 76V0H30v-248zm33 125c57 0 124 11 124-50 0-59-68-47-124-48v98" id="aK"/><g id="o"><use transform="matrix(0.06234567901234565,0,0,0.06234567901234565,0,0)" xlink:href="#av"/><use transform="matrix(0.06234567901234565,0,0,0.06234567901234565,13.653703703703698,0)" xlink:href="#at"/><use transform="matrix(0.06234567901234565,0,0,0.06234567901234565,19.888271604938264,0)" xlink:href="#aI"/><use transform="matrix(0.06234567901234565,0,0,0.06234567901234565,38.52962962962961,0)" xlink:href="#aw"/><use transform="matrix(0.06234567901234565,0,0,0.06234567901234565,53.492592592592565,0)" xlink:href="#aJ"/><use transform="matrix(0.06234567901234565,0,0,0.06234567901234565,68.45555555555552,0)" xlink:href="#av"/><use transform="matrix(0.06234567901234565,0,0,0.06234567901234565,80.42592592592588,0)" xlink:href="#aE"/><use transform="matrix(0.06234567901234565,0,0,0.06234567901234565,95.38888888888884,0)" xlink:href="#aI"/><use transform="matrix(0.06234567901234565,0,0,0.06234567901234565,114.03024691358019,0)" xlink:href="#aK"/></g><g id="p"><use transform="matrix(0.06234567901234567,0,0,0.06234567901234567,0,0)" xlink:href="#ao"/><use transform="matrix(0.06234567901234567,0,0,0.06234567901234567,12.469135802469133,0)" xlink:href="#ap"/><use transform="matrix(0.06234567901234567,0,0,0.06234567901234567,24.938271604938265,0)" xlink:href="#aq"/><use transform="matrix(0.06234567901234567,0,0,0.06234567901234567,29.86358024691357,0)" xlink:href="#ar"/><use transform="matrix(0.06234567901234567,0,0,0.06234567901234567,36.09814814814814,0)" xlink:href="#ao"/><use transform="matrix(0.06234567901234567,0,0,0.06234567901234567,48.56728395061727,0)" xlink:href="#ap"/><use transform="matrix(0.06234567901234567,0,0,0.06234567901234567,61.036419753086406,0)" xlink:href="#az"/><use transform="matrix(0.06234567901234567,0,0,0.06234567901234567,73.50555555555553,0)" xlink:href="#aH"/><use transform="matrix(0.06234567901234567,0,0,0.06234567901234567,85.97469135802467,0)" xlink:href="#ar"/></g><path d="M68-38c1 34 0 65-14 84H32c9-13 17-26 17-46H33v-38h35" id="aL"/><g id="q"><use transform="matrix(0.06234567901234567,0,0,0.06234567901234567,0,0)" xlink:href="#av"/><use transform="matrix(0.06234567901234567,0,0,0.06234567901234567,13.653703703703702,0)" xlink:href="#at"/><use transform="matrix(0.06234567901234567,0,0,0.06234567901234567,19.888271604938268,0)" xlink:href="#aI"/><use transform="matrix(0.06234567901234567,0,0,0.06234567901234567,38.529629629629625,0)" xlink:href="#aw"/><use transform="matrix(0.06234567901234567,0,0,0.06234567901234567,53.49259259259259,0)" xlink:href="#aJ"/><use transform="matrix(0.06234567901234567,0,0,0.06234567901234567,68.45555555555555,0)" xlink:href="#av"/><use transform="matrix(0.06234567901234567,0,0,0.06234567901234567,80.42592592592591,0)" xlink:href="#aE"/><use transform="matrix(0.06234567901234567,0,0,0.06234567901234567,95.38888888888887,0)" xlink:href="#aI"/><use transform="matrix(0.06234567901234567,0,0,0.06234567901234567,114.03024691358023,0)" xlink:href="#aK"/><use transform="matrix(0.06234567901234567,0,0,0.06234567901234567,126.1253086419753,0)" xlink:href="#aL"/></g><use transform="matrix(0.06234567901234567,0,0,0.06234567901234567,0,0)" xlink:href="#au" id="r"/><g id="s"><use transform="matrix(0.06234567901234565,0,0,0.06234567901234565,0,0)" xlink:href="#ap"/><use transform="matrix(0.06234567901234565,0,0,0.06234567901234565,12.46913580246913,0)" xlink:href="#ao"/><use transform="matrix(0.06234567901234565,0,0,0.06234567901234565,24.93827160493826,0)" xlink:href="#aA"/><use transform="matrix(0.06234567901234565,0,0,0.06234567901234565,29.863580246913568,0)" xlink:href="#ao"/><use transform="matrix(0.06234567901234565,0,0,0.06234567901234565,42.3327160493827,0)" xlink:href="#ar"/><use transform="matrix(0.06234567901234565,0,0,0.06234567901234565,48.56728395061726,0)" xlink:href="#ao"/><use transform="matrix(0.06234567901234565,0,0,0.06234567901234565,61.03641975308639,0)" xlink:href="#ap"/><use transform="matrix(0.06234567901234565,0,0,0.06234567901234565,73.50555555555552,0)" xlink:href="#az"/><use transform="matrix(0.06234567901234565,0,0,0.06234567901234565,85.97469135802464,0)" xlink:href="#aH"/><use transform="matrix(0.06234567901234565,0,0,0.06234567901234565,98.44382716049377,0)" xlink:href="#ar"/></g><g id="t"><use transform="matrix(0.06234567901234565,0,0,0.06234567901234565,0,0)" xlink:href="#av"/><use transform="matrix(0.06234567901234565,0,0,0.06234567901234565,13.653703703703698,0)" xlink:href="#at"/><use transform="matrix(0.06234567901234565,0,0,0.06234567901234565,19.888271604938264,0)" xlink:href="#aI"/><use transform="matrix(0.06234567901234565,0,0,0.06234567901234565,38.52962962962961,0)" xlink:href="#aw"/><use transform="matrix(0.06234567901234565,0,0,0.06234567901234565,53.492592592592565,0)" xlink:href="#aJ"/><use transform="matrix(0.06234567901234565,0,0,0.06234567901234565,68.45555555555552,0)" xlink:href="#av"/><use transform="matrix(0.06234567901234565,0,0,0.06234567901234565,80.42592592592588,0)" xlink:href="#aE"/><use transform="matrix(0.06234567901234565,0,0,0.06234567901234565,95.38888888888884,0)" xlink:href="#aI"/><use transform="matrix(0.06234567901234565,0,0,0.06234567901234565,114.03024691358019,0)" xlink:href="#aK"/><use transform="matrix(0.06234567901234565,0,0,0.06234567901234565,126.12530864197525,0)" xlink:href="#aL"/></g><use transform="matrix(0.06234567901234565,0,0,0.06234567901234565,0,0)" xlink:href="#au" id="u"/><path d="M117-194c89-4 53 116 60 194h-32v-121c0-31-8-49-39-48C34-167 62-67 57 0H25l-1-190h30c1 10-1 24 2 32 11-22 29-35 61-36" id="aM"/><path d="M100-194c62-1 85 37 85 99 1 63-27 99-86 99S16-35 15-95c0-66 28-99 85-99zM99-20c44 1 53-31 53-75 0-43-8-75-51-75s-53 32-53 75 10 74 51 75" id="aN"/><g id="v"><use transform="matrix(0.06234567901234565,0,0,0.06234567901234565,0,0)" xlink:href="#aM"/><use transform="matrix(0.06234567901234565,0,0,0.06234567901234565,12.46913580246913,0)" xlink:href="#aN"/><use transform="matrix(0.06234567901234565,0,0,0.06234567901234565,24.93827160493826,0)" xlink:href="#ar"/><use transform="matrix(0.06234567901234565,0,0,0.06234567901234565,31.172839506172828,0)" xlink:href="#ao"/><use transform="matrix(0.06234567901234565,0,0,0.06234567901234565,43.64197530864196,0)" xlink:href="#as"/></g><path d="M195 0l-74-108L45 0H8l94-129-87-119h37l69 98 67-98h37l-84 118L233 0h-38" id="aO"/><g id="w"><use transform="matrix(0.06234567901234565,0,0,0.06234567901234565,0,0)" xlink:href="#av"/><use transform="matrix(0.06234567901234565,0,0,0.06234567901234565,13.653703703703698,0)" xlink:href="#aw"/><use transform="matrix(0.06234567901234565,0,0,0.06234567901234565,28.616666666666653,0)" xlink:href="#aO"/><use transform="matrix(0.06234567901234565,0,0,0.06234567901234565,43.57962962962961,0)" xlink:href="#av"/><use transform="matrix(0.06234567901234565,0,0,0.06234567901234565,54.73950617283948,0)" xlink:href="#aL"/></g><path fill="#333" d="M84 4C-5 8 30-112 23-190h32v120c0 31 7 50 39 49 72-2 45-101 50-169h31l1 190h-30c-1-10 1-25-2-33-11 22-28 36-60 37" id="aP"/><path fill="#333" d="M114-163C36-179 61-72 57 0H25l-1-190h30c1 12-1 29 2 39 6-27 23-49 58-41v29" id="aQ"/><g id="x"><use transform="matrix(0.06172839506172837,0,0,0.06172839506172837,0,0)" xlink:href="#aP"/><use transform="matrix(0.06172839506172837,0,0,0.06172839506172837,12.345679012345673,0)" xlink:href="#al"/><use transform="matrix(0.06172839506172837,0,0,0.06172839506172837,23.45679012345678,0)" xlink:href="#O"/><use transform="matrix(0.06172839506172837,0,0,0.06172839506172837,35.802469135802454,0)" xlink:href="#aQ"/><use transform="matrix(0.06172839506172837,0,0,0.06172839506172837,43.14814814814813,0)" xlink:href="#al"/></g><g id="y"><use transform="matrix(0.061728395061728364,0,0,0.061728395061728364,0,0)" xlink:href="#aP"/><use transform="matrix(0.061728395061728364,0,0,0.061728395061728364,12.345679012345673,0)" xlink:href="#al"/><use transform="matrix(0.061728395061728364,0,0,0.061728395061728364,23.456790123456777,0)" xlink:href="#O"/><use transform="matrix(0.061728395061728364,0,0,0.061728395061728364,35.802469135802454,0)" xlink:href="#aQ"/><use transform="matrix(0.061728395061728364,0,0,0.061728395061728364,43.14814814814813,0)" xlink:href="#ak"/><use transform="matrix(0.061728395061728364,0,0,0.061728395061728364,55.49382716049381,0)" xlink:href="#Q"/><use transform="matrix(0.061728395061728364,0,0,0.061728395061728364,67.83950617283948,0)" xlink:href="#N"/><use transform="matrix(0.061728395061728364,0,0,0.061728395061728364,86.29629629629626,0)" xlink:href="#O"/></g><path fill="#333" d="M137 0h-34L2-248h35l83 218 83-218h36" id="aR"/><path fill="#333" d="M212-179c-10-28-35-45-73-45-59 0-87 40-87 99 0 60 29 101 89 101 43 0 62-24 78-52l27 14C228-24 195 4 139 4 59 4 22-46 18-125c-6-104 99-153 187-111 19 9 31 26 39 46" id="aS"/><path fill="#333" d="M197 0v-115H63V0H30v-248h33v105h134v-105h34V0h-34" id="aT"/><path fill="#333" d="M87 75C49 33 22-17 22-94c0-76 28-126 65-167h31c-38 41-64 92-64 168S80 34 118 75H87" id="aU"/><path fill="#333" d="M101-251c82-7 93 87 43 132L82-64C71-53 59-42 53-27h129V0H18c2-99 128-94 128-182 0-28-16-43-45-43s-46 15-49 41l-32-3c6-41 34-60 81-64" id="aV"/><path fill="#333" d="M101-251c68 0 85 55 85 127S166 4 100 4C33 4 14-52 14-124c0-73 17-127 87-127zm-1 229c47 0 54-49 54-102s-4-102-53-102c-51 0-55 48-55 102 0 53 5 102 54 102" id="aW"/><path fill="#333" d="M33-261c38 41 65 92 65 168S71 34 33 75H2C39 34 66-17 66-93S39-220 2-261h31" id="aX"/><g id="z"><use transform="matrix(0.06172839506172837,0,0,0.06172839506172837,0,0)" xlink:href="#aR"/><use transform="matrix(0.06172839506172837,0,0,0.06172839506172837,13.148148148148143,0)" xlink:href="#Z"/><use transform="matrix(0.06172839506172837,0,0,0.06172839506172837,27.962962962962955,0)" xlink:href="#X"/><use transform="matrix(0.06172839506172837,0,0,0.06172839506172837,43.950617283950606,0)" xlink:href="#aS"/><use transform="matrix(0.06172839506172837,0,0,0.06172839506172837,59.93827160493825,0)" xlink:href="#aT"/><use transform="matrix(0.06172839506172837,0,0,0.06172839506172837,75.9259259259259,0)" xlink:href="#Z"/><use transform="matrix(0.06172839506172837,0,0,0.06172839506172837,90.7407407407407,0)" xlink:href="#X"/><use transform="matrix(0.06172839506172837,0,0,0.06172839506172837,106.72839506172835,0)" xlink:href="#aU"/><use transform="matrix(0.06172839506172837,0,0,0.06172839506172837,114.07407407407402,0)" xlink:href="#aV"/><use transform="matrix(0.06172839506172837,0,0,0.06172839506172837,126.41975308641969,0)" xlink:href="#aW"/><use transform="matrix(0.06172839506172837,0,0,0.06172839506172837,138.76543209876536,0)" xlink:href="#aX"/><use transform="matrix(0.06172839506172837,0,0,0.06172839506172837,146.11111111111103,0)" xlink:href="#ag"/></g><path fill="#333" d="M24 0v-261h32V0H24" id="aY"/><path fill="#333" d="M-5 72V49h209v23H-5" id="aZ"/><g id="A"><use transform="matrix(0.061728395061728364,0,0,0.061728395061728364,0,0)" xlink:href="#O"/><use transform="matrix(0.061728395061728364,0,0,0.061728395061728364,12.345679012345673,0)" xlink:href="#N"/><use transform="matrix(0.061728395061728364,0,0,0.061728395061728364,30.802469135802454,0)" xlink:href="#Q"/><use transform="matrix(0.061728395061728364,0,0,0.061728395061728364,43.148148148148124,0)" xlink:href="#T"/><use transform="matrix(0.061728395061728364,0,0,0.061728395061728364,48.02469135802467,0)" xlink:href="#aY"/><use transform="matrix(0.061728395061728364,0,0,0.061728395061728364,52.90123456790121,0)" xlink:href="#aZ"/><use transform="matrix(0.061728395061728364,0,0,0.061728395061728364,65.24691358024688,0)" xlink:href="#Q"/><use transform="matrix(0.061728395061728364,0,0,0.061728395061728364,77.59259259259255,0)" xlink:href="#U"/><use transform="matrix(0.061728395061728364,0,0,0.061728395061728364,89.93827160493822,0)" xlink:href="#U"/><use transform="matrix(0.061728395061728364,0,0,0.061728395061728364,102.28395061728389,0)" xlink:href="#aQ"/><use transform="matrix(0.061728395061728364,0,0,0.061728395061728364,109.62962962962956,0)" xlink:href="#O"/><use transform="matrix(0.061728395061728364,0,0,0.061728395061728364,121.97530864197523,0)" xlink:href="#al"/><use transform="matrix(0.061728395061728364,0,0,0.061728395061728364,133.08641975308635,0)" xlink:href="#al"/></g><path fill="#333" d="M30-248c118-7 216 8 213 122C240-48 200 0 122 0H30v-248zM63-27c89 8 146-16 146-99s-60-101-146-95v194" id="ba"/><g id="B"><use transform="matrix(0.06172839506172837,0,0,0.06172839506172837,0,0)" xlink:href="#W"/><use transform="matrix(0.06172839506172837,0,0,0.06172839506172837,14.81481481481481,0)" xlink:href="#ad"/><use transform="matrix(0.06172839506172837,0,0,0.06172839506172837,33.271604938271594,0)" xlink:href="#Z"/><use transform="matrix(0.06172839506172837,0,0,0.06172839506172837,48.0864197530864,0)" xlink:href="#Y"/><use transform="matrix(0.06172839506172837,0,0,0.06172839506172837,54.25925925925924,0)" xlink:href="#aa"/><use transform="matrix(0.06172839506172837,0,0,0.06172839506172837,66.60493827160491,0)" xlink:href="#aZ"/><use transform="matrix(0.06172839506172837,0,0,0.06172839506172837,78.95061728395058,0)" xlink:href="#Z"/><use transform="matrix(0.06172839506172837,0,0,0.06172839506172837,93.76543209876539,0)" xlink:href="#ba"/><use transform="matrix(0.06172839506172837,0,0,0.06172839506172837,109.75308641975303,0)" xlink:href="#ba"/><use transform="matrix(0.06172839506172837,0,0,0.06172839506172837,125.74074074074068,0)" xlink:href="#X"/><use transform="matrix(0.06172839506172837,0,0,0.06172839506172837,141.72839506172832,0)" xlink:href="#W"/><use transform="matrix(0.06172839506172837,0,0,0.06172839506172837,156.54320987654313,0)" xlink:href="#V"/><use transform="matrix(0.06172839506172837,0,0,0.06172839506172837,171.35802469135794,0)" xlink:href="#V"/></g><path d="M101-234c-31-9-42 10-38 44h38v23H63V0H32v-167H5v-23h27c-7-52 17-82 69-68v24" id="bb"/><path d="M210-169c-67 3-38 105-44 169h-31v-121c0-29-5-50-35-48C34-165 62-65 56 0H25l-1-190h30c1 10-1 24 2 32 10-44 99-50 107 0 11-21 27-35 58-36 85-2 47 119 55 194h-31v-121c0-29-5-49-35-48" id="bc"/><g id="C"><use transform="matrix(0.06234567901234565,0,0,0.06234567901234565,0,0)" xlink:href="#bb"/><use transform="matrix(0.06234567901234565,0,0,0.06234567901234565,6.234567901234565,0)" xlink:href="#aq"/><use transform="matrix(0.06234567901234565,0,0,0.06234567901234565,11.159876543209872,0)" xlink:href="#aG"/><use transform="matrix(0.06234567901234565,0,0,0.06234567901234565,18.579012345679004,0)" xlink:href="#as"/><use transform="matrix(0.06234567901234565,0,0,0.06234567901234565,29.801234567901222,0)" xlink:href="#ar"/><use transform="matrix(0.06234567901234565,0,0,0.06234567901234565,36.03580246913579,0)" xlink:href="#az"/><use transform="matrix(0.06234567901234565,0,0,0.06234567901234565,48.50493827160492,0)" xlink:href="#aM"/><use transform="matrix(0.06234567901234565,0,0,0.06234567901234565,60.97407407407405,0)" xlink:href="#aH"/><use transform="matrix(0.06234567901234565,0,0,0.06234567901234565,73.44320987654318,0)" xlink:href="#bc"/><use transform="matrix(0.06234567901234565,0,0,0.06234567901234565,92.08456790123452,0)" xlink:href="#ao"/></g><path d="M137 0h-34L2-248h35l83 218 83-218h36" id="bd"/><path d="M212-179c-10-28-35-45-73-45-59 0-87 40-87 99 0 60 29 101 89 101 43 0 62-24 78-52l27 14C228-24 195 4 139 4 59 4 22-46 18-125c-6-104 99-153 187-111 19 9 31 26 39 46" id="be"/><path d="M197 0v-115H63V0H30v-248h33v105h134v-105h34V0h-34" id="bf"/><path d="M87 75C49 33 22-17 22-94c0-76 28-126 65-167h31c-38 41-64 92-64 168S80 34 118 75H87" id="bg"/><path d="M54-142c48-35 137-8 131 61C196 18 31 33 14-55l32-4c7 23 22 37 52 37 35-1 51-22 54-58 4-55-73-65-99-34H22l8-134h141v27H59" id="bh"/><path d="M101-251c68 0 85 55 85 127S166 4 100 4C33 4 14-52 14-124c0-73 17-127 87-127zm-1 229c47 0 54-49 54-102s-4-102-53-102c-51 0-55 48-55 102 0 53 5 102 54 102" id="bi"/><path d="M33-261c38 41 65 92 65 168S71 34 33 75H2C39 34 66-17 66-93S39-220 2-261h31" id="bj"/><g id="D"><use transform="matrix(0.06234567901234565,0,0,0.06234567901234565,0,0)" xlink:href="#bd"/><use transform="matrix(0.06234567901234565,0,0,0.06234567901234565,13.279629629629625,0)" xlink:href="#aE"/><use transform="matrix(0.06234567901234565,0,0,0.06234567901234565,28.24259259259258,0)" xlink:href="#ay"/><use transform="matrix(0.06234567901234565,0,0,0.06234567901234565,44.39012345679011,0)" xlink:href="#be"/><use transform="matrix(0.06234567901234565,0,0,0.06234567901234565,60.53765432098763,0)" xlink:href="#bf"/><use transform="matrix(0.06234567901234565,0,0,0.06234567901234565,76.68518518518515,0)" xlink:href="#aE"/><use transform="matrix(0.06234567901234565,0,0,0.06234567901234565,91.64814814814811,0)" xlink:href="#ay"/><use transform="matrix(0.06234567901234565,0,0,0.06234567901234565,107.79567901234563,0)" xlink:href="#bg"/><use transform="matrix(0.06234567901234565,0,0,0.06234567901234565,115.21481481481476,0)" xlink:href="#bh"/><use transform="matrix(0.06234567901234565,0,0,0.06234567901234565,127.68395061728388,0)" xlink:href="#bi"/><use transform="matrix(0.06234567901234565,0,0,0.06234567901234565,140.153086419753,0)" xlink:href="#bj"/></g><g id="E"><use transform="matrix(0.06234567901234565,0,0,0.06234567901234565,0,0)" xlink:href="#aA"/><use transform="matrix(0.06234567901234565,0,0,0.06234567901234565,4.925308641975307,0)" xlink:href="#aH"/><use transform="matrix(0.06234567901234565,0,0,0.06234567901234565,17.39444444444444,0)" xlink:href="#as"/><use transform="matrix(0.06234567901234565,0,0,0.06234567901234565,28.616666666666656,0)" xlink:href="#ar"/><use transform="matrix(0.06234567901234565,0,0,0.06234567901234565,34.85123456790122,0)" xlink:href="#az"/><use transform="matrix(0.06234567901234565,0,0,0.06234567901234565,47.320370370370355,0)" xlink:href="#aM"/><use transform="matrix(0.06234567901234565,0,0,0.06234567901234565,59.78950617283949,0)" xlink:href="#aH"/><use transform="matrix(0.06234567901234565,0,0,0.06234567901234565,72.25864197530862,0)" xlink:href="#bc"/><use transform="matrix(0.06234567901234565,0,0,0.06234567901234565,90.89999999999998,0)" xlink:href="#ao"/></g><path d="M64 0c3-98 48-159 88-221H18v-27h164v26C143-157 98-101 97 0H64" id="bk"/><g id="F"><use transform="matrix(0.06234567901234565,0,0,0.06234567901234565,0,0)" xlink:href="#bd"/><use transform="matrix(0.06234567901234565,0,0,0.06234567901234565,13.279629629629625,0)" xlink:href="#aE"/><use transform="matrix(0.06234567901234565,0,0,0.06234567901234565,28.24259259259258,0)" xlink:href="#ay"/><use transform="matrix(0.06234567901234565,0,0,0.06234567901234565,44.39012345679011,0)" xlink:href="#be"/><use transform="matrix(0.06234567901234565,0,0,0.06234567901234565,60.53765432098763,0)" xlink:href="#bf"/><use transform="matrix(0.06234567901234565,0,0,0.06234567901234565,76.68518518518515,0)" xlink:href="#aE"/><use transform="matrix(0.06234567901234565,0,0,0.06234567901234565,91.64814814814811,0)" xlink:href="#ay"/><use transform="matrix(0.06234567901234565,0,0,0.06234567901234565,107.79567901234563,0)" xlink:href="#bg"/><use transform="matrix(0.06234567901234565,0,0,0.06234567901234565,115.21481481481476,0)" xlink:href="#bk"/><use transform="matrix(0.06234567901234565,0,0,0.06234567901234565,127.68395061728388,0)" xlink:href="#bi"/><use transform="matrix(0.06234567901234565,0,0,0.06234567901234565,140.153086419753,0)" xlink:href="#bj"/></g><path d="M106-169C34-169 62-67 57 0H25v-261h32l-1 103c12-21 28-36 61-36 89 0 53 116 60 194h-32v-121c2-32-8-49-39-48" id="bl"/><g id="G"><use transform="matrix(0.06234567901234565,0,0,0.06234567901234565,0,0)" xlink:href="#aN"/><use transform="matrix(0.06234567901234565,0,0,0.06234567901234565,12.46913580246913,0)" xlink:href="#ar"/><use transform="matrix(0.06234567901234565,0,0,0.06234567901234565,18.703703703703695,0)" xlink:href="#bl"/><use transform="matrix(0.06234567901234565,0,0,0.06234567901234565,31.172839506172828,0)" xlink:href="#ao"/><use transform="matrix(0.06234567901234565,0,0,0.06234567901234565,43.64197530864196,0)" xlink:href="#aG"/><use transform="matrix(0.06234567901234565,0,0,0.06234567901234565,51.061111111111096,0)" xlink:href="#az"/><use transform="matrix(0.06234567901234565,0,0,0.06234567901234565,63.53024691358023,0)" xlink:href="#aM"/><use transform="matrix(0.06234567901234565,0,0,0.06234567901234565,75.99938271604935,0)" xlink:href="#aH"/><use transform="matrix(0.06234567901234565,0,0,0.06234567901234565,88.46851851851848,0)" xlink:href="#bc"/><use transform="matrix(0.06234567901234565,0,0,0.06234567901234565,107.10987654320982,0)" xlink:href="#ao"/><use transform="matrix(0.06234567901234565,0,0,0.06234567901234565,119.57901234567895,0)" xlink:href="#as"/></g><path d="M27 0v-27h64v-190l-56 39v-29l58-41h29v221h61V0H27" id="bm"/><path d="M101-251c82-7 93 87 43 132L82-64C71-53 59-42 53-27h129V0H18c2-99 128-94 128-182 0-28-16-43-45-43s-46 15-49 41l-32-3c6-41 34-60 81-64" id="bn"/><g id="H"><use transform="matrix(0.06234567901234565,0,0,0.06234567901234565,0,0)" xlink:href="#bd"/><use transform="matrix(0.06234567901234565,0,0,0.06234567901234565,13.279629629629625,0)" xlink:href="#aE"/><use transform="matrix(0.06234567901234565,0,0,0.06234567901234565,28.24259259259258,0)" xlink:href="#ay"/><use transform="matrix(0.06234567901234565,0,0,0.06234567901234565,44.39012345679011,0)" xlink:href="#be"/><use transform="matrix(0.06234567901234565,0,0,0.06234567901234565,60.53765432098763,0)" xlink:href="#bf"/><use transform="matrix(0.06234567901234565,0,0,0.06234567901234565,76.68518518518515,0)" xlink:href="#aE"/><use transform="matrix(0.06234567901234565,0,0,0.06234567901234565,91.64814814814811,0)" xlink:href="#ay"/><use transform="matrix(0.06234567901234565,0,0,0.06234567901234565,107.79567901234563,0)" xlink:href="#bg"/><use transform="matrix(0.06234567901234565,0,0,0.06234567901234565,115.21481481481476,0)" xlink:href="#bm"/><use transform="matrix(0.06234567901234565,0,0,0.06234567901234565,127.68395061728388,0)" xlink:href="#bn"/><use transform="matrix(0.06234567901234565,0,0,0.06234567901234565,140.153086419753,0)" xlink:href="#bi"/><use transform="matrix(0.06234567901234565,0,0,0.06234567901234565,152.62222222222215,0)" xlink:href="#bj"/><use transform="matrix(0.06234567901234565,0,0,0.06234567901234565,160.04135802469128,0)" xlink:href="#aL"/></g><path d="M115-194c55 1 70 41 70 98S169 2 115 4C84 4 66-9 55-30l1 105H24l-1-265h31l2 30c10-21 28-34 59-34zm-8 174c40 0 45-34 45-75s-6-73-45-74c-42 0-51 32-51 76 0 43 10 73 51 73" id="bo"/><path d="M206 0h-36l-40-164L89 0H53L-1-190h32L70-26l43-164h34l41 164 42-164h31" id="bp"/><g id="I"><use transform="matrix(0.06234567901234565,0,0,0.06234567901234565,0,0)" xlink:href="#bo"/><use transform="matrix(0.06234567901234565,0,0,0.06234567901234565,12.46913580246913,0)" xlink:href="#aH"/><use transform="matrix(0.06234567901234565,0,0,0.06234567901234565,24.93827160493826,0)" xlink:href="#as"/><use transform="matrix(0.06234567901234565,0,0,0.06234567901234565,36.16049382716048,0)" xlink:href="#as"/><use transform="matrix(0.06234567901234565,0,0,0.06234567901234565,47.382716049382694,0)" xlink:href="#bp"/><use transform="matrix(0.06234567901234565,0,0,0.06234567901234565,63.530246913580214,0)" xlink:href="#aN"/><use transform="matrix(0.06234567901234565,0,0,0.06234567901234565,75.99938271604934,0)" xlink:href="#aG"/><use transform="matrix(0.06234567901234565,0,0,0.06234567901234565,83.41851851851847,0)" xlink:href="#ap"/></g><g id="J"><use transform="matrix(0.06234567901234565,0,0,0.06234567901234565,0,0)" xlink:href="#aJ"/><use transform="matrix(0.06234567901234565,0,0,0.06234567901234565,14.962962962962957,0)" xlink:href="#bf"/><use transform="matrix(0.06234567901234565,0,0,0.06234567901234565,31.110493827160482,0)" xlink:href="#aE"/><use transform="matrix(0.06234567901234565,0,0,0.06234567901234565,46.07345679012344,0)" xlink:href="#bm"/></g><g id="K"><use transform="matrix(0.06234567901234565,0,0,0.06234567901234565,0,0)" xlink:href="#bc"/><use transform="matrix(0.06234567901234565,0,0,0.06234567901234565,18.64135802469135,0)" xlink:href="#ao"/><use transform="matrix(0.06234567901234565,0,0,0.06234567901234565,31.110493827160482,0)" xlink:href="#ar"/><use transform="matrix(0.06234567901234565,0,0,0.06234567901234565,37.345061728395045,0)" xlink:href="#aH"/><use transform="matrix(0.06234567901234565,0,0,0.06234567901234565,49.81419753086418,0)" xlink:href="#az"/><use transform="matrix(0.06234567901234565,0,0,0.06234567901234565,62.28333333333331,0)" xlink:href="#aq"/><use transform="matrix(0.06234567901234565,0,0,0.06234567901234565,67.20864197530862,0)" xlink:href="#ap"/></g><g id="L"><use transform="matrix(0.06234567901234565,0,0,0.06234567901234565,0,0)" xlink:href="#aJ"/><use transform="matrix(0.06234567901234565,0,0,0.06234567901234565,14.962962962962957,0)" xlink:href="#aI"/><use transform="matrix(0.06234567901234565,0,0,0.06234567901234565,33.604320987654305,0)" xlink:href="#aE"/><use transform="matrix(0.06234567901234565,0,0,0.06234567901234565,48.56728395061726,0)" xlink:href="#aD"/><use transform="matrix(0.06234567901234565,0,0,0.06234567901234565,61.03641975308639,0)" xlink:href="#aD"/><use transform="matrix(0.06234567901234565,0,0,0.06234567901234565,73.50555555555552,0)" xlink:href="#at"/><use transform="matrix(0.06234567901234565,0,0,0.06234567901234565,79.74012345679009,0)" xlink:href="#au"/><use transform="matrix(0.06234567901234565,0,0,0.06234567901234565,95.88765432098761,0)" xlink:href="#av"/><use transform="matrix(0.06234567901234565,0,0,0.06234567901234565,107.04753086419748,0)" xlink:href="#aL"/></g><path d="M232-93c-1 65-40 97-104 97C67 4 28-28 28-90v-158h33c8 89-33 224 67 224 102 0 64-133 71-224h33v155" id="bq"/><use transform="matrix(0.06234567901234565,0,0,0.06234567901234565,0,0)" xlink:href="#bq" id="M"/></defs></g></svg>